{
.appVersion = "1356";
DisplayStrings = (
"!\"#$%&'()*+,-.//\0120123456789:;<=>?\012@ABCDEFGHIJKLMNO\012PQRSTUVWXYZ[/backslash ]^_\012`abcdefghijklmno\012pqrstuvwxyz{|}~/space \012\012",
"!\"#$%&'()*+,-.//0123456789\012!\"#$%&'()*+,-.//0123456789\012!\"#$%&'()*+,-.//0123456789\012/_cross \012ABCDEFGHIJKLMNOPQRSTUVWXYZ\012ABCDEFGHIJKLMNOPQRSTUVWXYZ\012ABCDEFGHIJKLMNOPQRSTUVWXYZ\012/_cross \012abcdefghijklmnopqrstuvwxyz\012abcdefghijklmnopqrstuvwxyz\012abcdefghijklmnopqrstuvwxyz\012/_cross \012:;<=>?@[/backslash ]^_`{|}~\012:;<=>?@[/backslash ]^_`{|}~\012:;<=>?@[/backslash ]^_`{|}~\012/_cross \012",
"%/zerosuperior H¹H²H³H/foursuperior H\012HH/zerosuperior ¹²³/foursuperior"
);
copyright = "Copyright © 2021 by Coji Morishita. All rights reserved.";
customParameters = (
{
name = vendorID;
value = UFDN;
},
{
name = ROS;
value = "Adobe-Identity-0";
},
{
name = "Enforce Compatibility Check";
value = 1;
},
{
name = Axes;
value = (
{
Name = Weight;
Tag = wght;
}
);
},
{
name = "Use Typo Metrics";
value = 1;
},
{
name = note;
value = "*sup: W68%/H44%(320,330) (Bold +20/30, Thin 20, Regular +8)\012©®:   W50%/H40% (Black +10, Thin 20, Regular +20)\012TM:   50% (Black +0, Thin 20, Regular=Black)\012\012\012%:    60% (Black +20, Thin 20, Medium +20)\012ord*: 80% (Black +10, Thin 20, Medium +10)\012*sup: 60% (Black +20, Thin 20, Medium +20)\012©®:   60% (Black +20, Thin 20, Medium +20)\012TM:   50% (Black +0~10, Thin 20, Medium +20)\012\012*sml: X100、Y-8、W80%、H80% (Black +20, Thin 20, Medium +6)\012\012full-width bracket pairs: X1000, Y720 Rotate180";
}
);
date = "2021-02-26 07:42:34 +0000";
designer = "Coji Morishita";
designerURL = "http://www.underforest.com";
familyName = "Mplus code";
featurePrefixes = (
{
automatic = 1;

glyphs = (
{
color = 10;
glyphname = A;
lastChange = "2021-04-12 15:12:41 +0000";
layers = (
{
anchors = (
{
name = bottom;
position = "{250, 0}";
},
{
name = ogonek;
position = "{435, 0}";
},
{
name = top;
position = "{250, 730}";
},
{
name = top_ring;
position = "{250, 660}";
}
);
layerId = "D65C9A1E-0FCA-4B2D-8EDF-9F36CA9182A1";
paths = (
{
closed = 1;
nodes = (
"56 0 LINE",
"248 711 LINE",
"252 711 LINE",
"444 0 LINE",
"465 0 LINE",
"267 730 LINE",
"233 730 LINE",
"35 0 LINE"
);
},
{
closed = 1;
nodes = (
"385 245 LINE",
"385 265 LINE",
"115 265 LINE",
"115 245 LINE"
);
}
);
width = 500;
},
{
anchors = (
{
name = bottom;
position = "{250, 0}";
},
{
name = ogonek;
position = "{436, 0}";
},
{
name = top;
position = "{250, 730}";
},
{
name = top_ring;
position = "{250, 630}";
}
);
layerId = "E27A6A66-A1F8-4E1B-8224-7C0FE77551F2";
paths = (
{
closed = 1;
nodes = (
"102 0 LINE",
"248 636 LINE",
"252 636 LINE",
"398 0 LINE",
"480 0 LINE",
"299 730 LINE",
"201 730 LINE",
"20 0 LINE"
);
},
{
closed = 1;
nodes = (
"388 200 LINE",
"388 270 LINE",
"112 270 LINE",
"112 200 LINE"
);
}
);
vertWidth = 1000;
width = 500;
},
{
anchors = (
{
name = bottom;
position = "{250, 0}";
},
{
name = ogonek;
position = "{432, 0}";
},
{
name = top;
position = "{250, 730}";
},
{
name = top_ring;
position = "{250, 600}";
}
);
layerId = "FC9CFCDA-9E80-4E73-BA51-8504D15957FA";
paths = (
{
closed = 1;
nodes = (
"147 0 LINE",
"248 560 LINE",
"252 560 LINE",
"353 0 LINE",
"495 0 LINE",
"330 730 LINE",
"170 730 LINE",
"5 0 LINE"
);
},
{
closed = 1;
nodes = (
"390 155 LINE",
"390 275 LINE",
"110 275 LINE",
"110 155 LINE"
);
}
);
vertWidth = 1000;
width = 500;
}
);
leftKerningGroup = A;
rightKerningGroup = A;
rightMetricsKey = "=|";
unicode = 0041;
},
{
color = 11;
glyphname = AE;
lastChange = "2021-04-13 01:40:21 +0000";
layers = (
{
anchors = (
{
name = bottom;
position = "{250, 0}";
},
{
name = top;
position = "{250, 730}";
}
);
layerId = "D65C9A1E-0FCA-4B2D-8EDF-9F36CA9182A1";
paths = (
{
closed = 1;
nodes = (
"41 0 LINE",
"276 710 LINE",
"280 710 LINE",
"280 0 LINE",
"480 0 LINE",
"480 20 LINE",
"300 20 LINE",
"300 376 LINE",
"470 376 LINE",
"470 396 LINE",
"300 396 LINE",
"300 710 LINE",
"480 710 LINE",
"480 730 LINE",
"262 730 LINE",
"20 0 LINE"
);
},
{
closed = 1;
nodes = (
"290 245 LINE",
"290 265 LINE",
"115 265 LINE",
"115 245 LINE"
);
}
);
width = 500;
},
{
anchors = (
{
name = bottom;
position = "{250, 0}";
},
{
name = top;
position = "{250, 730}";
}
);
layerId = "E27A6A66-A1F8-4E1B-8224-7C0FE77551F2";
paths = (
{
closed = 1;
nodes = (
"94 0 LINE",
"258 636 LINE",
"262 636 LINE",
"262 0 LINE",
"483 0 LINE",
"483 70 LINE",
"342 70 LINE",
"342 351 LINE",
"473 351 LINE",
"473 421 LINE",
"342 421 LINE",
"342 660 LINE",
"483 660 LINE",
"483 730 LINE",
"213 730 LINE",
"12 0 LINE"
);
},
{
closed = 1;
nodes = (
"298 200 LINE",
"298 270 LINE",
"112 270 LINE",
"112 200 LINE"
);
}
);
vertWidth = 1000;
width = 500;
},
{
anchors = (
{
name = bottom;
position = "{250, 0}";
},
{
name = top;
position = "{250, 730}";
}
);
layerId = "FC9CFCDA-9E80-4E73-BA51-8504D15957FA";
paths = (
{
closed = 1;
nodes = (
"135 0 LINE",
"241 560 LINE",
"245 560 LINE",
"245 0 LINE",
"485 0 LINE",
"485 118 LINE",
"365 118 LINE",
"365 328 LINE",
"475 328 LINE",
"475 444 LINE",
"365 444 LINE",
"365 612 LINE",
"485 612 LINE",
"485 730 LINE",
"165 730 LINE",
"5 0 LINE"
);
},
{
closed = 1;
nodes = (
"305 155 LINE",
"305 275 LINE",
"110 275 LINE",
"110 155 LINE"
);
}
);
vertWidth = 1000;
width = 500;
}
);
leftKerningGroup = A;
rightKerningGroup = E;
unicode = 00C6;
},
{
color = 10;
glyphname = B;
lastChange = "2021-04-10 04:34:40 +0000";
layers = (
{
layerId = "D65C9A1E-0FCA-4B2D-8EDF-9F36CA9182A1";
paths = (
{
closed = 1;
nodes = (
"372 -10 OFFCURVE",
"450 60 OFFCURVE",
"450 200 CURVE SMOOTH",
"450 305 OFFCURVE",
"406 363 OFFCURVE",
"311 386 CURVE",
"311 390 LINE",
"390 415 OFFCURVE",
"432 471 OFFCURVE",
"432 565 CURVE SMOOTH",
"432 685 OFFCURVE",
"364 740 OFFCURVE",
"216 740 CURVE SMOOTH",
"182 740 OFFCURVE",
"136 737 OFFCURVE",
"80 728 CURVE",
"80 2 LINE",
"135 -7 OFFCURVE",
"182 -10 OFFCURVE",
"216 -10 CURVE SMOOTH"
);
},
{
closed = 1;
nodes = (
"100 728 LINE",
"83 708 LINE",
"132 716 OFFCURVE",
"176 720 OFFCURVE",
"216 720 CURVE SMOOTH",
"353 720 OFFCURVE",
"412 673 OFFCURVE",
"412 565 CURVE SMOOTH",
"412 452 OFFCURVE",
"347 396 OFFCURVE",
"216 396 CURVE SMOOTH",
"90 396 LINE",
"90 376 LINE",
"216 376 LINE SMOOTH",
"366 376 OFFCURVE",
"430 324 OFFCURVE",
"430 200 CURVE SMOOTH",
"430 71 OFFCURVE",
"361 10 OFFCURVE",
"216 10 CURVE SMOOTH",
"184 10 OFFCURVE",
"137 13 OFFCURVE",
"83 22 CURVE",
"100 2 LINE"
);
}
);
width = 500;
},
{
layerId = "E27A6A66-A1F8-4E1B-8224-7C0FE77551F2";
paths = (
{
closed = 1;
nodes = (
"380 -10 OFFCURVE",
"465 64 OFFCURVE",
"465 210 CURVE SMOOTH",
"465 308 OFFCURVE",
"427 366 OFFCURVE",
"347 389 CURVE",
"347 393 LINE",
"412 418 OFFCURVE",
"446 473 OFFCURVE",
"446 555 CURVE SMOOTH",
"446 679 OFFCURVE",
"369 740 OFFCURVE",
"212 740 CURVE SMOOTH",
"177 740 OFFCURVE",
"126 737 OFFCURVE",
"65 728 CURVE",
"65 2 LINE",
"125 -7 OFFCURVE",
"178 -10 OFFCURVE",
"212 -10 CURVE SMOOTH"
);
},
{
closed = 1;
nodes = (
"145 687 LINE",
"125 655 LINE",
"157 664 OFFCURVE",
"189 668 OFFCURVE",
"221 668 CURVE SMOOTH",
"320 668 OFFCURVE",
"365 630 OFFCURVE",
"365 548 CURVE SMOOTH",
"365 461 OFFCURVE",
"315 420 OFFCURVE",
"210 420 CURVE SMOOTH",
"105 420 LINE",
"105 352 LINE",
"218 352 LINE SMOOTH",
"333 352 OFFCURVE",
"383 310 OFFCURVE",
"383 210 CURVE SMOOTH",
"383 110 OFFCURVE",
"331 62 OFFCURVE",
"221 62 CURVE SMOOTH",
"189 62 OFFCURVE",
"159 66 OFFCURVE",
"125 75 CURVE",
"145 43 LINE"
);
}
);
vertWidth = 1000;
width = 500;
},
{
layerId = "FC9CFCDA-9E80-4E73-BA51-8504D15957FA";
paths = (
{
closed = 1;
nodes = (
"395 -10 OFFCURVE",
"480 56 OFFCURVE",
"480 200 CURVE SMOOTH",
"480 308 OFFCURVE",
"431 376 OFFCURVE",
"342 392 CURVE",
"342 396 LINE",
"415 413 OFFCURVE",
"459 477 OFFCURVE",
"459 565 CURVE SMOOTH",
"459 684 OFFCURVE",
"379 740 OFFCURVE",
"208 740 CURVE SMOOTH",
"168 740 OFFCURVE",
"115 737 OFFCURVE",
"50 728 CURVE",
"50 2 LINE",
"114 -7 OFFCURVE",
"168 -10 OFFCURVE",
"208 -10 CURVE SMOOTH"
);
},
{
closed = 1;
nodes = (
"190 646 LINE",
"167 604 LINE",
"182 614 OFFCURVE",
"202 618 OFFCURVE",
"225 618 CURVE SMOOTH",
"287 618 OFFCURVE",
"317 589 OFFCURVE",
"317 531 CURVE SMOOTH",
"317 470 OFFCURVE",
"283 444 OFFCURVE",
"204 444 CURVE SMOOTH",
"120 444 LINE",
"120 328 LINE",
"219 328 LINE SMOOTH",
"300 328 OFFCURVE",
"336 295 OFFCURVE",
"336 220 CURVE SMOOTH",
"336 146 OFFCURVE",
"301 112 OFFCURVE",
"225 112 CURVE SMOOTH",
"196 112 OFFCURVE",
"180 117 OFFCURVE",
"167 126 CURVE",
"190 84 LINE"
);
}
);
vertWidth = 1000;
width = 500;
}
);
leftKerningGroup = H;
rightKerningGroup = B;
unicode = 0042;
},
{
color = 10;
glyphname = C;
lastChange = "2021-04-13 01:57:09 +0000";
layers = (
{
anchors = (
{
name = bottom;
position = "{270, 0}";
},
{
name = cedi;
position = "{270, 0}";
},
{
name = top;
position = "{270, 730}";
}
);
layerId = "D65C9A1E-0FCA-4B2D-8EDF-9F36CA9182A1";
paths = (
{
closed = 1;
nodes = (
"354 -10 OFFCURVE",
"389 -5 OFFCURVE",
"416 6 CURVE",
"416 28 LINE",
"393 17 OFFCURVE",
"357 10 OFFCURVE",
"318 10 CURVE SMOOTH",
"159 10 OFFCURVE",
"76 121 OFFCURVE",
"76 335 CURVE SMOOTH",
"76 395 LINE SMOOTH",
"76 609 OFFCURVE",
"152 720 OFFCURVE",
"297 720 CURVE SMOOTH",
"341 720 OFFCURVE",
"377 711 OFFCURVE",
"406 693 CURVE",
"396 713 LINE",
"396 480 LINE",
"416 480 LINE",
"416 710 LINE",
"383 730 OFFCURVE",
"342 740 OFFCURVE",
"297 740 CURVE SMOOTH",
"140 740 OFFCURVE",
"56 620 OFFCURVE",
"56 395 CURVE SMOOTH",
"56 335 LINE SMOOTH",
"56 110 OFFCURVE",
"147 -10 OFFCURVE",
"318 -10 CURVE SMOOTH"
);
}
);
width = 500;
},
{
anchors = (
{
name = bottom;
position = "{270, 0}";
},
{
name = cedi;
position = "{275, 0}";
},
{
name = top;
position = "{270, 730}";
}
);
layerId = "E27A6A66-A1F8-4E1B-8224-7C0FE77551F2";
paths = (
{
closed = 1;
nodes = (
"349 -10 OFFCURVE",
"394 -5 OFFCURVE",
"427 5 CURVE",
"427 80 LINE",
"395 69 OFFCURVE",
"354 62 OFFCURVE",
"318 62 CURVE SMOOTH",
"190 62 OFFCURVE",
"129 149 OFFCURVE",
"129 340 CURVE SMOOTH",
"129 390 LINE SMOOTH",
"129 574 OFFCURVE",
"187 668 OFFCURVE",
"298 668 CURVE SMOOTH",
"332 668 OFFCURVE",
"361 659 OFFCURVE",
"387 640 CURVE",
"347 702 LINE",
"347 470 LINE",
"427 470 LINE",
"427 714 LINE",
"392 731 OFFCURVE",
"346 740 OFFCURVE",
"300 740 CURVE SMOOTH",
"133 740 OFFCURVE",
"47 623 OFFCURVE",
"47 395 CURVE SMOOTH",
"47 335 LINE SMOOTH",
"47 107 OFFCURVE",
"136 -10 OFFCURVE",
"310 -10 CURVE SMOOTH"
);
}
);
vertWidth = 1000;
width = 500;
},
{
anchors = (
{
name = bottom;
position = "{270, 0}";
},
{
name = cedi;
position = "{280, 0}";
},
{
name = top;
position = "{270, 730}";
}
);
layerId = "FC9CFCDA-9E80-4E73-BA51-8504D15957FA";
paths = (
{
closed = 1;
nodes = (
"341 -10 OFFCURVE",
"396 -4 OFFCURVE",
"436 4 CURVE",
"436 134 LINE",
"394 123 OFFCURVE",
"349 116 OFFCURVE",
"316 116 CURVE SMOOTH",
"218 116 OFFCURVE",
"180 179 OFFCURVE",
"180 345 CURVE SMOOTH",
"180 385 LINE SMOOTH",
"180 536 OFFCURVE",
"220 614 OFFCURVE",
"296 614 CURVE SMOOTH",
"319 614 OFFCURVE",
"343 604 OFFCURVE",
"366 584 CURVE",
"296 691 LINE",
"296 460 LINE",
"436 460 LINE",
"436 718 LINE",
"398 731 OFFCURVE",
"346 740 OFFCURVE",
"301 740 CURVE SMOOTH",
"123 740 OFFCURVE",
"36 626 OFFCURVE",
"36 395 CURVE SMOOTH",
"36 335 LINE SMOOTH",
"36 104 OFFCURVE",
"123 -10 OFFCURVE",
"300 -10 CURVE SMOOTH"
);
}
);
vertWidth = 1000;
width = 500;
}
);
leftKerningGroup = O;
rightKerningGroup = C;
unicode = 0043;
},
{
color = 10;
glyphname = D;
lastChange = "2021-04-13 03:24:51 +0000";
layers = (
{
anchors = (
{
name = bottom;
position = "{230, 0}";
},
{
name = center;
position = "{250, 365}";
},
{
name = top;
position = "{230, 730}";
}
);
layerId = "D65C9A1E-0FCA-4B2D-8EDF-9F36CA9182A1";
paths = (
{
closed = 1;
nodes = (
"373 -10 OFFCURVE",
"446 90 OFFCURVE",
"446 335 CURVE SMOOTH",
"446 395 LINE SMOOTH",
"446 640 OFFCURVE",
"373 740 OFFCURVE",
"195 740 CURVE SMOOTH",
"159 740 OFFCURVE",
"121 736 OFFCURVE",
"76 728 CURVE",
"76 2 LINE",
"121 -6 OFFCURVE",
"159 -10 OFFCURVE",
"195 -10 CURVE SMOOTH"
);
},
{
closed = 1;
nodes = (
"96 720 LINE",
"89 710 LINE",
"129 717 OFFCURVE",
"165 720 OFFCURVE",
"195 720 CURVE SMOOTH",
"361 720 OFFCURVE",
"426 629 OFFCURVE",
"426 395 CURVE SMOOTH",
"426 335 LINE SMOOTH",
"426 101 OFFCURVE",
"361 10 OFFCURVE",
"195 10 CURVE SMOOTH",
"165 10 OFFCURVE",
"129 13 OFFCURVE",
"89 20 CURVE",
"96 10 LINE"
);
}
);
width = 500;
},
{
anchors = (
{
name = bottom;
position = "{230, 0}";
},
{
name = center;
position = "{250, 365}";
},
{
name = top;
position = "{230, 730}";
}
);
layerId = "E27A6A66-A1F8-4E1B-8224-7C0FE77551F2";
paths = (
{
closed = 1;
nodes = (
"382 -10 OFFCURVE",
"461 90 OFFCURVE",
"461 335 CURVE SMOOTH",
"461 395 LINE SMOOTH",
"461 640 OFFCURVE",
"382 740 OFFCURVE",
"190 740 CURVE SMOOTH",
"151 740 OFFCURVE",
"110 736 OFFCURVE",
"61 728 CURVE",
"61 2 LINE",
"110 -6 OFFCURVE",
"151 -10 OFFCURVE",
"190 -10 CURVE SMOOTH"
);
},
{
closed = 1;
nodes = (
"141 683 LINE",
"126 656 LINE",
"149 664 OFFCURVE",
"174 668 OFFCURVE",
"202 668 CURVE SMOOTH",
"328 668 OFFCURVE",
"380 587 OFFCURVE",
"380 390 CURVE SMOOTH",
"380 340 LINE SMOOTH",
"380 143 OFFCURVE",
"328 62 OFFCURVE",
"202 62 CURVE SMOOTH",
"174 62 OFFCURVE",
"149 66 OFFCURVE",
"126 74 CURVE",
"141 47 LINE"
);
}
);
vertWidth = 1000;
width = 500;
},
{
anchors = (
{
name = bottom;
position = "{230, 0}";
},
{
name = center;
position = "{250, 365}";
},
{
name = top;
position = "{230, 730}";
}
);
layerId = "FC9CFCDA-9E80-4E73-BA51-8504D15957FA";
paths = (
{
closed = 1;
nodes = (
"391 -10 OFFCURVE",
"476 90 OFFCURVE",
"476 335 CURVE SMOOTH",
"476 395 LINE SMOOTH",
"476 640 OFFCURVE",
"391 740 OFFCURVE",
"184 740 CURVE SMOOTH",
"143 740 OFFCURVE",
"98 736 OFFCURVE",
"46 728 CURVE",
"46 2 LINE",
"98 -6 OFFCURVE",
"143 -10 OFFCURVE",
"184 -10 CURVE SMOOTH"
);
},
{
closed = 1;
nodes = (
"186 646 LINE",
"163 600 LINE",
"175 610 OFFCURVE",
"190 614 OFFCURVE",
"210 614 CURVE SMOOTH",
"295 614 OFFCURVE",
"334 542 OFFCURVE",
"334 385 CURVE SMOOTH",
"334 345 LINE SMOOTH",
"334 188 OFFCURVE",
"295 116 OFFCURVE",
"210 116 CURVE SMOOTH",
"190 116 OFFCURVE",
"175 120 OFFCURVE",
"163 130 CURVE",
"186 84 LINE"
);
}
);
vertWidth = 1000;
width = 500;
}
);
leftKerningGroup = H;
rightKerningGroup = O;
unicode = 0044;
},
{
color = 11;
glyphname = DZcaron;
lastChange = "2021-04-13 03:01:43 +0000";
layers = (
{
layerId = "D65C9A1E-0FCA-4B2D-8EDF-9F36CA9182A1";
paths = (
{
closed = 1;
nodes = (
"222 -10 OFFCURVE",
"268 91 OFFCURVE",
"268 335 CURVE SMOOTH",
"268 395 LINE SMOOTH",
"268 639 OFFCURVE",
"222 740 OFFCURVE",
"112 740 CURVE SMOOTH",
"90 740 OFFCURVE",
"66 736 OFFCURVE",
"38 728 CURVE",
"38 2 LINE",
"66 -6 OFFCURVE",
"90 -10 OFFCURVE",
"112 -10 CURVE SMOOTH"
);
},
{
closed = 1;
nodes = (
"58 722 LINE",
"51 711 LINE",
"75 718 OFFCURVE",
"94 720 OFFCURVE",
"112 720 CURVE SMOOTH",
"207 720 OFFCURVE",
"248 629 OFFCURVE",
"248 395 CURVE SMOOTH",
"248 335 LINE SMOOTH",
"248 101 OFFCURVE",
"207 10 OFFCURVE",
"112 10 CURVE SMOOTH",
"94 10 OFFCURVE",
"75 12 OFFCURVE",
"51 19 CURVE",
"58 8 LINE"
);
},
{
closed = 1;
nodes = (
"488 0 LINE",
"488 20 LINE",
"280 20 LINE",
"280 24 LINE",
"488 710 LINE",
"488 730 LINE",
"258 730 LINE",
"258 710 LINE",
"466 710 LINE",
"466 706 LINE",
"258 20 LINE",
"258 0 LINE"
);
},
{
closed = 1;
nodes = (
"386 780 LINE",
"500 1000 LINE",
"477 1000 LINE",
"376 803 LINE",
"372 803 LINE",
"271 1000 LINE",
"248 1000 LINE",
"362 780 LINE"
);
}
);
width = 500;
},
{
layerId = "E27A6A66-A1F8-4E1B-8224-7C0FE77551F2";
paths = (
{
closed = 1;
nodes = (
"223 -10 OFFCURVE",
"270 90 OFFCURVE",
"270 335 CURVE SMOOTH",
"270 395 LINE SMOOTH",
"270 640 OFFCURVE",
"223 740 OFFCURVE",
"107 740 CURVE SMOOTH",
"84 740 OFFCURVE",
"59 736 OFFCURVE",
"30 728 CURVE",
"30 2 LINE",
"59 -6 OFFCURVE",
"84 -10 OFFCURVE",
"107 -10 CURVE SMOOTH"
);
},
{
closed = 1;
nodes = (
"108 683 LINE",
"82 656 LINE",
"93 664 OFFCURVE",
"102 668 OFFCURVE",
"116 668 CURVE SMOOTH",
"170 668 OFFCURVE",
"192 587 OFFCURVE",
"192 390 CURVE SMOOTH",
"192 340 LINE SMOOTH",
"192 143 OFFCURVE",
"170 62 OFFCURVE",
"116 62 CURVE SMOOTH",
"102 62 OFFCURVE",
"93 66 OFFCURVE",
"82 74 CURVE",
"108 47 LINE"
);
},
{
closed = 1;
nodes = (
"490 0 LINE",
"490 70 LINE",
"346 70 LINE",
"346 74 LINE",
"490 660 LINE",
"490 730 LINE",
"265 730 LINE",
"265 660 LINE",
"409 660 LINE",
"409 656 LINE",
"265 70 LINE",
"265 0 LINE"
);
},
{
closed = 1;
nodes = (
"405 780 LINE",
"500 1000 LINE",
"416 1000 LINE",
"362 846 LINE",
"358 846 LINE",
"304 1000 LINE",
"220 1000 LINE",
"315 780 LINE"
);
}
);
vertWidth = 1000;
width = 500;
},
{
layerId = "FC9CFCDA-9E80-4E73-BA51-8504D15957FA";
paths = (
{
closed = 1;
nodes = (
"223 -10 OFFCURVE",
"272 90 OFFCURVE",
"272 335 CURVE SMOOTH",
"272 395 LINE SMOOTH",
"272 640 OFFCURVE",
"223 740 OFFCURVE",
"103 740 CURVE SMOOTH",
"79 740 OFFCURVE",
"52 736 OFFCURVE",
"22 728 CURVE",
"22 2 LINE",
"52 -6 OFFCURVE",
"79 -10 OFFCURVE",
"103 -10 CURVE SMOOTH"
);
},
{
closed = 1;
nodes = (
"122 646 LINE",
"115 600 LINE",
"118 610 OFFCURVE",
"123 614 OFFCURVE",
"130 614 CURVE SMOOTH",
"159 614 OFFCURVE",
"172 545 OFFCURVE",
"172 385 CURVE SMOOTH",
"172 345 LINE SMOOTH",
"172 185 OFFCURVE",
"159 116 OFFCURVE",
"130 116 CURVE SMOOTH",
"123 116 OFFCURVE",
"118 120 OFFCURVE",
"115 130 CURVE",
"122 84 LINE"
);
},
{
closed = 1;
nodes = (
"492 0 LINE",
"492 120 LINE",
"382 120 LINE",
"382 124 LINE",
"492 610 LINE",
"492 730 LINE",
"272 730 LINE",
"272 610 LINE",
"382 610 LINE",
"382 606 LINE",
"272 120 LINE",
"272 0 LINE"
);
},
{
closed = 1;
nodes = (
"420 780 LINE",
"500 1000 LINE",
"386 1000 LINE",
"348 860 LINE",
"344 860 LINE",
"306 1000 LINE",
"192 1000 LINE",
"272 780 LINE"
);
}
);
vertWidth = 1000;
width = 500;
}
);
leftKerningGroup = H;
rightKerningGroup = Z;
unicode = 01C4;
},
{
color = 11;
glyphname = Eth;
lastChange = "2021-04-13 02:47:10 +0000";
layers = (
{
components = (
{
name = D;
transform = "{1, 0, 0, 1, 4, 0}";
}
);
layerId = "D65C9A1E-0FCA-4B2D-8EDF-9F36CA9182A1";
paths = (
{
closed = 1;
nodes = (
"304 376 LINE",
"304 396 LINE",
"4 396 LINE",
"4 376 LINE"
);
}
);
width = 500;
},
{
components = (
{
alignment = -1;
name = D;
transform = "{1, 0, 0, 1, 4, 0}";
}
);
layerId = "E27A6A66-A1F8-4E1B-8224-7C0FE77551F2";
paths = (
{
closed = 1;
nodes = (
"292 351 LINE",
"292 421 LINE",
"2 421 LINE",
"2 351 LINE"
);
}
);
vertWidth = 1000;
width = 500;
},
{
components = (
{
name = D;
transform = "{1, 0, 0, 1, 4, 0}";
}
);
layerId = "FC9CFCDA-9E80-4E73-BA51-8504D15957FA";
paths = (
{
closed = 1;
nodes = (
"280 328 LINE",
"280 444 LINE",
"0 444 LINE",
"0 328 LINE"
);
}
);
vertWidth = 1000;
width = 500;
}
);
leftKerningGroup = f;
rightKerningGroup = O;
unicode = 00D0;
},
{
color = 11;
glyphname = Dzcaron;
lastChange = "2021-04-13 03:07:39 +0000";
layers = (
{
layerId = "D65C9A1E-0FCA-4B2D-8EDF-9F36CA9182A1";
paths = (
{
closed = 1;
nodes = (
"222 -10 OFFCURVE",
"268 91 OFFCURVE",
"268 335 CURVE SMOOTH",
"268 395 LINE SMOOTH",
"268 639 OFFCURVE",
"222 740 OFFCURVE",
"112 740 CURVE SMOOTH",
"90 740 OFFCURVE",
"66 736 OFFCURVE",
"38 728 CURVE",
"38 2 LINE",
"66 -6 OFFCURVE",
"90 -10 OFFCURVE",
"112 -10 CURVE SMOOTH"
);
},
{
closed = 1;
nodes = (
"58 722 LINE",
"51 711 LINE",
"75 718 OFFCURVE",
"94 720 OFFCURVE",
"112 720 CURVE SMOOTH",
"207 720 OFFCURVE",
"248 629 OFFCURVE",
"248 395 CURVE SMOOTH",
"248 335 LINE SMOOTH",
"248 101 OFFCURVE",
"207 10 OFFCURVE",
"112 10 CURVE SMOOTH",
"94 10 OFFCURVE",
"75 12 OFFCURVE",
"51 19 CURVE",
"58 8 LINE"
);
},
{
closed = 1;
nodes = (
"488 0 LINE",
"488 20 LINE",
"311 20 LINE",
"311 24 LINE",
"488 500 LINE",
"488 520 LINE",
"288 520 LINE",
"288 500 LINE",
"465 500 LINE",
"465 496 LINE",
"288 20 LINE",
"288 0 LINE"
);
},
{
closed = 1;
nodes = (
"386 570 LINE",
"500 790 LINE",
"477 790 LINE",
"376 593 LINE",
"372 593 LINE",
"271 790 LINE",
"248 790 LINE",
"362 570 LINE"
);
}
);
width = 500;
},
{
layerId = "E27A6A66-A1F8-4E1B-8224-7C0FE77551F2";
paths = (
{
closed = 1;
nodes = (
"223 -10 OFFCURVE",
"270 90 OFFCURVE",
"270 335 CURVE SMOOTH",
"270 395 LINE SMOOTH",
"270 640 OFFCURVE",
"223 740 OFFCURVE",
"107 740 CURVE SMOOTH",
"84 740 OFFCURVE",
"59 736 OFFCURVE",
"30 728 CURVE",
"30 2 LINE",
"59 -6 OFFCURVE",
"84 -10 OFFCURVE",
"107 -10 CURVE SMOOTH"
);
},
{
closed = 1;
nodes = (
"108 683 LINE",
"82 656 LINE",
"93 664 OFFCURVE",
"102 668 OFFCURVE",
"116 668 CURVE SMOOTH",
"170 668 OFFCURVE",
"192 587 OFFCURVE",
"192 390 CURVE SMOOTH",
"192 340 LINE SMOOTH",
"192 143 OFFCURVE",
"170 62 OFFCURVE",
"116 62 CURVE SMOOTH",
"102 62 OFFCURVE",
"93 66 OFFCURVE",
"82 74 CURVE",
"108 47 LINE"
);
},
{
closed = 1;
nodes = (
"490 0 LINE",
"490 70 LINE",
"372 70 LINE",
"372 74 LINE",
"490 450 LINE",
"490 520 LINE",
"290 520 LINE",
"290 450 LINE",
"408 450 LINE",
"408 446 LINE",
"290 70 LINE",
"290 0 LINE"
);
},
{
closed = 1;
nodes = (
"412 570 LINE",
"500 790 LINE",
"416 790 LINE",
"369 636 LINE",
"365 636 LINE",
"318 790 LINE",
"234 790 LINE",
"322 570 LINE"
);
}
);
vertWidth = 1000;
width = 500;
},
{
layerId = "FC9CFCDA-9E80-4E73-BA51-8504D15957FA";
paths = (
{
closed = 1;
nodes = (
"223 -10 OFFCURVE",
"272 90 OFFCURVE",
"272 335 CURVE SMOOTH",
"272 395 LINE SMOOTH",
"272 640 OFFCURVE",
"223 740 OFFCURVE",
"103 740 CURVE SMOOTH",
"79 740 OFFCURVE",
"52 736 OFFCURVE",
"22 728 CURVE",
"22 2 LINE",
"52 -6 OFFCURVE",
"79 -10 OFFCURVE",
"103 -10 CURVE SMOOTH"
);
},
{
closed = 1;
nodes = (
"122 646 LINE",
"115 600 LINE",
"118 610 OFFCURVE",
"123 614 OFFCURVE",
"130 614 CURVE SMOOTH",
"159 614 OFFCURVE",
"172 545 OFFCURVE",
"172 385 CURVE SMOOTH",
"172 345 LINE SMOOTH",
"172 185 OFFCURVE",
"159 116 OFFCURVE",
"130 116 CURVE SMOOTH",
"123 116 OFFCURVE",
"118 120 OFFCURVE",
"115 130 CURVE",
"122 84 LINE"
);
},
{
closed = 1;
nodes = (
"492 0 LINE",
"492 118 LINE",
"402 118 LINE",
"402 122 LINE",
"492 402 LINE",
"492 520 LINE",
"292 520 LINE",
"292 402 LINE",
"382 402 LINE",
"382 398 LINE",
"292 118 LINE",
"292 0 LINE"
);
},
{
closed = 1;
nodes = (
"427 570 LINE",
"500 790 LINE",
"392 790 LINE",
"362 652 LINE",
"358 652 LINE",
"328 790 LINE",
"220 790 LINE",
"293 570 LINE"
);
}
);
vertWidth = 1000;
width = 500;
}
);
leftKerningGroup = H;
rightKerningGroup = z;
unicode = 01C5;
},
{
color = 10;
glyphname = E;
lastChange = "2021-04-13 03:14:15 +0000";
layers = (
{
anchors = (
{
name = bottom;
position = "{250, 0}";
},
{
name = ogonek;
position = "{394, 0}";
},
{
name = top;
position = "{250, 730}";
},
{
name = topleft;
position = "{20, 730}";
}
);
layerId = "D65C9A1E-0FCA-4B2D-8EDF-9F36CA9182A1";
paths = (
{
closed = 1;
nodes = (
"424 0 LINE",
"424 20 LINE",
"114 20 LINE",
"114 376 LINE",
"414 376 LINE",
"414 396 LINE",
"114 396 LINE",
"114 710 LINE",
"424 710 LINE",
"424 730 LINE",
"94 730 LINE",
"94 0 LINE"
);
}
);
width = 500;
},
{
anchors = (
{
name = bottom;
position = "{250, 0}";
},
{
name = ogonek;
position = "{387, 0}";
},
{
name = top;
position = "{250, 730}";
},
{
name = topleft;
position = "{20, 730}";
}
);
layerId = "E27A6A66-A1F8-4E1B-8224-7C0FE77551F2";
paths = (
{
closed = 1;
nodes = (
"431 0 LINE",
"431 70 LINE",
"162 70 LINE",
"162 351 LINE",
"421 351 LINE",
"421 421 LINE",
"162 421 LINE",
"162 660 LINE",
"431 660 LINE",
"431 730 LINE",
"81 730 LINE",
"81 0 LINE"
);
}
);
vertWidth = 1000;
width = 500;
},
{
anchors = (
{
name = bottom;
position = "{250, 0}";
},
{
name = ogonek;
position = "{375, 0}";
},
{
name = top;
position = "{250, 730}";
},
{
name = topleft;
position = "{20, 730}";
}
);
layerId = "FC9CFCDA-9E80-4E73-BA51-8504D15957FA";
paths = (
{
closed = 1;
nodes = (
"438 0 LINE",
"438 118 LINE",
"210 118 LINE",
"210 328 LINE",
"428 328 LINE",
"428 444 LINE",
"210 444 LINE",
"210 612 LINE",
"438 612 LINE",
"438 730 LINE",
"68 730 LINE",
"68 0 LINE"
);
}
);
vertWidth = 1000;
width = 500;
}
);
leftKerningGroup = H;
rightKerningGroup = E;
unicode = 0045;
},
{
color = 10;
glyphname = F;
lastChange = "2021-04-04 13:42:24 +0000";
layers = (
{
layerId = "D65C9A1E-0FCA-4B2D-8EDF-9F36CA9182A1";
paths = (
{
closed = 1;
nodes = (
"124 0 LINE",
"124 366 LINE",
"434 366 LINE",
"434 386 LINE",
"124 386 LINE",
"124 710 LINE",
"444 710 LINE",
"444 730 LINE",
"104 730 LINE",
"104 0 LINE"
);
}
);
width = 500;
},
{
layerId = "E27A6A66-A1F8-4E1B-8224-7C0FE77551F2";
paths = (
{
closed = 1;
nodes = (
"169 0 LINE",
"169 341 LINE",
"437 341 LINE",
"437 411 LINE",
"169 411 LINE",
"169 660 LINE",
"447 660 LINE",
"447 730 LINE",
"87 730 LINE",
"87 0 LINE"
);
}
);
vertWidth = 1000;
width = 500;
},
{
layerId = "FC9CFCDA-9E80-4E73-BA51-8504D15957FA";
paths = (
{
closed = 1;
nodes = (
"214 0 LINE",
"214 316 LINE",
"440 316 LINE",
"440 436 LINE",
"214 436 LINE",
"214 610 LINE",
"450 610 LINE",
"450 730 LINE",
"70 730 LINE",
"70 0 LINE"
);
}
);
vertWidth = 1000;
width = 500;
}
);
leftKerningGroup = H;
rightKerningGroup = F;
unicode = 0046;
},
{
color = 10;
glyphname = G;
lastChange = "2021-04-13 03:23:49 +0000";
layers = (
{
anchors = (
{
name = bottom;
position = "{270, 0}";
},
{
name = top;
position = "{270, 730}";
}
);
layerId = "E27A6A66-A1F8-4E1B-8224-7C0FE77551F2";
paths = (
{
closed = 1;
nodes = (
"346 -10 OFFCURVE",
"404 -3 OFFCURVE",
"447 10 CURVE",
"447 420 LINE",
"217 420 LINE",
"217 352 LINE",
"367 352 LINE",
"367 44 LINE",
"398 82 LINE",
"364 68 OFFCURVE",
"328 62 OFFCURVE",
"297 62 CURVE SMOOTH",
"178 62 OFFCURVE",
"119 154 OFFCURVE",
"119 340 CURVE SMOOTH",
"119 390 LINE SMOOTH",
"119 584 OFFCURVE",
"178 668 OFFCURVE",
"314 668 CURVE SMOOTH",
"350 668 OFFCURVE",
"390 662 OFFCURVE",
"428 653 CURVE",
"428 727 LINE",
"391 735 OFFCURVE",
"348 740 OFFCURVE",
"309 740 CURVE SMOOTH",
"126 740 OFFCURVE",
"37 627 OFFCURVE",
"37 395 CURVE SMOOTH",
"37 335 LINE SMOOTH",
"37 103 OFFCURVE",
"124 -10 OFFCURVE",
"302 -10 CURVE SMOOTH"
);
}
);
vertWidth = 1000;
width = 500;
},
{
anchors = (
{
name = bottom;
position = "{270, 0}";
},
{
name = top;
position = "{270, 730}";
}
);
layerId = "FC9CFCDA-9E80-4E73-BA51-8504D15957FA";
paths = (
{
closed = 1;
nodes = (
"351 -10 OFFCURVE",
"415 -2 OFFCURVE",
"460 10 CURVE",
"460 444 LINE",
"220 444 LINE",
"220 328 LINE",
"320 328 LINE",
"320 69 LINE",
"369 146 LINE",
"341 124 OFFCURVE",
"319 116 OFFCURVE",
"292 116 CURVE SMOOTH",
"208 116 OFFCURVE",
"164 195 OFFCURVE",
"164 345 CURVE SMOOTH",
"164 385 LINE SMOOTH",
"164 550 OFFCURVE",
"208 614 OFFCURVE",
"322 614 CURVE SMOOTH",
"360 614 OFFCURVE",
"398 607 OFFCURVE",
"440 596 CURVE",
"440 726 LINE",
"400 734 OFFCURVE",
"356 740 OFFCURVE",
"311 740 CURVE SMOOTH",
"115 740 OFFCURVE",
"20 627 OFFCURVE",
"20 395 CURVE SMOOTH",
"20 335 LINE SMOOTH",
"20 103 OFFCURVE",
"112 -10 OFFCURVE",
"301 -10 CURVE SMOOTH"
);
}
);
vertWidth = 1000;
width = 500;
},
{
anchors = (
{
name = bottom;
position = "{270, 0}";
},
{
name = top;
position = "{270, 730}";
}
);
layerId = "D65C9A1E-0FCA-4B2D-8EDF-9F36CA9182A1";
paths = (
{
closed = 1;
nodes = (
"344 -10 OFFCURVE",
"392 -3 OFFCURVE",
"433 10 CURVE",
"433 396 LINE",
"213 396 LINE",
"213 376 LINE",
"413 376 LINE",
"413 19 LINE",
"427 29 LINE",
"389 17 OFFCURVE",
"343 10 OFFCURVE",
"302 10 CURVE SMOOTH",
"147 10 OFFCURVE",
"73 114 OFFCURVE",
"73 335 CURVE SMOOTH",
"73 395 LINE SMOOTH",
"73 616 OFFCURVE",
"148 720 OFFCURVE",
"306 720 CURVE SMOOTH",
"341 720 OFFCURVE",
"381 715 OFFCURVE",
"416 707 CURVE",
"416 727 LINE",
"381 735 OFFCURVE",
"342 740 OFFCURVE",
"306 740 CURVE SMOOTH",
"136 740 OFFCURVE",
"53 627 OFFCURVE",
"53 395 CURVE SMOOTH",
"53 335 LINE SMOOTH",
"53 103 OFFCURVE",
"135 -10 OFFCURVE",
"302 -10 CURVE SMOOTH"
);
}
);
width = 500;
}
);
leftKerningGroup = O;
rightKerningGroup = G;
unicode = 0047;
},
{
color = 10;
glyphname = H;
lastChange = "2021-04-15 03:40:13 +0000";
layers = (
{
anchors = (
{
name = bottom;
position = "{250, 0}";
},
{
name = center;
position = "{250, 365}";
},
{
name = top;
position = "{250, 730}";
},
{
name = topleft;
position = "{20, 730}";
}
);
layerId = "D65C9A1E-0FCA-4B2D-8EDF-9F36CA9182A1";
paths = (
{
closed = 1;
nodes = (
"90 0 LINE",
"90 376 LINE",
"410 376 LINE",
"410 0 LINE",
"430 0 LINE",
"430 730 LINE",
"410 730 LINE",
"410 396 LINE",
"90 396 LINE",
"90 730 LINE",
"70 730 LINE",
"70 0 LINE"
);
}
);
width = 500;
},
{
anchors = (
{
name = bottom;
position = "{250, 0}";
},
{
name = center;
position = "{250, 365}";
},
{
name = top;
position = "{250, 730}";
},
{
name = topleft;
position = "{20, 730}";
}
);
layerId = "E27A6A66-A1F8-4E1B-8224-7C0FE77551F2";
paths = (
{
closed = 1;
nodes = (
"135 0 LINE",
"135 350 LINE",
"365 350 LINE",
"365 0 LINE",
"445 0 LINE",
"445 730 LINE",
"365 730 LINE",
"365 422 LINE",
"135 422 LINE",
"135 730 LINE",
"55 730 LINE",
"55 0 LINE"
);
}
);
vertWidth = 1000;
width = 500;
},
{
anchors = (
{
name = bottom;
position = "{250, 0}";
},
{
name = center;
position = "{250, 365}";
},
{
name = top;
position = "{250, 730}";
},
{
name = topleft;
position = "{20, 730}";
}
);
layerId = "FC9CFCDA-9E80-4E73-BA51-8504D15957FA";
paths = (
{
closed = 1;
nodes = (
"180 0 LINE",
"180 324 LINE",
"320 324 LINE",
"320 0 LINE",
"460 0 LINE",
"460 730 LINE",
"320 730 LINE",
"320 448 LINE",
"180 448 LINE",
"180 730 LINE",
"40 730 LINE",
"40 0 LINE"
);
}
);
vertWidth = 1000;
width = 500;
}
);
leftKerningGroup = H;
rightKerningGroup = H;
rightMetricsKey = "=|";
unicode = 0048;
},
{
color = 11;
glyphname = Hbar;
lastChange = "2021-04-13 03:29:51 +0000";
layers = (
{
components = (
{
name = H;
}
);
layerId = "D65C9A1E-0FCA-4B2D-8EDF-9F36CA9182A1";
paths = (
{
closed = 1;
nodes = (
"495 586 LINE",
"495 606 LINE",
"5 606 LINE",
"5 586 LINE"
);
}
);
width = 500;
},
{
components = (
{
alignment = -1;
name = H;
}
);
layerId = "E27A6A66-A1F8-4E1B-8224-7C0FE77551F2";
paths = (
{
closed = 1;
nodes = (
"495 561 LINE",
"495 631 LINE",
"5 631 LINE",
"5 561 LINE"
);
}
);
vertWidth = 1000;
width = 500;
},
{
components = (
{
name = H;
}
);
layerId = "FC9CFCDA-9E80-4E73-BA51-8504D15957FA";
paths = (
{
closed = 1;
nodes = (
"495 538 LINE",
"495 654 LINE",
"5 654 LINE",
"5 538 LINE"
);
}
);
vertWidth = 1000;
width = 500;
}
);
leftKerningGroup = W;
rightKerningGroup = W;
unicode = 0126;
},
{
color = 10;
glyphname = I;
lastChange = "2021-04-13 03:32:08 +0000";
layers = (
{
anchors = (
{
name = bottom;
position = "{250, 0}";
},
{
name = ogonek;
position = "{390, 0}";
},
{
name = top;
position = "{250, 730}";
},
{
name = topleft;
position = "{20, 730}";
}
);
layerId = "D65C9A1E-0FCA-4B2D-8EDF-9F36CA9182A1";
paths = (
{
closed = 1;
nodes = (
"420 0 LINE",
"420 20 LINE",
"260 20 LINE",
"260 710 LINE",
"420 710 LINE",
"420 730 LINE",
"80 730 LINE",
"80 710 LINE",
"240 710 LINE",
"240 20 LINE",
"80 20 LINE",
"80 0 LINE"
);
}
);
width = 500;
},
{
anchors = (
{
name = bottom;
position = "{250, 0}";
},
{
name = ogonek;
position = "{381, 0}";
},
{
name = top;
position = "{250, 730}";
},
{
name = topleft;
position = "{20, 730}";
}
);
layerId = "E27A6A66-A1F8-4E1B-8224-7C0FE77551F2";
paths = (
{
closed = 1;
nodes = (
"425 0 LINE",
"425 70 LINE",
"291 70 LINE",
"291 660 LINE",
"425 660 LINE",
"425 730 LINE",
"75 730 LINE",
"75 660 LINE",
"209 660 LINE",
"209 70 LINE",
"75 70 LINE",
"75 0 LINE"
);
}
);
vertWidth = 1000;
width = 500;
},
{
anchors = (
{
name = bottom;
position = "{250, 0}";
},
{
name = ogonek;
position = "{367, 0}";
},
{
name = top;
position = "{250, 730}";
},
{
name = topleft;
position = "{20, 730}";
}
);
layerId = "FC9CFCDA-9E80-4E73-BA51-8504D15957FA";
paths = (
{
closed = 1;
nodes = (
"430 0 LINE",
"430 120 LINE",
"322 120 LINE",
"322 610 LINE",
"430 610 LINE",
"430 730 LINE",
"70 730 LINE",
"70 610 LINE",
"178 610 LINE",
"178 120 LINE",
"70 120 LINE",
"70 0 LINE"
);
}
);
vertWidth = 1000;
width = 500;
}
);
leftKerningGroup = I;
rightKerningGroup = I;
rightMetricsKey = "=|";
unicode = 0049;
},
{
color = 10;
glyphname = J;
lastChange = "2021-04-13 03:35:12 +0000";
layers = (
{
anchors = (
{
name = bottom;
position = "{230, 0}";
},
{
name = top;
position = "{230, 730}";
}
);
layerId = "D65C9A1E-0FCA-4B2D-8EDF-9F36CA9182A1";
paths = (
{
closed = 1;
nodes = (
"320 -10 OFFCURVE",
"378 52 OFFCURVE",
"378 195 CURVE SMOOTH",
"378 730 LINE",
"88 730 LINE",
"88 710 LINE",
"358 710 LINE",
"358 195 LINE SMOOTH",
"358 63 OFFCURVE",
"308 10 OFFCURVE",
"186 10 CURVE SMOOTH",
"133 10 OFFCURVE",
"88 20 OFFCURVE",
"48 41 CURVE",
"48 19 LINE",
"87 0 OFFCURVE",
"132 -10 OFFCURVE",
"186 -10 CURVE SMOOTH"
);
}
);
width = 500;
},
{
anchors = (
{
name = bottom;
position = "{235, 0}";
},
{
name = top;
position = "{235, 730}";
}
);
layerId = "E27A6A66-A1F8-4E1B-8224-7C0FE77551F2";
paths = (
{
closed = 1;
nodes = (
"334 -10 OFFCURVE",
"395 52 OFFCURVE",
"395 195 CURVE SMOOTH",
"395 730 LINE",
"85 730 LINE",
"85 660 LINE",
"313 660 LINE",
"313 202 LINE SMOOTH",
"313 103 OFFCURVE",
"275 62 OFFCURVE",
"182 62 CURVE SMOOTH",
"132 62 OFFCURVE",
"86 74 OFFCURVE",
"45 94 CURVE",
"45 19 LINE",
"87 0 OFFCURVE",
"135 -10 OFFCURVE",
"192 -10 CURVE SMOOTH"
);
}
);
vertWidth = 1000;
width = 500;
},
{
anchors = (
{
name = bottom;
position = "{240, 0}";
},
{
name = top;
position = "{240, 730}";
}
);
layerId = "FC9CFCDA-9E80-4E73-BA51-8504D15957FA";
paths = (
{
closed = 1;
nodes = (
"347 -10 OFFCURVE",
"412 52 OFFCURVE",
"412 195 CURVE SMOOTH",
"412 730 LINE",
"82 730 LINE",
"82 610 LINE",
"268 610 LINE",
"268 210 LINE SMOOTH",
"268 144 OFFCURVE",
"241 116 OFFCURVE",
"177 116 CURVE SMOOTH",
"134 116 OFFCURVE",
"83 129 OFFCURVE",
"42 149 CURVE",
"42 19 LINE",
"86 0 OFFCURVE",
"137 -10 OFFCURVE",
"197 -10 CURVE SMOOTH"
);
}
);
vertWidth = 1000;
width = 500;
}
);
leftKerningGroup = J;
rightKerningGroup = U;
unicode = 004A;
},
{
color = 10;
glyphname = K;
lastChange = "2021-04-13 03:35:44 +0000";
layers = (
{
anchors = (
{
name = bottom;
position = "{230, 0}";
},
{
name = top;
position = "{230, 730}";
}
);
layerId = "D65C9A1E-0FCA-4B2D-8EDF-9F36CA9182A1";
paths = (
{
closed = 1;
nodes = (
"112 0 LINE",
"112 370 LINE",
"116 370 LINE",
"436 0 LINE",
"462 0 LINE",
"127 386 LINE",
"458 730 LINE",
"432 730 LINE",
"116 402 LINE",
"112 402 LINE",
"112 730 LINE",
"92 730 LINE",
"92 0 LINE"
);
}
);
width = 500;
},
{
anchors = (
{
name = bottom;
position = "{235, 0}";
},
{
name = top;
position = "{235, 730}";
}
);
layerId = "E27A6A66-A1F8-4E1B-8224-7C0FE77551F2";
paths = (
{
closed = 1;
nodes = (
"155 0 LINE",
"155 358 LINE",
"159 358 LINE",
"387 0 LINE",
"475 0 LINE",
"230 386 LINE",
"471 730 LINE",
"384 730 LINE",
"159 414 LINE",
"155 414 LINE",
"155 730 LINE",
"75 730 LINE",
"75 0 LINE"
);
}
);
vertWidth = 1000;
width = 500;
},
{
anchors = (
{
name = bottom;
position = "{240, 0}";
},
{
name = top;
position = "{240, 730}";
}
);
layerId = "FC9CFCDA-9E80-4E73-BA51-8504D15957FA";
paths = (
{
closed = 1;
nodes = (
"198 0 LINE",
"198 346 LINE",
"202 346 LINE",
"338 0 LINE",
"488 0 LINE",
"333 386 LINE",
"483 730 LINE",
"335 730 LINE",
"202 426 LINE",
"198 426 LINE",
"198 730 LINE",
"58 730 LINE",
"58 0 LINE"
);
}
);
vertWidth = 1000;
width = 500;
}
);
leftKerningGroup = H;
rightKerningGroup = K;
unicode = 004B;
},
{
color = 10;
glyphname = L;
lastChange = "2021-04-13 06:19:51 +0000";
layers = (
{
anchors = (
{
name = bottom;
position = "{250, 0}";
},
{
name = center;
position = "{250, 365}";
},
{
name = pdcenter;
position = "{330, 385}";
},
{
name = top;
position = "{250, 730}";
},
{
name = topright;
position = "{300, 460}";
}
);
layerId = "D65C9A1E-0FCA-4B2D-8EDF-9F36CA9182A1";
paths = (
{
closed = 1;
nodes = (
"445 0 LINE",
"445 20 LINE",
"115 20 LINE",
"115 730 LINE",
"95 730 LINE",
"95 0 LINE"
);
}
);
width = 500;
},
{
anchors = (
{
name = bottom;
position = "{250, 0}";
},
{
name = center;
position = "{250, 365}";
},
{
name = pdcenter;
position = "{350, 385}";
},
{
name = top;
position = "{250, 730}";
},
{
name = topright;
position = "{320, 460}";
}
);
layerId = "E27A6A66-A1F8-4E1B-8224-7C0FE77551F2";
paths = (
{
closed = 1;
nodes = (
"450 0 LINE",
"450 72 LINE",
"162 72 LINE",
"162 730 LINE",
"80 730 LINE",
"80 0 LINE"
);
}
);
vertWidth = 1000;
width = 500;
},
{
anchors = (
{
name = bottom;
position = "{250, 0}";
},
{
name = center;
position = "{250, 365}";
},
{
name = pdcenter;
position = "{370, 385}";
},
{
name = top;
position = "{250, 730}";
},
{
name = topright;
position = "{340, 460}";
}
);
layerId = "FC9CFCDA-9E80-4E73-BA51-8504D15957FA";
paths = (
{
closed = 1;
nodes = (
"455 0 LINE",
"455 124 LINE",
"209 124 LINE",
"209 730 LINE",
"65 730 LINE",
"65 0 LINE"
);
}
);
vertWidth = 1000;
width = 500;
}
);
leftKerningGroup = H;
rightKerningGroup = L;
unicode = 004C;
},
{
color = 11;
glyphname = LJ;
lastChange = "2021-04-13 05:46:39 +0000";
layers = (
{
layerId = "D65C9A1E-0FCA-4B2D-8EDF-9F36CA9182A1";
paths = (
{
closed = 1;
nodes = (
"335 0 LINE",
"335 20 LINE",
"75 20 LINE",
"75 730 LINE",
"55 730 LINE",
"55 0 LINE"
);
},
{
closed = 1;
nodes = (
"387 -220 OFFCURVE",
"445 -158 OFFCURVE",
"445 -15 CURVE SMOOTH",
"445 730 LINE",
"165 730 LINE",
"165 710 LINE",
"425 710 LINE",
"425 -15 LINE SMOOTH",
"425 -147 OFFCURVE",
"375 -200 OFFCURVE",
"253 -200 CURVE SMOOTH",
"200 -200 OFFCURVE",
"155 -190 OFFCURVE",
"115 -169 CURVE",
"115 -191 LINE",
"154 -210 OFFCURVE",
"199 -220 OFFCURVE",
"253 -220 CURVE SMOOTH"
);
}
);
width = 500;
},
{
layerId = "E27A6A66-A1F8-4E1B-8224-7C0FE77551F2";
paths = (
{
closed = 1;
nodes = (
"310 0 LINE",
"310 72 LINE",
"122 72 LINE",
"122 730 LINE",
"40 730 LINE",
"40 0 LINE"
);
},
{
closed = 1;
nodes = (
"399 -220 OFFCURVE",
"460 -158 OFFCURVE",
"460 -15 CURVE SMOOTH",
"460 730 LINE",
"190 730 LINE",
"190 660 LINE",
"378 660 LINE",
"378 -8 LINE SMOOTH",
"378 -107 OFFCURVE",
"340 -148 OFFCURVE",
"247 -148 CURVE SMOOTH",
"197 -148 OFFCURVE",
"151 -136 OFFCURVE",
"110 -116 CURVE",
"110 -191 LINE",
"152 -210 OFFCURVE",
"200 -220 OFFCURVE",
"257 -220 CURVE SMOOTH"
);
}
);
vertWidth = 1000;
width = 500;
},
{
layerId = "FC9CFCDA-9E80-4E73-BA51-8504D15957FA";
paths = (
{
closed = 1;
nodes = (
"285 0 LINE",
"285 124 LINE",
"169 124 LINE",
"169 730 LINE",
"25 730 LINE",
"25 0 LINE"
);
},
{
closed = 1;
nodes = (
"410 -220 OFFCURVE",
"475 -158 OFFCURVE",
"475 -15 CURVE SMOOTH",
"475 730 LINE",
"215 730 LINE",
"215 610 LINE",
"331 610 LINE",
"331 0 LINE SMOOTH",
"331 -66 OFFCURVE",
"304 -94 OFFCURVE",
"240 -94 CURVE SMOOTH",
"197 -94 OFFCURVE",
"146 -81 OFFCURVE",
"105 -61 CURVE",
"105 -191 LINE",
"149 -210 OFFCURVE",
"200 -220 OFFCURVE",
"260 -220 CURVE SMOOTH"
);
}
);
vertWidth = 1000;
width = 500;
}
);
leftKerningGroup = H;
rightKerningGroup = U;
unicode = 01C7;
},
{
color = 11;
glyphname = Lj;
lastChange = "2021-04-13 06:30:07 +0000";
layers = (
{
layerId = "D65C9A1E-0FCA-4B2D-8EDF-9F36CA9182A1";
paths = (
{
closed = 1;
nodes = (
"335 0 LINE",
"335 20 LINE",
"75 20 LINE",
"75 730 LINE",
"55 730 LINE",
"55 0 LINE"
);
},
{
closed = 1;
nodes = (
"370 -220 OFFCURVE",
"445 -131 OFFCURVE",
"445 41 CURVE SMOOTH",
"445 520 LINE",
"225 520 LINE",
"225 500 LINE",
"425 500 LINE",
"425 41 LINE SMOOTH",
"425 -119 OFFCURVE",
"358 -200 OFFCURVE",
"225 -200 CURVE",
"225 -220 LINE"
);
},
{
closed = 1;
nodes = (
"448 658 OFFCURVE",
"465 674 OFFCURVE",
"465 699 CURVE SMOOTH",
"465 724 OFFCURVE",
"448 740 OFFCURVE",
"423 740 CURVE SMOOTH",
"398 740 OFFCURVE",
"381 724 OFFCURVE",
"381 699 CURVE SMOOTH",
"381 674 OFFCURVE",
"398 658 OFFCURVE",
"423 658 CURVE SMOOTH"
);
}
);
width = 500;
},
{
layerId = "E27A6A66-A1F8-4E1B-8224-7C0FE77551F2";
paths = (
{
closed = 1;
nodes = (
"310 0 LINE",
"310 72 LINE",
"122 72 LINE",
"122 730 LINE",
"40 730 LINE",
"40 0 LINE"
);
},
{
closed = 1;
nodes = (
"375 -220 OFFCURVE",
"460 -134 OFFCURVE",
"460 43 CURVE SMOOTH",
"460 520 LINE",
"220 520 LINE",
"220 450 LINE",
"380 450 LINE",
"380 37 LINE SMOOTH",
"380 -92 OFFCURVE",
"324 -150 OFFCURVE",
"200 -150 CURVE",
"200 -220 LINE"
);
},
{
closed = 1;
nodes = (
"447 614 OFFCURVE",
"475 640 OFFCURVE",
"475 682 CURVE SMOOTH",
"475 724 OFFCURVE",
"447 750 OFFCURVE",
"404 750 CURVE SMOOTH",
"361 750 OFFCURVE",
"333 724 OFFCURVE",
"333 682 CURVE SMOOTH",
"333 640 OFFCURVE",
"361 614 OFFCURVE",
"404 614 CURVE SMOOTH"
);
}
);
vertWidth = 1000;
width = 500;
},
{
layerId = "FC9CFCDA-9E80-4E73-BA51-8504D15957FA";
paths = (
{
closed = 1;
nodes = (
"289 0 LINE",
"289 124 LINE",
"169 124 LINE",
"169 730 LINE",
"25 730 LINE",
"25 0 LINE"
);
},
{
closed = 1;
nodes = (
"380 -220 OFFCURVE",
"475 -136 OFFCURVE",
"475 45 CURVE SMOOTH",
"475 520 LINE",
"215 520 LINE",
"215 402 LINE",
"335 402 LINE",
"335 34 LINE SMOOTH",
"335 -60 OFFCURVE",
"289 -98 OFFCURVE",
"175 -98 CURVE",
"175 -220 LINE"
);
},
{
closed = 1;
nodes = (
"448 580 OFFCURVE",
"485 614 OFFCURVE",
"485 670 CURVE SMOOTH",
"485 726 OFFCURVE",
"448 760 OFFCURVE",
"390 760 CURVE SMOOTH",
"332 760 OFFCURVE",
"295 726 OFFCURVE",
"295 670 CURVE SMOOTH",
"295 614 OFFCURVE",
"332 580 OFFCURVE",
"390 580 CURVE SMOOTH"
);
}
);
vertWidth = 1000;
width = 500;
}
);
leftKerningGroup = H;
rightKerningGroup = g;
unicode = 01C8;
},
{
color = 11;
glyphname = Lslash;
lastChange = "2021-04-13 06:40:40 +0000";
layers = (
{
components = (
{
name = L;
transform = "{1, 0, 0, 1, 20, 0}";
}
);
layerId = "D65C9A1E-0FCA-4B2D-8EDF-9F36CA9182A1";
paths = (
{
closed = 1;
nodes = (
"350 449 LINE",
"350 470 LINE",
"20 321 LINE",
"20 300 LINE"
);
}
);
width = 500;
},
{
components = (
{
alignment = -1;
name = L;
transform = "{1, 0, 0, 1, 20, 0}";
}
);
layerId = "E27A6A66-A1F8-4E1B-8224-7C0FE77551F2";
paths = (
{
closed = 1;
nodes = (
"360 421 LINE",
"360 498 LINE",
"20 349 LINE",
"20 272 LINE"
);
}
);
width = 500;
},
{
components = (
{
name = L;
transform = "{1, 0, 0, 1, 20, 0}";
}
);
layerId = "FC9CFCDA-9E80-4E73-BA51-8504D15957FA";
paths = (
{
closed = 1;
nodes = (
"370 394 LINE",
"370 525 LINE",
"20 376 LINE",
"20 245 LINE"
);
}
);
width = 500;
}
);
leftKerningGroup = t;
rightKerningGroup = L;
unicode = 0141;
},
{
color = 10;
glyphname = M;
lastChange = "2021-04-10 02:32:11 +0000";
layers = (
{
layerId = "D65C9A1E-0FCA-4B2D-8EDF-9F36CA9182A1";
paths = (
{
closed = 1;
nodes = (
"70 0 LINE",
"69 691 LINE",
"73 691 LINE",
"235 140 LINE",
"265 140 LINE",
"427 691 LINE",
"431 691 LINE",
"430 0 LINE",
"450 0 LINE",
"450 730 LINE",
"418 730 LINE",
"252 165 LINE",
"248 165 LINE",
"82 730 LINE",
"50 730 LINE",
"50 0 LINE"
);
}
);
width = 500;
},
{
layerId = "E27A6A66-A1F8-4E1B-8224-7C0FE77551F2";
paths = (
{
closed = 1;
nodes = (
"118 0 LINE",
"118 586 LINE",
"122 586 LINE",
"205 140 LINE",
"295 140 LINE",
"378 586 LINE",
"382 586 LINE",
"382 0 LINE",
"460 0 LINE",
"460 730 LINE",
"334 730 LINE",
"252 289 LINE",
"248 289 LINE",
"166 730 LINE",
"40 730 LINE",
"40 0 LINE"
);
}
);
vertWidth = 1000;
width = 500;
},
{
layerId = "FC9CFCDA-9E80-4E73-BA51-8504D15957FA";
paths = (
{
closed = 1;
nodes = (
"165 0 LINE",
"153 500 LINE",
"157 500 LINE",
"205 140 LINE",
"295 140 LINE",
"343 500 LINE",
"347 500 LINE",
"335 0 LINE",
"470 0 LINE",
"470 730 LINE",
"280 730 LINE",
"252 430 LINE",
"248 430 LINE",
"220 730 LINE",
"30 730 LINE",
"30 0 LINE"
);
}
);
vertWidth = 1000;
width = 500;
}
);
leftKerningGroup = H;
rightKerningGroup = H;
rightMetricsKey = "=|";
unicode = 004D;
},
{
color = 10;
glyphname = N;
lastChange = "2021-04-13 07:21:02 +0000";
layers = (
{
anchors = (
{
name = bottom;
position = "{250, 0}";
},
{
name = top;
position = "{250, 730}";
}
);
layerId = "D65C9A1E-0FCA-4B2D-8EDF-9F36CA9182A1";
paths = (
{
closed = 1;
nodes = (
"90 0 LINE",
"90 681 LINE",
"93 681 LINE",
"408 0 LINE",
"430 0 LINE",
"430 730 LINE",
"410 730 LINE",
"410 49 LINE",
"407 49 LINE",
"92 730 LINE",
"70 730 LINE",
"70 0 LINE"
);
}
);
width = 500;
},
{
anchors = (
{
name = bottom;
position = "{250, 0}";
},
{
name = top;
position = "{250, 730}";
}
);
layerId = "E27A6A66-A1F8-4E1B-8224-7C0FE77551F2";
paths = (
{
closed = 1;
nodes = (
"135 0 LINE",
"135 561 LINE",
"139 561 LINE",
"344 0 LINE",
"445 0 LINE",
"445 730 LINE",
"365 730 LINE",
"365 170 LINE",
"362 170 LINE",
"156 730 LINE",
"55 730 LINE",
"55 0 LINE"
);
}
);
vertWidth = 1000;
width = 500;
},
{
anchors = (
{
name = bottom;
position = "{250, 0}";
},
{
name = top;
position = "{250, 730}";
}
);
layerId = "FC9CFCDA-9E80-4E73-BA51-8504D15957FA";
paths = (
{
closed = 1;
nodes = (
"180 0 LINE",
"180 460 LINE",
"184 460 LINE",
"280 0 LINE",
"460 0 LINE",
"460 730 LINE",
"320 730 LINE",
"320 270 LINE",
"316 270 LINE",
"220 730 LINE",
"40 730 LINE",
"40 0 LINE"
);
}
);
vertWidth = 1000;
width = 500;
}
);
leftKerningGroup = H;
rightKerningGroup = H;
rightMetricsKey = "=|";
unicode = 004E;
},
{
color = 11;
glyphname = NJ;
lastChange = "2021-04-13 07:19:33 +0000";
layers = (
{
layerId = "D65C9A1E-0FCA-4B2D-8EDF-9F36CA9182A1";
paths = (
{
closed = 1;
nodes = (
"414 -220 OFFCURVE",
"460 -158 OFFCURVE",
"460 -15 CURVE SMOOTH",
"460 730 LINE",
"246 730 LINE",
"246 309 LINE",
"242 309 LINE",
"60 730 LINE",
"40 730 LINE",
"40 0 LINE",
"60 0 LINE",
"60 671 LINE",
"64 671 LINE",
"246 250 LINE",
"246 0 LINE",
"266 0 LINE",
"266 710 LINE",
"440 710 LINE",
"440 -15 LINE SMOOTH",
"440 -147 OFFCURVE",
"402 -200 OFFCURVE",
"308 -200 CURVE SMOOTH",
"267 -200 OFFCURVE",
"230 -190 OFFCURVE",
"198 -169 CURVE",
"198 -192 LINE",
"232 -211 OFFCURVE",
"268 -220 OFFCURVE",
"308 -220 CURVE SMOOTH"
);
}
);
width = 500;
},
{
layerId = "E27A6A66-A1F8-4E1B-8224-7C0FE77551F2";
paths = (
{
closed = 1;
nodes = (
"420 -220 OFFCURVE",
"470 -158 OFFCURVE",
"470 -15 CURVE SMOOTH",
"470 730 LINE",
"218 730 LINE",
"218 454 LINE",
"214 454 LINE",
"110 730 LINE",
"30 730 LINE",
"30 0 LINE",
"110 0 LINE",
"110 526 LINE",
"114 526 LINE",
"218 250 LINE",
"218 0 LINE",
"296 0 LINE",
"296 660 LINE",
"390 660 LINE",
"390 -7 LINE SMOOTH",
"390 -107 OFFCURVE",
"363 -148 OFFCURVE",
"297 -148 CURVE SMOOTH",
"261 -148 OFFCURVE",
"219 -136 OFFCURVE",
"186 -116 CURVE",
"186 -191 LINE",
"221 -210 OFFCURVE",
"259 -220 OFFCURVE",
"305 -220 CURVE SMOOTH"
);
}
);
vertWidth = 1000;
width = 500;
},
{
layerId = "FC9CFCDA-9E80-4E73-BA51-8504D15957FA";
paths = (
{
closed = 1;
nodes = (
"426 -220 OFFCURVE",
"480 -158 OFFCURVE",
"480 -15 CURVE SMOOTH",
"480 730 LINE",
"202 730 LINE",
"201 520 LINE",
"197 520 LINE",
"139 730 LINE",
"20 730 LINE",
"20 0 LINE",
"140 0 LINE",
"140 460 LINE",
"144 460 LINE",
"202 250 LINE",
"202 0 LINE",
"320 0 LINE",
"320 610 LINE",
"360 610 LINE",
"360 0 LINE SMOOTH",
"360 -66 OFFCURVE",
"338 -94 OFFCURVE",
"286 -94 CURVE SMOOTH",
"251 -94 OFFCURVE",
"209 -81 OFFCURVE",
"175 -61 CURVE",
"175 -191 LINE",
"211 -210 OFFCURVE",
"253 -220 OFFCURVE",
"303 -220 CURVE SMOOTH"
);
}
);
vertWidth = 1000;
width = 500;
}
);
leftKerningGroup = H;
rightKerningGroup = U;
unicode = 01CA;
},
{
color = 11;
glyphname = Eng;
lastChange = "2021-04-13 08:17:10 +0000";
layers = (
{
layerId = "D65C9A1E-0FCA-4B2D-8EDF-9F36CA9182A1";
paths = (
{
closed = 1;
nodes = (
"390 -211 OFFCURVE",
"430 -164 OFFCURVE",
"430 -61 CURVE SMOOTH",
"430 730 LINE",
"410 730 LINE",
"410 49 LINE",
"407 49 LINE",
"92 730 LINE",
"70 730 LINE",
"70 0 LINE",
"90 0 LINE",
"90 681 LINE",
"93 681 LINE",
"420 -26 LINE",
"410 20 LINE",
"410 -61 LINE SMOOTH",
"410 -153 OFFCURVE",
"378 -191 OFFCURVE",
"300 -191 CURVE SMOOTH",
"272 -191 OFFCURVE",
"242 -186 OFFCURVE",
"217 -177 CURVE",
"217 -198 LINE",
"242 -207 OFFCURVE",
"274 -211 OFFCURVE",
"300 -211 CURVE SMOOTH"
);
}
);
width = 500;
},
{
layerId = "E27A6A66-A1F8-4E1B-8224-7C0FE77551F2";
paths = (
{
closed = 1;
nodes = (
"398 -218 OFFCURVE",
"445 -166 OFFCURVE",
"445 -39 CURVE SMOOTH",
"445 730 LINE",
"365 730 LINE",
"365 214 LINE",
"361 214 LINE",
"156 730 LINE",
"55 730 LINE",
"55 0 LINE",
"135 0 LINE",
"135 570 LINE",
"139 570 LINE",
"393 -70 LINE",
"365 53 LINE",
"365 -39 LINE SMOOTH",
"365 -118 OFFCURVE",
"339 -149 OFFCURVE",
"271 -149 CURVE SMOOTH",
"244 -149 OFFCURVE",
"216 -144 OFFCURVE",
"191 -136 CURVE",
"191 -205 LINE",
"221 -213 OFFCURVE",
"251 -218 OFFCURVE",
"286 -218 CURVE SMOOTH"
);
}
);
vertWidth = 1000;
width = 500;
},
{
layerId = "FC9CFCDA-9E80-4E73-BA51-8504D15957FA";
paths = (
{
closed = 1;
nodes = (
"407 -224 OFFCURVE",
"460 -165 OFFCURVE",
"460 -17 CURVE SMOOTH",
"460 730 LINE",
"320 730 LINE",
"320 408 LINE",
"316 408 LINE",
"220 730 LINE",
"40 730 LINE",
"40 0 LINE",
"180 0 LINE",
"180 460 LINE",
"184 460 LINE",
"367 -153 LINE",
"320 86 LINE",
"320 -17 LINE SMOOTH",
"320 -83 OFFCURVE",
"299 -107 OFFCURVE",
"243 -107 CURVE SMOOTH",
"220 -107 OFFCURVE",
"191 -103 OFFCURVE",
"165 -96 CURVE",
"165 -212 LINE",
"201 -219 OFFCURVE",
"233 -224 OFFCURVE",
"272 -224 CURVE SMOOTH"
);
}
);
width = 500;
}
);
leftKerningGroup = H;
rightKerningGroup = H;
unicode = 014A;
},
{
color = 11;
glyphname = Nj;
lastChange = "2021-04-13 08:33:08 +0000";
layers = (
{
layerId = "D65C9A1E-0FCA-4B2D-8EDF-9F36CA9182A1";
paths = (
{
closed = 1;
nodes = (
"385 -220 OFFCURVE",
"460 -131 OFFCURVE",
"460 41 CURVE SMOOTH",
"460 520 LINE",
"266 520 LINE",
"266 730 LINE",
"246 730 LINE",
"246 309 LINE",
"242 309 LINE",
"60 730 LINE",
"40 730 LINE",
"40 0 LINE",
"60 0 LINE",
"60 671 LINE",
"64 671 LINE",
"246 250 LINE",
"246 0 LINE",
"266 0 LINE",
"266 500 LINE",
"440 500 LINE",
"440 41 LINE SMOOTH",
"440 -119 OFFCURVE",
"373 -200 OFFCURVE",
"240 -200 CURVE",
"240 -220 LINE"
);
},
{
closed = 1;
nodes = (
"463 658 OFFCURVE",
"480 674 OFFCURVE",
"480 699 CURVE SMOOTH",
"480 724 OFFCURVE",
"463 740 OFFCURVE",
"438 740 CURVE SMOOTH",
"413 740 OFFCURVE",
"396 724 OFFCURVE",
"396 699 CURVE SMOOTH",
"396 674 OFFCURVE",
"413 658 OFFCURVE",
"438 658 CURVE SMOOTH"
);
}
);
width = 500;
},
{
layerId = "E27A6A66-A1F8-4E1B-8224-7C0FE77551F2";
paths = (
{
closed = 1;
nodes = (
"392 -220 OFFCURVE",
"470 -134 OFFCURVE",
"470 43 CURVE SMOOTH",
"470 520 LINE",
"296 520 LINE",
"296 730 LINE",
"218 730 LINE",
"218 454 LINE",
"214 454 LINE",
"110 730 LINE",
"30 730 LINE",
"30 0 LINE",
"110 0 LINE",
"110 526 LINE",
"114 526 LINE",
"218 250 LINE",
"218 0 LINE",
"296 0 LINE",
"296 451 LINE",
"390 451 LINE",
"390 37 LINE SMOOTH",
"390 -91 OFFCURVE",
"340 -149 OFFCURVE",
"231 -149 CURVE",
"231 -220 LINE"
);
},
{
closed = 1;
nodes = (
"457 614 OFFCURVE",
"485 640 OFFCURVE",
"485 682 CURVE SMOOTH",
"485 724 OFFCURVE",
"457 750 OFFCURVE",
"414 750 CURVE SMOOTH",
"371 750 OFFCURVE",
"343 724 OFFCURVE",
"343 682 CURVE SMOOTH",
"343 640 OFFCURVE",
"371 614 OFFCURVE",
"414 614 CURVE SMOOTH"
);
}
);
vertWidth = 1000;
width = 500;
},
{
layerId = "FC9CFCDA-9E80-4E73-BA51-8504D15957FA";
paths = (
{
closed = 1;
nodes = (
"399 -220 OFFCURVE",
"480 -137 OFFCURVE",
"480 45 CURVE SMOOTH",
"480 520 LINE",
"320 520 LINE",
"320 730 LINE",
"202 730 LINE",
"201 520 LINE",
"197 520 LINE",
"139 730 LINE",
"20 730 LINE",
"20 0 LINE",
"140 0 LINE",
"140 460 LINE",
"144 460 LINE",
"202 250 LINE",
"202 0 LINE",
"320 0 LINE",
"320 402 LINE",
"360 402 LINE",
"360 34 LINE SMOOTH",
"360 -61 OFFCURVE",
"321 -98 OFFCURVE",
"223 -98 CURVE",
"223 -220 LINE"
);
},
{
closed = 1;
nodes = (
"462 580 OFFCURVE",
"490 614 OFFCURVE",
"490 670 CURVE SMOOTH",
"490 726 OFFCURVE",
"462 760 OFFCURVE",
"416 760 CURVE SMOOTH",
"370 760 OFFCURVE",
"342 726 OFFCURVE",
"342 670 CURVE SMOOTH",
"342 614 OFFCURVE",
"370 580 OFFCURVE",
"416 580 CURVE SMOOTH"
);
}
);
vertWidth = 1000;
width = 500;
}
);
leftKerningGroup = H;
rightKerningGroup = g;
unicode = 01CB;
},
{
color = 10;
glyphname = O;
lastChange = "2021-04-12 12:57:10 +0000";
layers = (
{
anchors = (
{
name = bottom;
position = "{250, 0}";
},
{
name = center;
position = "{250, 365}";
},
{
name = ogonek;
position = "{290, 0}";
},
{
name = top;
position = "{250, 730}";
},
{
name = topleft;
position = "{20, 730}";
},
{
name = topright;
position = "{297, 740}";
}
);
layerId = "D65C9A1E-0FCA-4B2D-8EDF-9F36CA9182A1";
paths = (
{
closed = 1;
nodes = (
"393 -10 OFFCURVE",
"445 82 OFFCURVE",
"445 335 CURVE SMOOTH",
"445 395 LINE SMOOTH",
"445 648 OFFCURVE",
"393 740 OFFCURVE",
"250 740 CURVE SMOOTH",
"107 740 OFFCURVE",
"55 648 OFFCURVE",
"55 395 CURVE SMOOTH",
"55 335 LINE SMOOTH",
"55 82 OFFCURVE",
"107 -10 OFFCURVE",
"250 -10 CURVE SMOOTH"
);
},
{
closed = 1;
nodes = (
"120 10 OFFCURVE",
"75 93 OFFCURVE",
"75 335 CURVE SMOOTH",
"75 395 LINE SMOOTH",
"75 637 OFFCURVE",
"120 720 OFFCURVE",
"250 720 CURVE SMOOTH",
"380 720 OFFCURVE",
"425 637 OFFCURVE",
"425 395 CURVE SMOOTH",
"425 335 LINE SMOOTH",
"425 93 OFFCURVE",
"380 10 OFFCURVE",
"250 10 CURVE SMOOTH"
);
}
);
width = 500;
},
{
anchors = (
{
name = bottom;
position = "{250, 0}";
},
{
name = center;
position = "{250, 365}";
},
{
name = ogonek;
position = "{279, 0}";
},
{
name = top;
position = "{250, 730}";
},
{
name = topleft;
position = "{20, 730}";
},
{
name = topright;
position = "{275, 740}";
}
);
layerId = "E27A6A66-A1F8-4E1B-8224-7C0FE77551F2";
paths = (
{
closed = 1;
nodes = (
"404 -10 OFFCURVE",
"460 82 OFFCURVE",
"460 335 CURVE SMOOTH",
"460 395 LINE SMOOTH",
"460 648 OFFCURVE",
"404 740 OFFCURVE",
"250 740 CURVE SMOOTH",
"96 740 OFFCURVE",
"40 648 OFFCURVE",
"40 395 CURVE SMOOTH",
"40 335 LINE SMOOTH",
"40 82 OFFCURVE",
"96 -10 OFFCURVE",
"250 -10 CURVE SMOOTH"
);
},
{
closed = 1;
nodes = (
"151 62 OFFCURVE",
"122 125 OFFCURVE",
"122 340 CURVE SMOOTH",
"122 390 LINE SMOOTH",
"122 605 OFFCURVE",
"151 668 OFFCURVE",
"250 668 CURVE SMOOTH",
"349 668 OFFCURVE",
"378 605 OFFCURVE",
"378 390 CURVE SMOOTH",
"378 340 LINE SMOOTH",
"378 125 OFFCURVE",
"349 62 OFFCURVE",
"250 62 CURVE SMOOTH"
);
}
);
vertWidth = 1000;
width = 500;
},
{
anchors = (
{
name = bottom;
position = "{250, 0}";
},
{
name = center;
position = "{250, 365}";
},
{
name = ogonek;
position = "{268, 0}";
},
{
name = top;
position = "{250, 730}";
},
{
name = topleft;
position = "{20, 730}";
},
{
name = topright;
position = "{253, 740}";
}
);
layerId = "FC9CFCDA-9E80-4E73-BA51-8504D15957FA";
paths = (
{
closed = 1;
nodes = (
"415 -10 OFFCURVE",
"475 82 OFFCURVE",
"475 335 CURVE SMOOTH",
"475 395 LINE SMOOTH",
"475 648 OFFCURVE",
"415 740 OFFCURVE",
"250 740 CURVE SMOOTH",
"85 740 OFFCURVE",
"25 648 OFFCURVE",
"25 395 CURVE SMOOTH",
"25 335 LINE SMOOTH",
"25 82 OFFCURVE",
"85 -10 OFFCURVE",
"250 -10 CURVE SMOOTH"
);
},
{
closed = 1;
nodes = (
"183 114 OFFCURVE",
"169 154 OFFCURVE",
"169 345 CURVE SMOOTH",
"169 385 LINE SMOOTH",
"169 576 OFFCURVE",
"183 616 OFFCURVE",
"250 616 CURVE SMOOTH",
"317 616 OFFCURVE",
"331 576 OFFCURVE",
"331 385 CURVE SMOOTH",
"331 345 LINE SMOOTH",
"331 154 OFFCURVE",
"317 114 OFFCURVE",
"250 114 CURVE SMOOTH"
);
}
);
vertWidth = 1000;
width = 500;
}
);
leftKerningGroup = O;
rightKerningGroup = O;
rightMetricsKey = "=|";
unicode = 004F;
},
{
color = 11;
glyphname = Oslash;
lastChange = "2021-04-12 12:33:05 +0000";
layers = (
{
components = (
{
name = O;
}
);
layerId = "D65C9A1E-0FCA-4B2D-8EDF-9F36CA9182A1";
paths = (
{
closed = 1;
nodes = (
"86 -10 LINE",
"436 740 LINE",
"414 740 LINE",
"64 -10 LINE"
);
}
);
width = 500;
},
{
components = (
{
alignment = -1;
name = O;
}
);
layerId = "E27A6A66-A1F8-4E1B-8224-7C0FE77551F2";
paths = (
{
closed = 1;
nodes = (
"112 -10 LINE",
"462 740 LINE",
"388 740 LINE",
"38 -10 LINE"
);
}
);
vertWidth = 1000;
width = 500;
},
{
components = (
{
name = O;
}
);
layerId = "FC9CFCDA-9E80-4E73-BA51-8504D15957FA";
paths = (
{
closed = 1;
nodes = (
"126 -10 LINE",
"476 740 LINE",
"374 740 LINE",
"24 -10 LINE"
);
}
);
width = 500;
}
);
leftKerningGroup = O;
rightKerningGroup = O;
unicode = 00D8;
},
{
color = 11;
glyphname = OE;
lastChange = "2021-04-13 09:08:58 +0000";
layers = (
{
layerId = "D65C9A1E-0FCA-4B2D-8EDF-9F36CA9182A1";
paths = (
{
closed = 1;
nodes = (
"223 -10 OFFCURVE",
"247 -5 OFFCURVE",
"269 6 CURVE",
"260 24 LINE",
"241 14 OFFCURVE",
"218 10 OFFCURVE",
"193 10 CURVE SMOOTH",
"81 10 OFFCURVE",
"40 91 OFFCURVE",
"40 335 CURVE SMOOTH",
"40 395 LINE SMOOTH",
"40 639 OFFCURVE",
"81 720 OFFCURVE",
"193 720 CURVE SMOOTH",
"218 720 OFFCURVE",
"241 716 OFFCURVE",
"260 706 CURVE",
"269 724 LINE",
"247 735 OFFCURVE",
"223 740 OFFCURVE",
"193 740 CURVE SMOOTH",
"66 740 OFFCURVE",
"20 648 OFFCURVE",
"20 395 CURVE SMOOTH",
"20 335 LINE SMOOTH",
"20 82 OFFCURVE",
"66 -10 OFFCURVE",
"193 -10 CURVE SMOOTH"
);
},
{
closed = 1;
nodes = (
"480 0 LINE",
"480 20 LINE",
"274 20 LINE",
"274 376 LINE",
"471 376 LINE",
"471 396 LINE",
"274 396 LINE",
"274 710 LINE",
"480 710 LINE",
"480 730 LINE",
"254 730 LINE",
"254 0 LINE"
);
}
);
width = 500;
},
{
layerId = "E27A6A66-A1F8-4E1B-8224-7C0FE77551F2";
paths = (
{
closed = 1;
nodes = (
"243 -10 OFFCURVE",
"272 10 OFFCURVE",
"295 64 CURVE",
"245 88 LINE",
"232 69 OFFCURVE",
"218 62 OFFCURVE",
"194 62 CURVE SMOOTH",
"120 62 OFFCURVE",
"97 127 OFFCURVE",
"97 340 CURVE SMOOTH",
"97 390 LINE SMOOTH",
"97 603 OFFCURVE",
"120 668 OFFCURVE",
"194 668 CURVE SMOOTH",
"215 668 OFFCURVE",
"229 661 OFFCURVE",
"245 642 CURVE",
"295 666 LINE",
"272 720 OFFCURVE",
"243 740 OFFCURVE",
"185 740 CURVE SMOOTH",
"60 740 OFFCURVE",
"14.991 648 OFFCURVE",
"14.991 395 CURVE SMOOTH",
"14.991 335 LINE SMOOTH",
"14.991 82 OFFCURVE",
"60 -10 OFFCURVE",
"185 -10 CURVE SMOOTH"
);
},
{
closed = 1;
nodes = (
"485.009 0 LINE",
"485 70 LINE",
"321 70 LINE",
"321 351 LINE",
"477 351 LINE",
"477 421 LINE",
"321 421 LINE",
"321 660 LINE",
"485 660 LINE",
"485.009 730 LINE",
"241 730 LINE",
"241 0 LINE"
);
}
);
vertWidth = 1000;
width = 500;
},
{
layerId = "FC9CFCDA-9E80-4E73-BA51-8504D15957FA";
paths = (
{
closed = 1;
nodes = (
"257 -10 OFFCURVE",
"298 28 OFFCURVE",
"320 122 CURVE",
"231 152 LINE",
"224 125 OFFCURVE",
"212 114 OFFCURVE",
"192 114 CURVE SMOOTH",
"153 114 OFFCURVE",
"144 156 OFFCURVE",
"144 345 CURVE SMOOTH",
"144 385 LINE SMOOTH",
"144 574 OFFCURVE",
"153 616 OFFCURVE",
"192 616 CURVE SMOOTH",
"212 616 OFFCURVE",
"224 605 OFFCURVE",
"231 578 CURVE",
"320 608 LINE",
"298 702 OFFCURVE",
"257 740 OFFCURVE",
"178 740 CURVE SMOOTH",
"55 740 OFFCURVE",
"10 648 OFFCURVE",
"10 395 CURVE SMOOTH",
"10 335 LINE SMOOTH",
"10 82 OFFCURVE",
"55 -10 OFFCURVE",
"178 -10 CURVE SMOOTH"
);
},
{
closed = 1;
nodes = (
"490 0 LINE",
"490 118 LINE",
"360 118 LINE",
"360 328 LINE",
"483 328 LINE",
"483 444 LINE",
"360 444 LINE",
"360 612 LINE",
"490 612 LINE",
"490 730 LINE",
"228 730 LINE",
"228 0 LINE"
);
}
);
vertWidth = 1000;
width = 500;
}
);
leftKerningGroup = O;
rightKerningGroup = E;
unicode = 0152;
},
{
color = 10;
glyphname = P;
lastChange = "2021-04-05 06:17:58 +0000";
layers = (
{
layerId = "D65C9A1E-0FCA-4B2D-8EDF-9F36CA9182A1";
paths = (
{
closed = 1;
nodes = (
"110 0 LINE",
"110 728 LINE",
"93 708 LINE",
"142 716 OFFCURVE",
"176 720 OFFCURVE",
"218 720 CURVE SMOOTH",
"374 720 OFFCURVE",
"430 664 OFFCURVE",
"430 508 CURVE SMOOTH",
"430 352 OFFCURVE",
"374 296 OFFCURVE",
"218 296 CURVE SMOOTH",
"182 296 OFFCURVE",
"148 299 OFFCURVE",
"99 307 CURVE",
"96 287 LINE",
"147 279 OFFCURVE",
"182 276 OFFCURVE",
"218 276 CURVE SMOOTH",
"385 276 OFFCURVE",
"450 341 OFFCURVE",
"450 508 CURVE SMOOTH",
"450 675 OFFCURVE",
"385 740 OFFCURVE",
"218 740 CURVE SMOOTH",
"182 740 OFFCURVE",
"144 737 OFFCURVE",
"90 728 CURVE",
"90 0 LINE"
);
}
);
width = 500;
},
{
layerId = "E27A6A66-A1F8-4E1B-8224-7C0FE77551F2";
paths = (
{
closed = 1;
nodes = (
"157 0 LINE",
"157 688 LINE",
"131 660 LINE",
"162 665 OFFCURVE",
"190 668 OFFCURVE",
"221 668 CURVE SMOOTH",
"341 668 OFFCURVE",
"384 622 OFFCURVE",
"384 495 CURVE SMOOTH",
"384 368 OFFCURVE",
"341 322 OFFCURVE",
"221 322 CURVE SMOOTH",
"190 322 OFFCURVE",
"166 325 OFFCURVE",
"134 330 CURVE",
"108 258 LINE",
"145 253 OFFCURVE",
"176 250 OFFCURVE",
"214 250 CURVE SMOOTH",
"395 250 OFFCURVE",
"465 318 OFFCURVE",
"465 495 CURVE SMOOTH",
"465 672 OFFCURVE",
"395 740 OFFCURVE",
"214 740 CURVE SMOOTH",
"176 740 OFFCURVE",
"134 737 OFFCURVE",
"75 728 CURVE",
"75 0 LINE"
);
}
);
vertWidth = 1000;
width = 500;
},
{
layerId = "FC9CFCDA-9E80-4E73-BA51-8504D15957FA";
paths = (
{
closed = 1;
nodes = (
"204 0 LINE",
"204 647 LINE",
"168 610 LINE",
"181 612 OFFCURVE",
"203 614 OFFCURVE",
"223 614 CURVE SMOOTH",
"307 614 OFFCURVE",
"338 578 OFFCURVE",
"338 481 CURVE SMOOTH",
"338 384 OFFCURVE",
"307 348 OFFCURVE",
"223 348 CURVE SMOOTH",
"203 348 OFFCURVE",
"183 350 OFFCURVE",
"168 352 CURVE",
"120 228 LINE",
"142 226 OFFCURVE",
"176 224 OFFCURVE",
"209 224 CURVE SMOOTH",
"404 224 OFFCURVE",
"480 296 OFFCURVE",
"480 482 CURVE SMOOTH",
"480 668 OFFCURVE",
"404 740 OFFCURVE",
"209 740 CURVE SMOOTH",
"169 740 OFFCURVE",
"123 737 OFFCURVE",
"60 728 CURVE",
"60 0 LINE"
);
}
);
vertWidth = 1000;
width = 500;
}
);
leftKerningGroup = H;
rightKerningGroup = P;
unicode = 0050;
},
{
color = 11;
glyphname = Thorn;
lastChange = "2021-04-13 09:29:02 +0000";
layers = (
{
layerId = "D65C9A1E-0FCA-4B2D-8EDF-9F36CA9182A1";
paths = (
{
closed = 1;
nodes = (
"385 153 OFFCURVE",
"450 218 OFFCURVE",
"450 385 CURVE SMOOTH",
"450 552 OFFCURVE",
"385 617 OFFCURVE",
"218 617 CURVE SMOOTH",
"182 617 OFFCURVE",
"147 614 OFFCURVE",
"96 606 CURVE",
"99 586 LINE",
"148 594 OFFCURVE",
"182 597 OFFCURVE",
"218 597 CURVE SMOOTH",
"374 597 OFFCURVE",
"430 541 OFFCURVE",
"430 385 CURVE SMOOTH",
"430 229 OFFCURVE",
"374 173 OFFCURVE",
"218 173 CURVE SMOOTH",
"182 173 OFFCURVE",
"148 176 OFFCURVE",
"99 184 CURVE",
"96 164 LINE",
"147 156 OFFCURVE",
"182 153 OFFCURVE",
"218 153 CURVE SMOOTH"
);
},
{
closed = 1;
nodes = (
"110 0 LINE",
"110 730 LINE",
"90 730 LINE",
"90 0 LINE"
);
}
);
width = 500;
},
{
layerId = "E27A6A66-A1F8-4E1B-8224-7C0FE77551F2";
paths = (
{
closed = 1;
nodes = (
"395 140 OFFCURVE",
"465 208 OFFCURVE",
"465 385 CURVE SMOOTH",
"465 562 OFFCURVE",
"395 630 OFFCURVE",
"214 630 CURVE SMOOTH",
"176 630 OFFCURVE",
"145 627 OFFCURVE",
"108 622 CURVE",
"134 550 LINE",
"166 555 OFFCURVE",
"190 558 OFFCURVE",
"221 558 CURVE SMOOTH",
"341 558 OFFCURVE",
"384 512 OFFCURVE",
"384 385 CURVE SMOOTH",
"384 258 OFFCURVE",
"341 212 OFFCURVE",
"221 212 CURVE SMOOTH",
"190 212 OFFCURVE",
"166 215 OFFCURVE",
"134 220 CURVE",
"108 148 LINE",
"145 143 OFFCURVE",
"176 140 OFFCURVE",
"214 140 CURVE SMOOTH"
);
},
{
closed = 1;
nodes = (
"157 0 LINE",
"157 730 LINE",
"75 730 LINE",
"75 0 LINE"
);
}
);
vertWidth = 1000;
width = 500;
},
{
layerId = "FC9CFCDA-9E80-4E73-BA51-8504D15957FA";
paths = (
{
closed = 1;
nodes = (
"404 127 OFFCURVE",
"480 199 OFFCURVE",
"480 385 CURVE SMOOTH",
"480 571 OFFCURVE",
"404 643 OFFCURVE",
"209 643 CURVE SMOOTH",
"176 643 OFFCURVE",
"142 641 OFFCURVE",
"120 639 CURVE",
"168 515 LINE",
"183 517 OFFCURVE",
"203 519 OFFCURVE",
"223 519 CURVE SMOOTH",
"307 519 OFFCURVE",
"338 483 OFFCURVE",
"338 385 CURVE SMOOTH",
"338 287 OFFCURVE",
"307 251 OFFCURVE",
"223 251 CURVE SMOOTH",
"203 251 OFFCURVE",
"183 253 OFFCURVE",
"168 255 CURVE",
"120 131 LINE",
"142 129 OFFCURVE",
"176 127 OFFCURVE",
"209 127 CURVE SMOOTH"
);
},
{
closed = 1;
nodes = (
"204 0 LINE",
"204 730 LINE",
"60 730 LINE",
"60 0 LINE"
);
}
);
vertWidth = 1000;
width = 500;
}
);
leftKerningGroup = H;
rightKerningGroup = O;
unicode = 00DE;
},
{
color = 10;
glyphname = Q;
lastChange = "2021-04-12 13:00:52 +0000";
layers = (
{
layerId = "E27A6A66-A1F8-4E1B-8224-7C0FE77551F2";
paths = (
{
closed = 1;
nodes = (
"460 -150 LINE",
"460 -59 OFFCURVE",
"430 -1 OFFCURVE",
"370 23 CURVE",
"370 27 LINE",
"433 69 OFFCURVE",
"460 159 OFFCURVE",
"460 335 CURVE SMOOTH",
"460 395 LINE SMOOTH",
"460 648 OFFCURVE",
"404 740 OFFCURVE",
"250 740 CURVE SMOOTH",
"96 740 OFFCURVE",
"40 648 OFFCURVE",
"40 395 CURVE SMOOTH",
"40 335 LINE SMOOTH",
"40 82 OFFCURVE",
"96 -10 OFFCURVE",
"250 -10 CURVE SMOOTH",
"346 -10 OFFCURVE",
"378 -45 OFFCURVE",
"378 -150 CURVE"
);
},
{
closed = 1;
nodes = (
"151 62 OFFCURVE",
"122 125 OFFCURVE",
"122 340 CURVE SMOOTH",
"122 390 LINE SMOOTH",
"122 605 OFFCURVE",
"151 668 OFFCURVE",
"250 668 CURVE SMOOTH",
"349 668 OFFCURVE",
"378 605 OFFCURVE",
"378 390 CURVE SMOOTH",
"378 340 LINE SMOOTH",
"378 125 OFFCURVE",
"349 62 OFFCURVE",
"250 62 CURVE SMOOTH"
);
}
);
vertWidth = 1000;
width = 500;
},
{
layerId = "FC9CFCDA-9E80-4E73-BA51-8504D15957FA";
paths = (
{
closed = 1;
nodes = (
"495 -150 LINE",
"495 -44 OFFCURVE",
"468 20 OFFCURVE",
"412 47 CURVE",
"412 51 LINE",
"456 102 OFFCURVE",
"475 190 OFFCURVE",
"475 335 CURVE SMOOTH",
"475 395 LINE SMOOTH",
"475 648 OFFCURVE",
"415 740 OFFCURVE",
"250 740 CURVE SMOOTH",
"85 740 OFFCURVE",
"25 648 OFFCURVE",
"25 395 CURVE SMOOTH",
"25 335 LINE SMOOTH",
"25 82 OFFCURVE",
"85 -10 OFFCURVE",
"250 -10 CURVE SMOOTH",
"331 -10 OFFCURVE",
"350 -32 OFFCURVE",
"350 -150 CURVE"
);
},
{
closed = 1;
nodes = (
"183 114 OFFCURVE",
"169 154 OFFCURVE",
"169 345 CURVE SMOOTH",
"169 385 LINE SMOOTH",
"169 576 OFFCURVE",
"183 616 OFFCURVE",
"250 616 CURVE SMOOTH",
"317 616 OFFCURVE",
"331 576 OFFCURVE",
"331 385 CURVE SMOOTH",
"331 345 LINE SMOOTH",
"331 154 OFFCURVE",
"317 114 OFFCURVE",
"250 114 CURVE SMOOTH"
);
}
);
vertWidth = 1000;
width = 520;
},
{
layerId = "D65C9A1E-0FCA-4B2D-8EDF-9F36CA9182A1";
paths = (
{
closed = 1;
nodes = (
"425 -150 LINE",
"425 -73 OFFCURVE",
"391 -22 OFFCURVE",
"327 -1 CURVE",
"327 3 LINE",
"411 36 OFFCURVE",
"445 132 OFFCURVE",
"445 335 CURVE SMOOTH",
"445 395 LINE SMOOTH",
"445 648 OFFCURVE",
"393 740 OFFCURVE",
"250 740 CURVE SMOOTH",
"107 740 OFFCURVE",
"55 648 OFFCURVE",
"55 395 CURVE SMOOTH",
"55 335 LINE SMOOTH",
"55 82 OFFCURVE",
"107 -10 OFFCURVE",
"250 -10 CURVE SMOOTH",
"352 -10 OFFCURVE",
"405 -57 OFFCURVE",
"405 -150 CURVE"
);
},
{
closed = 1;
nodes = (
"120 10 OFFCURVE",
"75 93 OFFCURVE",
"75 335 CURVE SMOOTH",
"75 395 LINE SMOOTH",
"75 637 OFFCURVE",
"120 720 OFFCURVE",
"250 720 CURVE SMOOTH",
"380 720 OFFCURVE",
"425 637 OFFCURVE",
"425 395 CURVE SMOOTH",
"425 335 LINE SMOOTH",
"425 93 OFFCURVE",
"380 10 OFFCURVE",
"250 10 CURVE SMOOTH"
);
}
);
width = 500;
}
);
leftKerningGroup = O;
rightKerningGroup = O;
rightMetricsKey = "=|";
unicode = 0051;
},
{
color = 10;
glyphname = R;
lastChange = "2021-04-13 09:30:44 +0000";
layers = (
{
anchors = (
{
name = bottom;
position = "{240, 0}";
},
{
name = top;
position = "{240, 730}";
}
);
layerId = "D65C9A1E-0FCA-4B2D-8EDF-9F36CA9182A1";
paths = (
{
closed = 1;
nodes = (
"108 0 LINE",
"108 728 LINE",
"91 708 LINE",
"141 717 OFFCURVE",
"177 720 OFFCURVE",
"216 720 CURVE SMOOTH",
"372 720 OFFCURVE",
"428 669 OFFCURVE",
"428 530 CURVE SMOOTH",
"428 391 OFFCURVE",
"372 340 OFFCURVE",
"216 340 CURVE SMOOTH",
"179 340 OFFCURVE",
"147 343 OFFCURVE",
"97 351 CURVE",
"94 331 LINE",
"145 323 OFFCURVE",
"178 320 OFFCURVE",
"216 320 CURVE SMOOTH",
"383 320 OFFCURVE",
"448 379 OFFCURVE",
"448 530 CURVE SMOOTH",
"448 681 OFFCURVE",
"383 740 OFFCURVE",
"216 740 CURVE SMOOTH",
"178 740 OFFCURVE",
"142 737 OFFCURVE",
"88 728 CURVE",
"88 0 LINE"
);
},
{
closed = 1;
nodes = (
"458 0 LINE",
"132 335 LINE",
"105 335 LINE",
"430 0 LINE"
);
}
);
width = 500;
},
{
anchors = (
{
name = bottom;
position = "{240, 0}";
},
{
name = top;
position = "{240, 730}";
}
);
layerId = "E27A6A66-A1F8-4E1B-8224-7C0FE77551F2";
paths = (
{
closed = 1;
nodes = (
"150 0 LINE",
"150 688 LINE",
"126 660 LINE",
"162 666 OFFCURVE",
"189 668 OFFCURVE",
"216 668 CURVE SMOOTH",
"336 668 OFFCURVE",
"379 627 OFFCURVE",
"379 514 CURVE SMOOTH",
"379 401 OFFCURVE",
"336 360 OFFCURVE",
"216 360 CURVE SMOOTH",
"190 360 OFFCURVE",
"164 362 OFFCURVE",
"129 368 CURVE",
"103 298 LINE",
"140 293 OFFCURVE",
"173 290 OFFCURVE",
"209 290 CURVE SMOOTH",
"390 290 OFFCURVE",
"460 353 OFFCURVE",
"460 515 CURVE SMOOTH",
"460 677 OFFCURVE",
"390 740 OFFCURVE",
"209 740 CURVE SMOOTH",
"169 740 OFFCURVE",
"129 737 OFFCURVE",
"70 728 CURVE",
"70 0 LINE"
);
},
{
closed = 1;
nodes = (
"470 0 LINE",
"218 328 LINE",
"126 328 LINE",
"376 0 LINE"
);
}
);
vertWidth = 1000;
width = 500;
},
{
anchors = (
{
name = bottom;
position = "{240, 0}";
},
{
name = top;
position = "{240, 730}";
}
);
layerId = "FC9CFCDA-9E80-4E73-BA51-8504D15957FA";
paths = (
{
closed = 1;
nodes = (
"192 0 LINE",
"192 647 LINE",
"160 610 LINE",
"183 613 OFFCURVE",
"200 614 OFFCURVE",
"215 614 CURVE SMOOTH",
"300 614 OFFCURVE",
"330 583 OFFCURVE",
"330 497 CURVE SMOOTH",
"330 411 OFFCURVE",
"300 380 OFFCURVE",
"215 380 CURVE SMOOTH",
"200 380 OFFCURVE",
"180 381 OFFCURVE",
"160 384 CURVE",
"112 264 LINE",
"134 262 OFFCURVE",
"168 260 OFFCURVE",
"201 260 CURVE SMOOTH",
"396 260 OFFCURVE",
"472 327 OFFCURVE",
"472 500 CURVE SMOOTH",
"472 673 OFFCURVE",
"396 740 OFFCURVE",
"201 740 CURVE SMOOTH",
"160 740 OFFCURVE",
"115 737 OFFCURVE",
"52 728 CURVE",
"52 0 LINE"
);
},
{
closed = 1;
nodes = (
"482 0 LINE",
"314 320 LINE",
"164 320 LINE",
"328 0 LINE"
);
}
);
vertWidth = 1000;
width = 500;
}
);
leftKerningGroup = H;
rightKerningGroup = R;
unicode = 0052;
},
{
color = 10;
glyphname = S;
lastChange = "2021-04-13 09:43:09 +0000";
layers = (
{
anchors = (
{
name = bottom;
position = "{250, 0}";
},
{
name = cedi;
position = "{250, 0}";
},
{
name = top;
position = "{250, 730}";
}
);
layerId = "D65C9A1E-0FCA-4B2D-8EDF-9F36CA9182A1";
paths = (
{
closed = 1;
nodes = (
"356 -10 OFFCURVE",
"435 58 OFFCURVE",
"435 173 CURVE SMOOTH",
"435 301 OFFCURVE",
"338 350 OFFCURVE",
"249 395 CURVE SMOOTH",
"163 439 OFFCURVE",
"85 479 OFFCURVE",
"85 580 CURVE SMOOTH",
"85 670 OFFCURVE",
"148 720 OFFCURVE",
"263 720 CURVE SMOOTH",
"306 720 OFFCURVE",
"355 713 OFFCURVE",
"405 701 CURVE",
"390 713 LINE",
"390 520 LINE",
"410 520 LINE",
"410 720 LINE",
"359 733 OFFCURVE",
"308 740 OFFCURVE",
"263 740 CURVE SMOOTH",
"137 740 OFFCURVE",
"65 682 OFFCURVE",
"65 580 CURVE SMOOTH",
"65 467 OFFCURVE",
"154 421 OFFCURVE",
"240 377 CURVE SMOOTH",
"329 332 OFFCURVE",
"415 288 OFFCURVE",
"415 173 CURVE SMOOTH",
"415 70 OFFCURVE",
"346 10 OFFCURVE",
"225 10 CURVE SMOOTH",
"175 10 OFFCURVE",
"125 20 OFFCURVE",
"70 43 CURVE",
"70 21 LINE",
"124 0 OFFCURVE",
"175 -10 OFFCURVE",
"225 -10 CURVE SMOOTH"
);
}
);
width = 500;
},
{
anchors = (
{
name = bottom;
position = "{250, 0}";
},
{
name = cedi;
position = "{250, 0}";
},
{
name = top;
position = "{250, 730}";
}
);
layerId = "FC9CFCDA-9E80-4E73-BA51-8504D15957FA";
paths = (
{
closed = 1;
nodes = (
"372 -10 OFFCURVE",
"455 62 OFFCURVE",
"455 200 CURVE SMOOTH",
"455 301 OFFCURVE",
"411 364 OFFCURVE",
"293 430 CURVE SMOOTH",
"218 472 OFFCURVE",
"189 501 OFFCURVE",
"189 546 CURVE SMOOTH",
"189 593 OFFCURVE",
"221 614 OFFCURVE",
"293 614 CURVE SMOOTH",
"309 614 OFFCURVE",
"330 613 OFFCURVE",
"349 610 CURVE",
"290 671 LINE",
"290 500 LINE",
"430 500 LINE",
"430 725 LINE",
"382 735 OFFCURVE",
"331 740 OFFCURVE",
"287 740 CURVE SMOOTH",
"126 740 OFFCURVE",
"45 672 OFFCURVE",
"45 538 CURVE SMOOTH",
"45 440 OFFCURVE",
"88 379 OFFCURVE",
"202 317 CURVE SMOOTH",
"281 275 OFFCURVE",
"311 243 OFFCURVE",
"311 192 CURVE SMOOTH",
"311 140 OFFCURVE",
"279 116 OFFCURVE",
"210 116 CURVE SMOOTH",
"160 116 OFFCURVE",
"103 129 OFFCURVE",
"55 149 CURVE",
"55 15 LINE",
"101 -1 OFFCURVE",
"154 -10 OFFCURVE",
"211 -10 CURVE SMOOTH"
);
}
);
vertWidth = 1000;
width = 500;
},
{
anchors = (
{
name = bottom;
position = "{250, 0}";
},
{
name = cedi;
position = "{250, 0}";
},
{
name = top;
position = "{250, 730}";
}
);
layerId = "E27A6A66-A1F8-4E1B-8224-7C0FE77551F2";
paths = (
{
closed = 1;
nodes = (
"364 -10 OFFCURVE",
"445 60 OFFCURVE",
"445 187 CURVE SMOOTH",
"445 301 OFFCURVE",
"375 357 OFFCURVE",
"271 413 CURVE SMOOTH",
"191 456 OFFCURVE",
"137 490 OFFCURVE",
"137 563 CURVE SMOOTH",
"137 633 OFFCURVE",
"185 668 OFFCURVE",
"278 668 CURVE SMOOTH",
"310 668 OFFCURVE",
"343 664 OFFCURVE",
"378 657 CURVE",
"340 702 LINE",
"340 510 LINE",
"420 510 LINE",
"420 723 LINE",
"370 734 OFFCURVE",
"319 740 OFFCURVE",
"275 740 CURVE SMOOTH",
"132 740 OFFCURVE",
"55 677 OFFCURVE",
"55 559 CURVE SMOOTH",
"55 454 OFFCURVE",
"121 400 OFFCURVE",
"221 347 CURVE SMOOTH",
"305 304 OFFCURVE",
"363 266 OFFCURVE",
"363 183 CURVE SMOOTH",
"363 104 OFFCURVE",
"313 62 OFFCURVE",
"218 62 CURVE SMOOTH",
"168 62 OFFCURVE",
"114 74 OFFCURVE",
"63 95 CURVE",
"63 18 LINE",
"113 -1 OFFCURVE",
"165 -10 OFFCURVE",
"218 -10 CURVE SMOOTH"
);
}
);
vertWidth = 1000;
width = 500;
}
);
leftKerningGroup = S;
rightKerningGroup = S;
unicode = 0053;
},
{
color = 11;
glyphname = Germandbls;
lastChange = "2021-04-15 04:04:48 +0000";
layers = (
{
layerId = "D65C9A1E-0FCA-4B2D-8EDF-9F36CA9182A1";
paths = (
{
closed = 1;
nodes = (
"406 -10 OFFCURVE",
"472 56 OFFCURVE",
"472 185 CURVE SMOOTH",
"472 315 OFFCURVE",
"404 380 OFFCURVE",
"268 380 CURVE",
"268 384 LINE",
"410 545 LINE",
"410 676 OFFCURVE",
"353 740 OFFCURVE",
"236 740 CURVE SMOOTH",
"119 740 OFFCURVE",
"62 676 OFFCURVE",
"62 545 CURVE SMOOTH",
"62 0 LINE",
"82 0 LINE",
"82 545 LINE SMOOTH",
"82 665 OFFCURVE",
"131 720 OFFCURVE",
"236 720 CURVE SMOOTH",
"339 720 OFFCURVE",
"388 667 OFFCURVE",
"390 552 CURVE",
"248 392 LINE",
"248 360 LINE",
"268 360 LINE SMOOTH",
"393 360 OFFCURVE",
"452 304 OFFCURVE",
"452 185 CURVE SMOOTH",
"452 67 OFFCURVE",
"395 10 OFFCURVE",
"278 10 CURVE SMOOTH",
"240 10 OFFCURVE",
"207 16 OFFCURVE",
"178 27 CURVE",
"178 6 LINE",
"207 -5 OFFCURVE",
"243 -10 OFFCURVE",
"278 -10 CURVE SMOOTH"
);
}
);
width = 500;
},
{
layerId = "E27A6A66-A1F8-4E1B-8224-7C0FE77551F2";
paths = (
{
closed = 1;
nodes = (
"419 -10 OFFCURVE",
"483 60 OFFCURVE",
"483 196 CURVE SMOOTH",
"483 322 OFFCURVE",
"429 385 OFFCURVE",
"314 391 CURVE",
"314 395 LINE",
"425 533 LINE",
"425 672 OFFCURVE",
"362 740 OFFCURVE",
"233.996 740 CURVE SMOOTH",
"106 740 OFFCURVE",
"43 672 OFFCURVE",
"43 533 CURVE SMOOTH",
"43 0 LINE",
"123 0 LINE",
"123 523 LINE SMOOTH",
"123 626 OFFCURVE",
"155 668 OFFCURVE",
"234 668 CURVE SMOOTH",
"310 668 OFFCURVE",
"344 630 OFFCURVE",
"345 546 CURVE",
"230 400 LINE",
"230 326 LINE",
"260 326 LINE SMOOTH",
"360 326 OFFCURVE",
"401 288 OFFCURVE",
"401 195 CURVE SMOOTH",
"401 104 OFFCURVE",
"362 62 OFFCURVE",
"279 62 CURVE SMOOTH",
"250 62 OFFCURVE",
"223 67 OFFCURVE",
"195 78 CURVE",
"195 5 LINE",
"227 -6 OFFCURVE",
"265 -10 OFFCURVE",
"295 -10 CURVE SMOOTH"
);
}
);
vertWidth = 1000;
width = 500;
},
{
layerId = "FC9CFCDA-9E80-4E73-BA51-8504D15957FA";
paths = (
{
closed = 1;
nodes = (
"434 -10 OFFCURVE",
"494 58 OFFCURVE",
"494 197 CURVE SMOOTH",
"494 316 OFFCURVE",
"451 388 OFFCURVE",
"359 401 CURVE",
"359 405 LINE",
"440 522 LINE",
"440 668 OFFCURVE",
"371 740 OFFCURVE",
"232 740 CURVE SMOOTH",
"93 740 OFFCURVE",
"24 668 OFFCURVE",
"24 522 CURVE SMOOTH",
"24 0 LINE",
"164 0 LINE",
"164 502 LINE SMOOTH",
"164 596 OFFCURVE",
"183 618 OFFCURVE",
"232 618 CURVE SMOOTH",
"281 618 OFFCURVE",
"300 596 OFFCURVE",
"300 541 CURVE",
"212 407 LINE",
"212 293 LINE",
"252 293 LINE SMOOTH",
"327 293 OFFCURVE",
"350 272 OFFCURVE",
"350 204 CURVE SMOOTH",
"350 139 OFFCURVE",
"329 112 OFFCURVE",
"279 112 CURVE SMOOTH",
"260 112 OFFCURVE",
"238 116 OFFCURVE",
"212 126 CURVE",
"212 4 LINE",
"246 -6 OFFCURVE",
"281 -10 OFFCURVE",
"311 -10 CURVE SMOOTH"
);
}
);
vertWidth = 1000;
width = 500;
}
);
leftKerningGroup = H;
rightKerningGroup = B;
unicode = 1E9E;
},
{
color = 11;
glyphname = Schwa;
lastChange = "2021-04-13 11:28:56 +0000";
layers = (
{
layerId = "D65C9A1E-0FCA-4B2D-8EDF-9F36CA9182A1";
paths = (
{
closed = 1;
nodes = (
"172 740 OFFCURVE",
"124 732 OFFCURVE",
"87 718 CURVE",
"87 696 LINE",
"124 711 OFFCURVE",
"171 720 OFFCURVE",
"215 720 CURVE SMOOTH",
"359 720 OFFCURVE",
"420 625 OFFCURVE",
"420 393 CURVE SMOOTH",
"420 337 LINE SMOOTH",
"420 98 OFFCURVE",
"372 10 OFFCURVE",
"250 10 CURVE SMOOTH",
"128 10 OFFCURVE",
"80 98 OFFCURVE",
"80 337 CURVE SMOOTH",
"80 362 LINE",
"70 352 LINE",
"430 352 LINE",
"430 372 LINE",
"60 372 LINE",
"60 337 LINE SMOOTH",
"60 88 OFFCURVE",
"114 -10 OFFCURVE",
"250 -10 CURVE SMOOTH",
"386 -10 OFFCURVE",
"440 88 OFFCURVE",
"440 337 CURVE SMOOTH",
"440 393 LINE SMOOTH",
"440 635 OFFCURVE",
"372 740 OFFCURVE",
"215 740 CURVE SMOOTH"
);
}
);
width = 500;
},
{
layerId = "E27A6A66-A1F8-4E1B-8224-7C0FE77551F2";
paths = (
{
closed = 1;
nodes = (
"166 740 OFFCURVE",
"116 732 OFFCURVE",
"74 718 CURVE",
"74 643 LINE",
"117 660 OFFCURVE",
"161 668 OFFCURVE",
"206 668 CURVE SMOOTH",
"334 668 OFFCURVE",
"375 601 OFFCURVE",
"375 390 CURVE SMOOTH",
"375 340 LINE SMOOTH",
"375 131 OFFCURVE",
"344 62 OFFCURVE",
"250 62 CURVE SMOOTH",
"156 62 OFFCURVE",
"125 131 OFFCURVE",
"125 340 CURVE SMOOTH",
"125 354 LINE",
"108 334 LINE",
"414 334 LINE",
"414 402 LINE",
"45 402 LINE",
"45 337 LINE SMOOTH",
"45 89 OFFCURVE",
"103 -10 OFFCURVE",
"250 -10 CURVE SMOOTH",
"397 -10 OFFCURVE",
"455 89 OFFCURVE",
"455 337 CURVE SMOOTH",
"455 393 LINE SMOOTH",
"455 634 OFFCURVE",
"381 740 OFFCURVE",
"212 740 CURVE SMOOTH"
);
}
);
vertWidth = 1000;
width = 500;
},
{
layerId = "FC9CFCDA-9E80-4E73-BA51-8504D15957FA";
paths = (
{
closed = 1;
nodes = (
"161 740 OFFCURVE",
"109 732 OFFCURVE",
"61 718 CURVE",
"61 588 LINE",
"113 607 OFFCURVE",
"152 614 OFFCURVE",
"198 614 CURVE SMOOTH",
"306 614 OFFCURVE",
"328 576 OFFCURVE",
"328 388 CURVE SMOOTH",
"328 342 LINE SMOOTH",
"328 162 OFFCURVE",
"312 116 OFFCURVE",
"249 116 CURVE SMOOTH",
"186 116 OFFCURVE",
"170 162 OFFCURVE",
"170 342 CURVE",
"170 346 LINE",
"145 316 LINE",
"399 316 LINE",
"399 432 LINE",
"30 432 LINE",
"30 337 LINE SMOOTH",
"30 90 OFFCURVE",
"93 -10 OFFCURVE",
"250 -10 CURVE SMOOTH",
"407 -10 OFFCURVE",
"470 90 OFFCURVE",
"470 337 CURVE SMOOTH",
"470 393 LINE SMOOTH",
"470 634 OFFCURVE",
"390 740 OFFCURVE",
"210 740 CURVE SMOOTH"
);
}
);
vertWidth = 1000;
width = 500;
}
);
leftKerningGroup = O;
rightKerningGroup = O;
unicode = 018F;
},
{
color = 10;
glyphname = T;
lastChange = "2021-04-13 11:46:56 +0000";
layers = (
{
anchors = (
{
name = bottom;
position = "{250, 0}";
},
{
name = cedi;
position = "{270, 0}";
},
{
name = center;
position = "{250, 365}";
},
{
name = top;
position = "{250, 730}";
}
);
layerId = "D65C9A1E-0FCA-4B2D-8EDF-9F36CA9182A1";
paths = (
{
closed = 1;
nodes = (
"260 0 LINE",
"260 710 LINE",
"455 710 LINE",
"455 730 LINE",
"45 730 LINE",
"45 710 LINE",
"240 710 LINE",
"240 0 LINE"
);
}
);
width = 500;
},
{
anchors = (
{
name = bottom;
position = "{250, 0}";
},
{
name = cedi;
position = "{253, 0}";
},
{
name = center;
position = "{250, 365}";
},
{
name = top;
position = "{250, 730}";
}
);
layerId = "E27A6A66-A1F8-4E1B-8224-7C0FE77551F2";
paths = (
{
closed = 1;
nodes = (
"291 0 LINE",
"291 658 LINE",
"460 658 LINE",
"460 730 LINE",
"40 730 LINE",
"40 658 LINE",
"209 658 LINE",
"209 0 LINE"
);
}
);
vertWidth = 1000;
width = 500;
},
{
anchors = (
{
name = bottom;
position = "{250, 0}";
},
{
name = cedi;
position = "{241, 0}";
},
{
name = center;
position = "{250, 365}";
},
{
name = top;
position = "{250, 730}";
}
);
layerId = "FC9CFCDA-9E80-4E73-BA51-8504D15957FA";
paths = (
{
closed = 1;
nodes = (
"322 0 LINE",
"322 606 LINE",
"465 606 LINE",
"465 730 LINE",
"35 730 LINE",
"35 606 LINE",
"178 606 LINE",
"178 0 LINE"
);
}
);
vertWidth = 1000;
width = 500;
}
);
leftKerningGroup = T;
rightKerningGroup = T;
rightMetricsKey = "=|";
unicode = 0054;
},
{
color = 11;
glyphname = Tbar;
lastChange = "2021-04-13 11:46:29 +0000";
layers = (
{
components = (
{
name = T;
}
);
layerId = "D65C9A1E-0FCA-4B2D-8EDF-9F36CA9182A1";
paths = (
{
closed = 1;
nodes = (
"430 305 LINE",
"430 325 LINE",
"70 325 LINE",
"70 305 LINE"
);
}
);
width = 500;
},
{
components = (
{
alignment = -1;
name = T;
}
);
layerId = "E27A6A66-A1F8-4E1B-8224-7C0FE77551F2";
paths = (
{
closed = 1;
nodes = (
"440 280 LINE",
"440 350 LINE",
"60 350 LINE",
"60 280 LINE"
);
}
);
vertWidth = 1000;
width = 500;
},
{
components = (
{
name = T;
}
);
layerId = "FC9CFCDA-9E80-4E73-BA51-8504D15957FA";
paths = (
{
closed = 1;
nodes = (
"450 257 LINE",
"450 373 LINE",
"50 373 LINE",
"50 257 LINE"
);
}
);
width = 500;
}
);
leftKerningGroup = W;
rightKerningGroup = W;
unicode = 0166;
},
{
color = 10;
glyphname = U;
lastChange = "2021-04-13 12:31:32 +0000";
layers = (
{
anchors = (
{
name = bottom;
position = "{250, 0}";
},
{
name = ogonek;
position = "{250, 0}";
},
{
name = top;
position = "{250, 730}";
},
{
name = topright;
position = "{387, 740}";
}
);
layerId = "D65C9A1E-0FCA-4B2D-8EDF-9F36CA9182A1";
paths = (
{
closed = 1;
nodes = (
"374 -10 OFFCURVE",
"430 54 OFFCURVE",
"430 195 CURVE SMOOTH",
"430 730 LINE",
"410 730 LINE",
"410 195 LINE SMOOTH",
"410 65 OFFCURVE",
"362 10 OFFCURVE",
"250 10 CURVE SMOOTH",
"138 10 OFFCURVE",
"90 65 OFFCURVE",
"90 195 CURVE SMOOTH",
"90 730 LINE",
"70 730 LINE",
"70 195 LINE SMOOTH",
"70 54 OFFCURVE",
"126 -10 OFFCURVE",
"250 -10 CURVE SMOOTH"
);
}
);
width = 500;
},
{
anchors = (
{
name = bottom;
position = "{250, 0}";
},
{
name = ogonek;
position = "{250, 0}";
},
{
name = top;
position = "{250, 730}";
},
{
name = topright;
position = "{331, 740}";
}
);
layerId = "E27A6A66-A1F8-4E1B-8224-7C0FE77551F2";
paths = (
{
closed = 1;
nodes = (
"384 -10 OFFCURVE",
"445 54 OFFCURVE",
"445 195 CURVE SMOOTH",
"445 730 LINE",
"365 730 LINE",
"365 203 LINE SMOOTH",
"365 103 OFFCURVE",
"332 62 OFFCURVE",
"250 62 CURVE SMOOTH",
"168 62 OFFCURVE",
"135 103 OFFCURVE",
"135 203 CURVE SMOOTH",
"135 730 LINE",
"55 730 LINE",
"55 195 LINE SMOOTH",
"55 54 OFFCURVE",
"116 -10 OFFCURVE",
"250 -10 CURVE SMOOTH"
);
}
);
vertWidth = 1000;
width = 500;
},
{
anchors = (
{
name = bottom;
position = "{250, 0}";
},
{
name = ogonek;
position = "{250, 0}";
},
{
name = top;
position = "{250, 730}";
},
{
name = topright;
position = "{290, 740}";
}
);
layerId = "FC9CFCDA-9E80-4E73-BA51-8504D15957FA";
paths = (
{
closed = 1;
nodes = (
"395 -10 OFFCURVE",
"460 54 OFFCURVE",
"460 195 CURVE SMOOTH",
"460 730 LINE",
"320 730 LINE",
"320 210 LINE SMOOTH",
"320 140 OFFCURVE",
"301 114 OFFCURVE",
"250 114 CURVE SMOOTH",
"199 114 OFFCURVE",
"180 140 OFFCURVE",
"180 210 CURVE SMOOTH",
"180 730 LINE",
"40 730 LINE",
"40 195 LINE SMOOTH",
"40 54 OFFCURVE",
"105 -10 OFFCURVE",
"250 -10 CURVE SMOOTH"
);
}
);
vertWidth = 1000;
width = 500;
}
);
leftKerningGroup = U;
rightKerningGroup = U;
rightMetricsKey = "=|";
unicode = 0055;
},
{
color = 10;
glyphname = V;
lastChange = "2021-04-10 02:32:44 +0000";
layers = (
{
layerId = "D65C9A1E-0FCA-4B2D-8EDF-9F36CA9182A1";
paths = (
{
closed = 1;
nodes = (
"267 0 LINE",
"465 730 LINE",
"444 730 LINE",
"252 19 LINE",
"248 19 LINE",
"56 730 LINE",
"35 730 LINE",
"233 0 LINE"
);
}
);
width = 500;
},
{
layerId = "E27A6A66-A1F8-4E1B-8224-7C0FE77551F2";
paths = (
{
closed = 1;
nodes = (
"299 0 LINE",
"480 730 LINE",
"398 730 LINE",
"252 104 LINE",
"248 104 LINE",
"102 730 LINE",
"20 730 LINE",
"201 0 LINE"
);
}
);
vertWidth = 1000;
width = 500;
},
{
layerId = "FC9CFCDA-9E80-4E73-BA51-8504D15957FA";
paths = (
{
closed = 1;
nodes = (
"330 0 LINE",
"495 730 LINE",
"353 730 LINE",
"252 190 LINE",
"248 190 LINE",
"147 730 LINE",
"5 730 LINE",
"170 0 LINE"
);
}
);
vertWidth = 1000;
width = 500;
}
);
leftKerningGroup = V;
rightKerningGroup = V;
rightMetricsKey = "=|";
unicode = 0056;
},
{
color = 10;
glyphname = W;
lastChange = "2021-04-13 12:38:25 +0000";
layers = (
{
anchors = (
{
name = bottom;
position = "{250, 0}";
},
{
name = top;
position = "{250, 730}";
}
);
layerId = "D65C9A1E-0FCA-4B2D-8EDF-9F36CA9182A1";
paths = (
{
closed = 1;
nodes = (
"132 0 LINE",
"248 605 LINE",
"252 605 LINE",
"368 0 LINE",
"405 0 LINE",
"485 730 LINE",
"464 730 LINE",
"388 25 LINE",
"384 25 LINE",
"268 630 LINE",
"232 630 LINE",
"116 25 LINE",
"112 25 LINE",
"36 730 LINE",
"15 730 LINE",
"95 0 LINE"
);
}
);
width = 500;
},
{
anchors = (
{
name = bottom;
position = "{250, 0}";
},
{
name = top;
position = "{250, 730}";
}
);
layerId = "E27A6A66-A1F8-4E1B-8224-7C0FE77551F2";
paths = (
{
closed = 1;
nodes = (
"187 0 LINE",
"248 463 LINE",
"252 463 LINE",
"313 0 LINE",
"425 0 LINE",
"490 730 LINE",
"408 730 LINE",
"368 138 LINE",
"364 138 LINE",
"302 630 LINE",
"198 630 LINE",
"136 138 LINE",
"132 138 LINE",
"92 730 LINE",
"10 730 LINE",
"75 0 LINE"
);
}
);
vertWidth = 1000;
width = 500;
},
{
anchors = (
{
name = bottom;
position = "{250, 0}";
},
{
name = top;
position = "{250, 730}";
}
);
layerId = "FC9CFCDA-9E80-4E73-BA51-8504D15957FA";
paths = (
{
closed = 1;
nodes = (
"220 0 LINE",
"248 300 LINE",
"252 300 LINE",
"280 0 LINE",
"445 0 LINE",
"495 730 LINE",
"355 730 LINE",
"347 230 LINE",
"343 230 LINE",
"295 630 LINE",
"205 630 LINE",
"157 230 LINE",
"153 230 LINE",
"145 730 LINE",
"5 730 LINE",
"55 0 LINE"
);
}
);
vertWidth = 1000;
width = 500;
}
);
leftKerningGroup = W;
rightKerningGroup = W;
rightMetricsKey = "=|";
unicode = 0057;
},
{
color = 10;
glyphname = X;
lastChange = "2021-04-10 02:32:56 +0000";
layers = (
{
layerId = "D65C9A1E-0FCA-4B2D-8EDF-9F36CA9182A1";
paths = (
{
closed = 1;
nodes = (
"77 0 LINE",
"248 345 LINE",
"252 345 LINE",
"423 0 LINE",
"445 0 LINE",
"261 370 LINE",
"441 730 LINE",
"419 730 LINE",
"252 395 LINE",
"248 395 LINE",
"81 730 LINE",
"59 730 LINE",
"239 370 LINE",
"55 0 LINE"
);
}
);
width = 500;
},
{
layerId = "E27A6A66-A1F8-4E1B-8224-7C0FE77551F2";
paths = (
{
closed = 1;
nodes = (
"126 0 LINE",
"248 313 LINE",
"252 313 LINE",
"374 0 LINE",
"460 0 LINE",
"307 370 LINE",
"457 730 LINE",
"372 730 LINE",
"252 428 LINE",
"248 428 LINE",
"128 730 LINE",
"43 730 LINE",
"193 370 LINE",
"40 0 LINE"
);
}
);
vertWidth = 1000;
width = 500;
},
{
layerId = "FC9CFCDA-9E80-4E73-BA51-8504D15957FA";
paths = (
{
closed = 1;
nodes = (
"175 0 LINE",
"248 280 LINE",
"252 280 LINE",
"325 0 LINE",
"475 0 LINE",
"350 370 LINE",
"473 730 LINE",
"325 730 LINE",
"252 460 LINE",
"248 460 LINE",
"175 730 LINE",
"27 730 LINE",
"150 370 LINE",
"25 0 LINE"
);
}
);
vertWidth = 1000;
width = 500;
}
);
leftKerningGroup = X;
rightKerningGroup = X;
rightMetricsKey = "=|";
unicode = 0058;
},
{
color = 10;
glyphname = Y;
lastChange = "2021-04-13 12:39:20 +0000";
layers = (
{
anchors = (
{
name = bottom;
position = "{250, 0}";
},
{
name = top;
position = "{250, 730}";
},
{
name = topleft;
position = "{20, 730}";
}
);
layerId = "D65C9A1E-0FCA-4B2D-8EDF-9F36CA9182A1";
paths = (
{
closed = 1;
nodes = (
"260 0 LINE",
"260 294 LINE",
"475 730 LINE",
"453 730 LINE",
"252 322 LINE",
"248 322 LINE",
"47 730 LINE",
"25 730 LINE",
"240 294 LINE",
"240 0 LINE"
);
}
);
width = 500;
},
{
anchors = (
{
name = bottom;
position = "{250, 0}";
},
{
name = top;
position = "{250, 730}";
},
{
name = topleft;
position = "{20, 730}";
}
);
layerId = "E27A6A66-A1F8-4E1B-8224-7C0FE77551F2";
paths = (
{
closed = 1;
nodes = (
"291 0 LINE",
"291 285 LINE",
"485 730 LINE",
"402 730 LINE",
"252 371 LINE",
"248 371 LINE",
"98 730 LINE",
"15 730 LINE",
"209 285 LINE",
"209 0 LINE"
);
}
);
vertWidth = 1000;
width = 500;
},
{
anchors = (
{
name = bottom;
position = "{250, 0}";
},
{
name = top;
position = "{250, 730}";
},
{
name = topleft;
position = "{20, 730}";
}
);
layerId = "FC9CFCDA-9E80-4E73-BA51-8504D15957FA";
paths = (
{
closed = 1;
nodes = (
"322 0 LINE",
"322 275 LINE",
"495 730 LINE",
"351 730 LINE",
"252 420 LINE",
"248 420 LINE",
"149 730 LINE",
"5 730 LINE",
"178 275 LINE",
"178 0 LINE"
);
}
);
vertWidth = 1000;
width = 500;
}
);
leftKerningGroup = Y;
rightKerningGroup = Y;
rightMetricsKey = "=|";
unicode = 0059;
},
{
color = 10;
glyphname = Z;
lastChange = "2021-04-13 02:01:12 +0000";
layers = (
{
anchors = (
{
name = bottom;
position = "{250, 0}";
},
{
name = center;
position = "{250, 365}";
},
{
name = top;
position = "{250, 730}";
}
);
layerId = "D65C9A1E-0FCA-4B2D-8EDF-9F36CA9182A1";
paths = (
{
closed = 1;
nodes = (
"420 0 LINE",
"420 20 LINE",
"103 20 LINE",
"103 24 LINE",
"420 710 LINE",
"420 730 LINE",
"80 730 LINE",
"80 710 LINE",
"397 710 LINE",
"397 706 LINE",
"80 20 LINE",
"80 0 LINE"
);
}
);
width = 500;
},
{
anchors = (
{
name = bottom;
position = "{250, 0}";
},
{
name = center;
position = "{250, 365}";
},
{
name = top;
position = "{250, 730}";
}
);
layerId = "E27A6A66-A1F8-4E1B-8224-7C0FE77551F2";
paths = (
{
closed = 1;
nodes = (
"430 0 LINE",
"430 70 LINE",
"160 70 LINE",
"160 74 LINE",
"430 660 LINE",
"430 730 LINE",
"70 730 LINE",
"70 660 LINE",
"340 660 LINE",
"340 656 LINE",
"70 70 LINE",
"70 0 LINE"
);
}
);
vertWidth = 1000;
width = 500;
},
{
anchors = (
{
name = bottom;
position = "{250, 0}";
},
{
name = center;
position = "{250, 365}";
},
{
name = top;
position = "{250, 730}";
}
);
layerId = "FC9CFCDA-9E80-4E73-BA51-8504D15957FA";
paths = (
{
closed = 1;
nodes = (
"440 0 LINE",
"440 120 LINE",
"218 120 LINE",
"218 124 LINE",
"440 610 LINE",
"440 730 LINE",
"60 730 LINE",
"60 610 LINE",
"282 610 LINE",
"282 606 LINE",
"60 120 LINE",
"60 0 LINE"
);
}
);
vertWidth = 1000;
width = 500;
}
);
leftKerningGroup = Z;
rightKerningGroup = Z;
rightMetricsKey = "=|";
unicode = 005A;
},
{
color = 9;
glyphname = M.001;
lastChange = "2021-04-05 02:56:35 +0000";
layers = (
{
layerId = "D65C9A1E-0FCA-4B2D-8EDF-9F36CA9182A1";
paths = (
{
closed = 1;
nodes = (
"70 0 LINE",
"89 695 LINE",
"93 695 LINE",
"234 140 LINE",
"266 140 LINE",
"407 695 LINE",
"411 695 LINE",
"430 0 LINE",
"450 0 LINE",
"430 730 LINE",
"396 730 LINE",
"252 165 LINE",
"248 165 LINE",
"104 730 LINE",
"70 730 LINE",
"50 0 LINE"
);
}
);
width = 500;
},
{
layerId = "E27A6A66-A1F8-4E1B-8224-7C0FE77551F2";
paths = (
{
closed = 1;
nodes = (
"113 0 LINE",
"121 598 LINE",
"125 598 LINE",
"205 140 LINE",
"295 140 LINE",
"375 598 LINE",
"379 598 LINE",
"387 0 LINE",
"465 0 LINE",
"445 730 LINE",
"329 730 LINE",
"252 289 LINE",
"248 289 LINE",
"171 730 LINE",
"55 730 LINE",
"35 0 LINE"
);
}
);
vertWidth = 1000;
width = 500;
},
{
layerId = "FC9CFCDA-9E80-4E73-BA51-8504D15957FA";
paths = (
{
closed = 1;
nodes = (
"155 0 LINE",
"153 500 LINE",
"157 500 LINE",
"205 140 LINE",
"295 140 LINE",
"343 500 LINE",
"347 500 LINE",
"345 0 LINE",
"480 0 LINE",
"460 730 LINE",
"280 730 LINE",
"252 430 LINE",
"248 430 LINE",
"220 730 LINE",
"40 730 LINE",
"20 0 LINE"
);
}
);
vertWidth = 1000;
width = 500;
}
);
leftKerningGroup = H;
rightKerningGroup = H;
},
{
color = 9;
glyphname = O.001;
lastChange = "2021-04-07 11:26:21 +0000";
layers = (
{
layerId = "D65C9A1E-0FCA-4B2D-8EDF-9F36CA9182A1";
paths = (
{
closed = 1;
nodes = (
"384 -10 OFFCURVE",
"445 98 OFFCURVE",
"445 335 CURVE SMOOTH",
"445 395 LINE SMOOTH",
"445 632 OFFCURVE",
"384 740 OFFCURVE",
"250 740 CURVE SMOOTH",
"116 740 OFFCURVE",
"55 632 OFFCURVE",
"55 395 CURVE SMOOTH",
"55 335 LINE SMOOTH",
"55 98 OFFCURVE",
"116 -10 OFFCURVE",
"250 -10 CURVE SMOOTH"
);
},
{
closed = 1;
nodes = (
"129 10 OFFCURVE",
"75 110 OFFCURVE",
"75 335 CURVE SMOOTH",
"75 395 LINE SMOOTH",
"75 620 OFFCURVE",
"129 720 OFFCURVE",
"250 720 CURVE SMOOTH",
"371 720 OFFCURVE",
"425 620 OFFCURVE",
"425 395 CURVE SMOOTH",
"425 335 LINE SMOOTH",
"425 110 OFFCURVE",
"371 10 OFFCURVE",
"250 10 CURVE SMOOTH"
);
}
);
width = 500;
},
{
layerId = "E27A6A66-A1F8-4E1B-8224-7C0FE77551F2";
paths = (
{
closed = 1;
nodes = (
"394 -10 OFFCURVE",
"460 98 OFFCURVE",
"460 335 CURVE SMOOTH",
"460 395 LINE SMOOTH",
"460 632 OFFCURVE",
"394 740 OFFCURVE",
"250 740 CURVE SMOOTH",
"106 740 OFFCURVE",
"40 632 OFFCURVE",
"40 395 CURVE SMOOTH",
"40 335 LINE SMOOTH",
"40 98 OFFCURVE",
"106 -10 OFFCURVE",
"250 -10 CURVE SMOOTH"
);
},
{
closed = 1;
nodes = (
"160 62 OFFCURVE",
"122 144 OFFCURVE",
"122 340 CURVE SMOOTH",
"122 390 LINE SMOOTH",
"122 586 OFFCURVE",
"160 668 OFFCURVE",
"250 668 CURVE SMOOTH",
"340 668 OFFCURVE",
"378 586 OFFCURVE",
"378 390 CURVE SMOOTH",
"378 340 LINE SMOOTH",
"378 144 OFFCURVE",
"340 62 OFFCURVE",
"250 62 CURVE SMOOTH"
);
}
);
vertWidth = 1000;
width = 500;
},
{
layerId = "FC9CFCDA-9E80-4E73-BA51-8504D15957FA";
paths = (
{
closed = 1;
nodes = (
"405 -10 OFFCURVE",
"475 98 OFFCURVE",
"475 335 CURVE SMOOTH",
"475 395 LINE SMOOTH",
"475 632 OFFCURVE",
"405 740 OFFCURVE",
"250 740 CURVE SMOOTH",
"95 740 OFFCURVE",
"25 632 OFFCURVE",
"25 395 CURVE SMOOTH",
"25 335 LINE SMOOTH",
"25 98 OFFCURVE",
"95 -10 OFFCURVE",
"250 -10 CURVE SMOOTH"
);
},
{
closed = 1;
nodes = (
"191 114 OFFCURVE",
"169 177 OFFCURVE",
"169 345 CURVE SMOOTH",
"169 385 LINE SMOOTH",
"169 553 OFFCURVE",
"191 616 OFFCURVE",
"250 616 CURVE SMOOTH",
"309 616 OFFCURVE",
"331 553 OFFCURVE",
"331 385 CURVE SMOOTH",
"331 345 LINE SMOOTH",
"331 177 OFFCURVE",
"309 114 OFFCURVE",
"250 114 CURVE SMOOTH"
);
}
);
vertWidth = 1000;
width = 500;
}
);
leftKerningGroup = O;
rightKerningGroup = O;
},
{
color = 9;
glyphname = Q.001;
lastChange = "2021-04-07 11:41:37 +0000";
layers = (
{
layerId = "E27A6A66-A1F8-4E1B-8224-7C0FE77551F2";
paths = (
{
closed = 1;
nodes = (
"460 -150 LINE",
"460 -59 OFFCURVE",
"426 2 OFFCURVE",
"364 25 CURVE",
"364 29 LINE",
"429 74 OFFCURVE",
"460 171 OFFCURVE",
"460 335 CURVE SMOOTH",
"460 395 LINE SMOOTH",
"460 632 OFFCURVE",
"394 740 OFFCURVE",
"250 740 CURVE SMOOTH",
"106 740 OFFCURVE",
"40 632 OFFCURVE",
"40 395 CURVE SMOOTH",
"40 335 LINE SMOOTH",
"40 98 OFFCURVE",
"106 -10 OFFCURVE",
"250 -10 CURVE SMOOTH",
"339 -10 OFFCURVE",
"378 -52 OFFCURVE",
"378 -150 CURVE"
);
},
{
closed = 1;
nodes = (
"160 62 OFFCURVE",
"122 144 OFFCURVE",
"122 340 CURVE SMOOTH",
"122 390 LINE SMOOTH",
"122 586 OFFCURVE",
"160 668 OFFCURVE",
"250 668 CURVE SMOOTH",
"340 668 OFFCURVE",
"378 586 OFFCURVE",
"378 390 CURVE SMOOTH",
"378 340 LINE SMOOTH",
"378 144 OFFCURVE",
"340 62 OFFCURVE",
"250 62 CURVE SMOOTH"
);
}
);
vertWidth = 1000;
width = 500;
},
{
layerId = "FC9CFCDA-9E80-4E73-BA51-8504D15957FA";
paths = (
{
closed = 1;
nodes = (
"495 -150 LINE",
"495 -40 OFFCURVE",
"466 26 OFFCURVE",
"407 51 CURVE",
"407 55 LINE",
"453 110 OFFCURVE",
"475 201 OFFCURVE",
"475 335 CURVE SMOOTH",
"475 395 LINE SMOOTH",
"475 632 OFFCURVE",
"405 740 OFFCURVE",
"250 740 CURVE SMOOTH",
"95 740 OFFCURVE",
"25 632 OFFCURVE",
"25 395 CURVE SMOOTH",
"25 335 LINE SMOOTH",
"25 98 OFFCURVE",
"95 -10 OFFCURVE",
"250 -10 CURVE SMOOTH",
"330 -10 OFFCURVE",
"350 -38 OFFCURVE",
"350 -150 CURVE"
);
},
{
closed = 1;
nodes = (
"191 114 OFFCURVE",
"169 177 OFFCURVE",
"169 345 CURVE SMOOTH",
"169 385 LINE SMOOTH",
"169 553 OFFCURVE",
"191 616 OFFCURVE",
"250 616 CURVE SMOOTH",
"309 616 OFFCURVE",
"331 553 OFFCURVE",
"331 385 CURVE SMOOTH",
"331 345 LINE SMOOTH",
"331 177 OFFCURVE",
"309 114 OFFCURVE",
"250 114 CURVE SMOOTH"
);
}
);
vertWidth = 1000;
width = 500;
},
{
layerId = "D65C9A1E-0FCA-4B2D-8EDF-9F36CA9182A1";
paths = (
{
closed = 1;
nodes = (
"425 -150 LINE",
"425 -77 OFFCURVE",
"386 -23 OFFCURVE",
"321 -1 CURVE",
"321 3 LINE",
"406 38 OFFCURVE",
"445 145 OFFCURVE",
"445 335 CURVE SMOOTH",
"445 395 LINE SMOOTH",
"445 632 OFFCURVE",
"384 740 OFFCURVE",
"250 740 CURVE SMOOTH",
"116 740 OFFCURVE",
"55 632 OFFCURVE",
"55 395 CURVE SMOOTH",
"55 335 LINE SMOOTH",
"55 98 OFFCURVE",
"116 -10 OFFCURVE",
"250 -10 CURVE SMOOTH",
"345 -10 OFFCURVE",
"405 -64 OFFCURVE",
"405 -150 CURVE"
);
},
{
closed = 1;
nodes = (
"129 10 OFFCURVE",
"75 110 OFFCURVE",
"75 335 CURVE SMOOTH",
"75 395 LINE SMOOTH",
"75 620 OFFCURVE",
"129 720 OFFCURVE",
"250 720 CURVE SMOOTH",
"371 720 OFFCURVE",
"425 620 OFFCURVE",
"425 395 CURVE SMOOTH",
"425 335 LINE SMOOTH",
"425 110 OFFCURVE",
"371 10 OFFCURVE",
"250 10 CURVE SMOOTH"
);
}
);
width = 500;
}
);
leftKerningGroup = O;
rightKerningGroup = O;
},
{
color = 9;
glyphname = S.001;
lastChange = "2021-04-06 09:57:38 +0000";
layers = (
{
layerId = "D65C9A1E-0FCA-4B2D-8EDF-9F36CA9182A1";
paths = (
{
closed = 1;
nodes = (
"369 -10 OFFCURVE",
"435 54 OFFCURVE",
"435 173 CURVE SMOOTH",
"435 265 OFFCURVE",
"395 322 OFFCURVE",
"249 394 CURVE SMOOTH",
"127 455 OFFCURVE",
"85 502 OFFCURVE",
"85 579 CURVE SMOOTH",
"85 669 OFFCURVE",
"142 720 OFFCURVE",
"245 720 CURVE SMOOTH",
"293 720 OFFCURVE",
"350 709 OFFCURVE",
"410 687 CURVE",
"410 708 LINE",
"352 729 OFFCURVE",
"294 740 OFFCURVE",
"245 740 CURVE SMOOTH",
"132 740 OFFCURVE",
"65 681 OFFCURVE",
"65 579 CURVE SMOOTH",
"65 494 OFFCURVE",
"112 440 OFFCURVE",
"240 376 CURVE SMOOTH",
"373 310 OFFCURVE",
"415 261 OFFCURVE",
"415 173 CURVE SMOOTH",
"415 65 OFFCURVE",
"358 10 OFFCURVE",
"246 10 CURVE SMOOTH",
"188 10 OFFCURVE",
"131 24 OFFCURVE",
"70 55 CURVE",
"70 33 LINE",
"131 4 OFFCURVE",
"188 -10 OFFCURVE",
"246 -10 CURVE SMOOTH"
);
}
);
width = 500;
},
{
background = {
paths = (
{
closed = 1;
nodes = (
"372 -10 OFFCURVE",
"445 58 OFFCURVE",
"445 187 CURVE SMOOTH",
"445 283 OFFCURVE",
"403 343 OFFCURVE",
"271 412 CURVE SMOOTH",
"173 464 OFFCURVE",
"137 502 OFFCURVE",
"137 563 CURVE SMOOTH",
"137 632 OFFCURVE",
"181 668 OFFCURVE",
"263 668 CURVE SMOOTH",
"309 668 OFFCURVE",
"362 657 OFFCURVE",
"418 632 CURVE",
"418 710 LINE",
"363 730 OFFCURVE",
"307 740 OFFCURVE",
"257 740 CURVE SMOOTH",
"127 740 OFFCURVE",
"55 676 OFFCURVE",
"55 559 CURVE SMOOTH",
"55 467 OFFCURVE",
"100 410 OFFCURVE",
"221 347 CURVE SMOOTH",
"327 293 OFFCURVE",
"363 252 OFFCURVE",
"363 183 CURVE SMOOTH",
"363 102 OFFCURVE",
"320 62 OFFCURVE",
"233 62 CURVE SMOOTH",
"178 62 OFFCURVE",
"119 79 OFFCURVE",
"63 111 CURVE",
"63 29 LINE",
"118 4 OFFCURVE",
"175 -10 OFFCURVE",
"234 -10 CURVE SMOOTH"
);
}
);
};
layerId = "E27A6A66-A1F8-4E1B-8224-7C0FE77551F2";
paths = (
{
closed = 1;
nodes = (
"372 -10 OFFCURVE",
"445 58 OFFCURVE",
"445 187 CURVE SMOOTH",
"445 287 OFFCURVE",
"401 344 OFFCURVE",
"271 412 CURVE SMOOTH",
"173 464 OFFCURVE",
"137 504 OFFCURVE",
"137 563 CURVE SMOOTH",
"137 630 OFFCURVE",
"183 668 OFFCURVE",
"263 668 CURVE SMOOTH",
"310 668 OFFCURVE",
"367 655 OFFCURVE",
"418 632 CURVE",
"418 710 LINE",
"363 730 OFFCURVE",
"310 740 OFFCURVE",
"257 740 CURVE SMOOTH",
"124 740 OFFCURVE",
"55 678 OFFCURVE",
"55 559 CURVE SMOOTH",
"55 465 OFFCURVE",
"98 410 OFFCURVE",
"221 347 CURVE SMOOTH",
"327 292 OFFCURVE",
"363 250 OFFCURVE",
"363 183 CURVE SMOOTH",
"363 106 OFFCURVE",
"316 62 OFFCURVE",
"233 62 CURVE SMOOTH",
"180 62 OFFCURVE",
"117 80 OFFCURVE",
"63 111 CURVE",
"63 29 LINE",
"121 2 OFFCURVE",
"175 -10 OFFCURVE",
"234 -10 CURVE SMOOTH"
);
}
);
vertWidth = 1000;
width = 500;
},
{
layerId = "FC9CFCDA-9E80-4E73-BA51-8504D15957FA";
paths = (
{
closed = 1;
nodes = (
"375 -10 OFFCURVE",
"455 62 OFFCURVE",
"455 200 CURVE SMOOTH",
"455 301 OFFCURVE",
"411 364 OFFCURVE",
"293 430 CURVE SMOOTH",
"218 472 OFFCURVE",
"189 501 OFFCURVE",
"189 546 CURVE SMOOTH",
"189 592 OFFCURVE",
"219 614 OFFCURVE",
"280 614 CURVE SMOOTH",
"325 614 OFFCURVE",
"373 602 OFFCURVE",
"425 576 CURVE",
"425 711 LINE",
"373 730 OFFCURVE",
"320 740 OFFCURVE",
"269 740 CURVE SMOOTH",
"122 740 OFFCURVE",
"45 671 OFFCURVE",
"45 538 CURVE SMOOTH",
"45 440 OFFCURVE",
"88 379 OFFCURVE",
"202 317 CURVE SMOOTH",
"281 275 OFFCURVE",
"311 243 OFFCURVE",
"311 192 CURVE SMOOTH",
"311 141 OFFCURVE",
"281 116 OFFCURVE",
"220 116 CURVE SMOOTH",
"167 116 OFFCURVE",
"106 135 OFFCURVE",
"55 167 CURVE",
"55 27 LINE",
"104 3 OFFCURVE",
"161 -10 OFFCURVE",
"221 -10 CURVE SMOOTH"
);
}
);
vertWidth = 1000;
width = 500;
}
);
leftKerningGroup = S;
rightKerningGroup = S;
},
{
color = 9;
glyphname = W.001;
lastChange = "2021-04-08 10:59:13 +0000";
layers = (
{
layerId = "D65C9A1E-0FCA-4B2D-8EDF-9F36CA9182A1";
paths = (
{
closed = 1;
nodes = (
"132 0 LINE",
"248 605 LINE",
"252 605 LINE",
"368 0 LINE",
"405 0 LINE",
"475 730 LINE",
"455 730 LINE",
"388 25 LINE",
"384 25 LINE",
"268 630 LINE",
"232 630 LINE",
"116 25 LINE",
"112 25 LINE",
"45 730 LINE",
"25 730 LINE",
"95 0 LINE"
);
}
);
width = 500;
},
{
layerId = "E27A6A66-A1F8-4E1B-8224-7C0FE77551F2";
paths = (
{
closed = 1;
nodes = (
"187 0 LINE",
"248 463 LINE",
"252 463 LINE",
"313 0 LINE",
"425 0 LINE",
"485 730 LINE",
"403 730 LINE",
"368 138 LINE",
"364 138 LINE",
"302 630 LINE",
"198 630 LINE",
"136 138 LINE",
"132 138 LINE",
"97 730 LINE",
"15 730 LINE",
"75 0 LINE"
);
}
);
vertWidth = 1000;
width = 500;
},
{
layerId = "FC9CFCDA-9E80-4E73-BA51-8504D15957FA";
paths = (
{
closed = 1;
nodes = (
"220 0 LINE",
"248 300 LINE",
"252 300 LINE",
"280 0 LINE",
"445 0 LINE",
"495 730 LINE",
"355 730 LINE",
"347 230 LINE",
"343 230 LINE",
"295 630 LINE",
"205 630 LINE",
"157 230 LINE",
"153 230 LINE",
"145 730 LINE",
"5 730 LINE",
"55 0 LINE"
);
}
);
vertWidth = 1000;
width = 500;
}
);
leftKerningGroup = W;
rightKerningGroup = W;
},
{
color = 9;
glyphname = S.002;
lastChange = "2021-04-06 13:38:18 +0000";
layers = (
{
layerId = "D65C9A1E-0FCA-4B2D-8EDF-9F36CA9182A1";
paths = (
{
closed = 1;
nodes = (
"356 -10 OFFCURVE",
"435 58 OFFCURVE",
"435 173 CURVE SMOOTH",
"435 301 OFFCURVE",
"338 350 OFFCURVE",
"249 395 CURVE SMOOTH",
"163 439 OFFCURVE",
"85 479 OFFCURVE",
"85 580 CURVE SMOOTH",
"85 670 OFFCURVE",
"148 720 OFFCURVE",
"263 720 CURVE SMOOTH",
"308 720 OFFCURVE",
"359 712 OFFCURVE",
"410 698 CURVE",
"410 720 LINE",
"359 733 OFFCURVE",
"308 740 OFFCURVE",
"263 740 CURVE SMOOTH",
"137 740 OFFCURVE",
"65 682 OFFCURVE",
"65 580 CURVE SMOOTH",
"65 467 OFFCURVE",
"154 421 OFFCURVE",
"240 377 CURVE SMOOTH",
"329 332 OFFCURVE",
"415 288 OFFCURVE",
"415 173 CURVE SMOOTH",
"415 70 OFFCURVE",
"346 10 OFFCURVE",
"225 10 CURVE SMOOTH",
"175 10 OFFCURVE",
"125 20 OFFCURVE",
"70 43 CURVE",
"70 21 LINE",
"124 0 OFFCURVE",
"175 -10 OFFCURVE",
"225 -10 CURVE SMOOTH"
);
}
);
width = 500;
},
{
layerId = "FC9CFCDA-9E80-4E73-BA51-8504D15957FA";
paths = (
{
closed = 1;
nodes = (
"372 -10 OFFCURVE",
"455 62 OFFCURVE",
"455 200 CURVE SMOOTH",
"455 301 OFFCURVE",
"411 364 OFFCURVE",
"293 430 CURVE SMOOTH",
"218 472 OFFCURVE",
"189 501 OFFCURVE",
"189 546 CURVE SMOOTH",
"189 593 OFFCURVE",
"221 614 OFFCURVE",
"293 614 CURVE SMOOTH",
"335 614 OFFCURVE",
"379 607 OFFCURVE",
"425 593 CURVE",
"425 725 LINE",
"379 735 OFFCURVE",
"333 740 OFFCURVE",
"287 740 CURVE SMOOTH",
"126 740 OFFCURVE",
"45 672 OFFCURVE",
"45 538 CURVE SMOOTH",
"45 440 OFFCURVE",
"88 379 OFFCURVE",
"202 317 CURVE SMOOTH",
"281 275 OFFCURVE",
"311 243 OFFCURVE",
"311 192 CURVE SMOOTH",
"311 140 OFFCURVE",
"279 116 OFFCURVE",
"210 116 CURVE SMOOTH",
"160 116 OFFCURVE",
"103 129 OFFCURVE",
"55 149 CURVE",
"55 15 LINE",
"101 -1 OFFCURVE",
"154 -10 OFFCURVE",
"211 -10 CURVE SMOOTH"
);
}
);
vertWidth = 1000;
width = 500;
},
{
layerId = "E27A6A66-A1F8-4E1B-8224-7C0FE77551F2";
paths = (
{
closed = 1;
nodes = (
"364 -10 OFFCURVE",
"445 60 OFFCURVE",
"445 187 CURVE SMOOTH",
"445 301 OFFCURVE",
"375 357 OFFCURVE",
"271 413 CURVE SMOOTH",
"191 456 OFFCURVE",
"137 490 OFFCURVE",
"137 563 CURVE SMOOTH",
"137 633 OFFCURVE",
"185 668 OFFCURVE",
"278 668 CURVE SMOOTH",
"322 668 OFFCURVE",
"369 661 OFFCURVE",
"418 647 CURVE",
"418 723 LINE",
"369 734 OFFCURVE",
"321 740 OFFCURVE",
"275 740 CURVE SMOOTH",
"132 740 OFFCURVE",
"55 677 OFFCURVE",
"55 559 CURVE SMOOTH",
"55 454 OFFCURVE",
"121 400 OFFCURVE",
"221 347 CURVE SMOOTH",
"305 304 OFFCURVE",
"363 266 OFFCURVE",
"363 183 CURVE SMOOTH",
"363 104 OFFCURVE",
"313 62 OFFCURVE",
"218 62 CURVE SMOOTH",
"168 62 OFFCURVE",
"114 74 OFFCURVE",
"63 95 CURVE",
"63 18 LINE",
"113 -1 OFFCURVE",
"165 -10 OFFCURVE",
"218 -10 CURVE SMOOTH"
);
}
);
vertWidth = 1000;
width = 500;
}
);
leftKerningGroup = S;
rightKerningGroup = S;
},
{
color = 10;
glyphname = a;
lastChange = "2021-04-13 12:47:07 +0000";
layers = (
{
anchors = (
{
name = bottom;
position = "{250, 0}";
},
{
name = ogonek;
position = "{250, 0}";
},
{
name = top;
position = "{250, 520}";
}
);
layerId = "D65C9A1E-0FCA-4B2D-8EDF-9F36CA9182A1";
paths = (
{
closed = 1;
nodes = (
"305 -10 OFFCURVE",
"367 3 OFFCURVE",
"404 22 CURVE",
"404 340 LINE SMOOTH",
"404 486 OFFCURVE",
"364 530 OFFCURVE",
"234 530 CURVE SMOOTH",
"172 530 OFFCURVE",
"123 520 OFFCURVE",
"79 498 CURVE",
"79 475 LINE",
"122 500 OFFCURVE",
"170 510 OFFCURVE",
"234 510 CURVE SMOOTH",
"353 510 OFFCURVE",
"384 475 OFFCURVE",
"384 340 CURVE SMOOTH",
"384 27 LINE",
"395 40 LINE",
"361 22 OFFCURVE",
"302 10 OFFCURVE",
"253 10 CURVE SMOOTH",
"148 10 OFFCURVE",
"84 66 OFFCURVE",
"84 153 CURVE SMOOTH",
"84 247 OFFCURVE",
"161 294 OFFCURVE",
"321 294 CURVE SMOOTH",
"394 294 LINE",
"394 314 LINE",
"321 314 LINE SMOOTH",
"150 314 OFFCURVE",
"64 260 OFFCURVE",
"64 153 CURVE SMOOTH",
"64 54 OFFCURVE",
"138 -10 OFFCURVE",
"253 -10 CURVE SMOOTH"
);
}
);
width = 500;
},
{
anchors = (
{
name = bottom;
position = "{250, 0}";
},
{
name = ogonek;
position = "{250, 0}";
},
{
name = top;
position = "{250, 520}";
}
);
layerId = "E27A6A66-A1F8-4E1B-8224-7C0FE77551F2";
paths = (
{
closed = 1;
nodes = (
"319 -10 OFFCURVE",
"381 3 OFFCURVE",
"422 22 CURVE",
"422 340 LINE SMOOTH",
"422 486 OFFCURVE",
"378 530 OFFCURVE",
"235 530 CURVE SMOOTH",
"170 530 OFFCURVE",
"119 521 OFFCURVE",
"72 501 CURVE",
"72 432 LINE",
"132 455 OFFCURVE",
"175 462 OFFCURVE",
"228 462 CURVE SMOOTH",
"324 462 OFFCURVE",
"345 439 OFFCURVE",
"345 338 CURVE SMOOTH",
"345 43 LINE",
"368 86 LINE",
"340 68 OFFCURVE",
"298 57 OFFCURVE",
"257 57 CURVE SMOOTH",
"178 57 OFFCURVE",
"129 97 OFFCURVE",
"129 161 CURVE SMOOTH",
"129 229 OFFCURVE",
"183 261 OFFCURVE",
"297 261 CURVE SMOOTH",
"384 261 LINE",
"384 328 LINE",
"296 328 LINE SMOOTH",
"135 328 OFFCURVE",
"52 271 OFFCURVE",
"52 160 CURVE SMOOTH",
"52 54 OFFCURVE",
"130 -10 OFFCURVE",
"260 -10 CURVE SMOOTH"
);
}
);
vertWidth = 1000;
width = 500;
},
{
anchors = (
{
name = bottom;
position = "{250, 0}";
},
{
name = ogonek;
position = "{250, 0}";
},
{
name = top;
position = "{250, 520}";
}
);
layerId = "FC9CFCDA-9E80-4E73-BA51-8504D15957FA";
paths = (
{
closed = 1;
nodes = (
"329 -10 OFFCURVE",
"396 2 OFFCURVE",
"440 22 CURVE",
"440 340 LINE SMOOTH",
"440 486 OFFCURVE",
"392 530 OFFCURVE",
"235 530 CURVE SMOOTH",
"168 530 OFFCURVE",
"114 522 OFFCURVE",
"65 504 CURVE",
"65 388 LINE",
"141 409 OFFCURVE",
"171 414 OFFCURVE",
"221 414 CURVE SMOOTH",
"294 414 OFFCURVE",
"306 403 OFFCURVE",
"306 336 CURVE SMOOTH",
"306 58 LINE",
"340 131 LINE",
"317 112 OFFCURVE",
"293 104 OFFCURVE",
"260 104 CURVE SMOOTH",
"205 104 OFFCURVE",
"174 127 OFFCURVE",
"174 168 CURVE SMOOTH",
"174 210 OFFCURVE",
"206 230 OFFCURVE",
"272 230 CURVE SMOOTH",
"373 230 LINE",
"373 340 LINE",
"270 340 LINE SMOOTH",
"121 340 OFFCURVE",
"40 279 OFFCURVE",
"40 167 CURVE SMOOTH",
"40 54 OFFCURVE",
"122 -10 OFFCURVE",
"266 -10 CURVE SMOOTH"
);
}
);
vertWidth = 1000;
width = 500;
}
);
leftKerningGroup = a;
rightKerningGroup = h;
unicode = 0061;
},
{
color = 11;
glyphname = ae;
lastChange = "2021-04-14 01:37:18 +0000";
layers = (
{
anchors = (
{
name = bottom;
position = "{250, 0}";
},
{
name = top;
position = "{250, 520}";
}
);
layerId = "D65C9A1E-0FCA-4B2D-8EDF-9F36CA9182A1";
paths = (
{
closed = 1;
nodes = (
"207 -10 OFFCURVE",
"243 22 OFFCURVE",
"256 84 CURVE",
"260 84 LINE",
"281 18 OFFCURVE",
"317 -10 OFFCURVE",
"381 -10 CURVE SMOOTH",
"408 -10 OFFCURVE",
"438 -5 OFFCURVE",
"462 5 CURVE",
"462 27 LINE",
"439 16 OFFCURVE",
"408 10 OFFCURVE",
"381 10 CURVE SMOOTH",
"294 10 OFFCURVE",
"262 73 OFFCURVE",
"262 240 CURVE SMOOTH",
"262 280 LINE SMOOTH",
"262 453 OFFCURVE",
"287 510 OFFCURVE",
"361 510 CURVE SMOOTH",
"435 510 OFFCURVE",
"460 453 OFFCURVE",
"460 280 CURVE SMOOTH",
"460 262 LINE",
"470 272 LINE",
"252 272 LINE",
"252 252 LINE",
"480 252 LINE",
"480 280 LINE SMOOTH",
"480 463 OFFCURVE",
"450 530 OFFCURVE",
"361 530 CURVE SMOOTH",
"306 530 OFFCURVE",
"274 503 OFFCURVE",
"257 441 CURVE",
"253 441 LINE",
"238 507 OFFCURVE",
"201 530 OFFCURVE",
"135 530 CURVE SMOOTH",
"92 530 OFFCURVE",
"58 520 OFFCURVE",
"30 500 CURVE",
"30 475 LINE",
"59 500 OFFCURVE",
"92 510 OFFCURVE",
"135 510 CURVE SMOOTH",
"216 510 OFFCURVE",
"242 475 OFFCURVE",
"242 340 CURVE SMOOTH",
"242 53 LINE",
"242 153 LINE",
"242 66 OFFCURVE",
"220 10 OFFCURVE",
"148 10 CURVE SMOOTH",
"79 10 OFFCURVE",
"40 62 OFFCURVE",
"40 153 CURVE SMOOTH",
"40 251 OFFCURVE",
"87 294 OFFCURVE",
"194 294 CURVE SMOOTH",
"252 294 LINE",
"252 314 LINE",
"194 314 LINE SMOOTH",
"76 314 OFFCURVE",
"20 263 OFFCURVE",
"20 153 CURVE SMOOTH",
"20 51 OFFCURVE",
"67 -10 OFFCURVE",
"148 -10 CURVE SMOOTH"
);
}
);
width = 500;
},
{
anchors = (
{
name = bottom;
position = "{250, 0}";
},
{
name = top;
position = "{250, 520}";
}
);
layerId = "E27A6A66-A1F8-4E1B-8224-7C0FE77551F2";
paths = (
{
closed = 1;
nodes = (
"212 -10 OFFCURVE",
"250 9 OFFCURVE",
"272 49 CURVE",
"276 49 LINE",
"297 9 OFFCURVE",
"330 -10 OFFCURVE",
"379.998 -10 CURVE SMOOTH",
"408 -10 OFFCURVE",
"440 -4 OFFCURVE",
"467 6 CURVE",
"467 75 LINE",
"439 63 OFFCURVE",
"414 58 OFFCURVE",
"386 58 CURVE SMOOTH",
"308 58 OFFCURVE",
"287 97 OFFCURVE",
"287 243 CURVE SMOOTH",
"287 277 LINE SMOOTH",
"287 415 OFFCURVE",
"304 462 OFFCURVE",
"353 462 CURVE SMOOTH",
"402 462 OFFCURVE",
"419 415 OFFCURVE",
"419 277 CURVE SMOOTH",
"419 268 LINE",
"430 291 LINE",
"268 291 LINE",
"268 226 LINE",
"484 226 LINE",
"484 280 LINE SMOOTH",
"484 458 OFFCURVE",
"447 530 OFFCURVE",
"357 530 CURVE SMOOTH",
"311 530 OFFCURVE",
"282 511 OFFCURVE",
"263 468 CURVE",
"259 468 LINE",
"240 512 OFFCURVE",
"207 530 OFFCURVE",
"143 530 CURVE SMOOTH",
"97 530 OFFCURVE",
"61 521 OFFCURVE",
"28.998 502.004 CURVE",
"29 431 LINE",
"69 454 OFFCURVE",
"96 462 OFFCURVE",
"135 462 CURVE SMOOTH",
"202 462 OFFCURVE",
"217 439 OFFCURVE",
"217 338 CURVE SMOOTH",
"217 55 LINE",
"224 97 LINE",
"213 71 OFFCURVE",
"195 57 OFFCURVE",
"165 57 CURVE SMOOTH",
"115 57 OFFCURVE",
"85 96 OFFCURVE",
"85 161 CURVE SMOOTH",
"85 230 OFFCURVE",
"118 261 OFFCURVE",
"191 261 CURVE SMOOTH",
"237 261 LINE",
"237 328 LINE",
"185 328 LINE SMOOTH",
"72 328 OFFCURVE",
"15 271 OFFCURVE",
"15 160 CURVE SMOOTH",
"15 52 OFFCURVE",
"68 -10 OFFCURVE",
"161 -10 CURVE SMOOTH"
);
}
);
vertWidth = 1000;
width = 500;
},
{
anchors = (
{
name = bottom;
position = "{250, 0}";
},
{
name = top;
position = "{250, 520}";
}
);
layerId = "FC9CFCDA-9E80-4E73-BA51-8504D15957FA";
paths = (
{
closed = 1;
nodes = (
"214 -10 OFFCURVE",
"257 -1 OFFCURVE",
"287 15 CURVE",
"291 15 LINE",
"313 -1 OFFCURVE",
"344 -10 OFFCURVE",
"379 -10 CURVE SMOOTH",
"408 -10 OFFCURVE",
"441 -4 OFFCURVE",
"471 6 CURVE",
"471 124 LINE",
"437 112 OFFCURVE",
"421 108 OFFCURVE",
"391 108 CURVE SMOOTH",
"323 108 OFFCURVE",
"312 127 OFFCURVE",
"312 246 CURVE SMOOTH",
"312 274 LINE SMOOTH",
"312 378 OFFCURVE",
"320 412 OFFCURVE",
"346 412 CURVE SMOOTH",
"372 412 OFFCURVE",
"380 378 OFFCURVE",
"380 274 CURVE",
"380 274 LINE",
"391 309 LINE",
"283 309 LINE",
"283 199 LINE",
"490 199 LINE",
"490 280 LINE SMOOTH",
"490 453 OFFCURVE",
"448 530 OFFCURVE",
"354 530 CURVE SMOOTH",
"318 530 OFFCURVE",
"289 518 OFFCURVE",
"268 495 CURVE",
"264 495 LINE",
"242 519 OFFCURVE",
"207 530 OFFCURVE",
"151 530 CURVE SMOOTH",
"102 530 OFFCURVE",
"64 522 OFFCURVE",
"28 504 CURVE",
"28 388 LINE",
"82 410 OFFCURVE",
"101 414 OFFCURVE",
"135 414 CURVE SMOOTH",
"185 414 OFFCURVE",
"192 405 OFFCURVE",
"192 336 CURVE SMOOTH",
"192 58 LINE",
"229 131 LINE",
"215 112 OFFCURVE",
"201 104 OFFCURVE",
"181 104 CURVE SMOOTH",
"147 104 OFFCURVE",
"128 127 OFFCURVE",
"128 168 CURVE SMOOTH",
"128 210 OFFCURVE",
"148 230 OFFCURVE",
"188 230 CURVE SMOOTH",
"222 230 LINE",
"222 340 LINE",
"177 340 LINE SMOOTH",
"69 340 OFFCURVE",
"10 279 OFFCURVE",
"10 167 CURVE SMOOTH",
"10 54 OFFCURVE",
"69 -10 OFFCURVE",
"174 -10 CURVE SMOOTH"
);
}
);
vertWidth = 1000;
width = 500;
}
);
leftKerningGroup = a;
rightKerningGroup = o;
unicode = 00E6;
},
{
color = 10;
glyphname = b;
lastChange = "2021-04-07 02:26:24 +0000";
layers = (
{
layerId = "D65C9A1E-0FCA-4B2D-8EDF-9F36CA9182A1";
paths = (
{
closed = 1;
nodes = (
"385 -10 OFFCURVE",
"438 65 OFFCURVE",
"438 270 CURVE SMOOTH",
"438 462 OFFCURVE",
"391 530 OFFCURVE",
"257 530 CURVE SMOOTH",
"196 530 OFFCURVE",
"140 516 OFFCURVE",
"97 490 CURVE",
"107 473 LINE",
"147 497 OFFCURVE",
"199 510 OFFCURVE",
"257 510 CURVE SMOOTH",
"378 510 OFFCURVE",
"418 452 OFFCURVE",
"418 270 CURVE SMOOTH",
"418 75 OFFCURVE",
"372 10 OFFCURVE",
"239 10 CURVE SMOOTH",
"186 10 OFFCURVE",
"136 21 OFFCURVE",
"97 40 CURVE",
"108 22 LINE",
"108 730 LINE",
"88 730 LINE",
"88 22 LINE",
"126 3 OFFCURVE",
"178 -10 OFFCURVE",
"239 -10 CURVE SMOOTH"
);
}
);
width = 500;
},
{
layerId = "E27A6A66-A1F8-4E1B-8224-7C0FE77551F2";
paths = (
{
closed = 1;
nodes = (
"393 -10 OFFCURVE",
"452 67 OFFCURVE",
"452 270 CURVE SMOOTH",
"452 461 OFFCURVE",
"403 530 OFFCURVE",
"266 530 CURVE SMOOTH",
"209 530 OFFCURVE",
"155 518 OFFCURVE",
"111 493 CURVE",
"136 427 LINE",
"178 449 OFFCURVE",
"217 460 OFFCURVE",
"260 460 CURVE SMOOTH",
"347 460 OFFCURVE",
"374 415 OFFCURVE",
"374 269 CURVE SMOOTH",
"374 112 OFFCURVE",
"342 60 OFFCURVE",
"244 60 CURVE SMOOTH",
"201 60 OFFCURVE",
"163 70 OFFCURVE",
"132 89 CURVE",
"150 46 LINE",
"150 730 LINE",
"72 730 LINE",
"72 22 LINE",
"113 3 OFFCURVE",
"171 -10 OFFCURVE",
"236 -10 CURVE SMOOTH"
);
}
);
vertWidth = 1000;
width = 500;
},
{
layerId = "FC9CFCDA-9E80-4E73-BA51-8504D15957FA";
paths = (
{
closed = 1;
nodes = (
"401 -10 OFFCURVE",
"466 68 OFFCURVE",
"466 270 CURVE SMOOTH",
"466 459 OFFCURVE",
"414 530 OFFCURVE",
"274 530 CURVE SMOOTH",
"221 530 OFFCURVE",
"169 520 OFFCURVE",
"124 496 CURVE",
"163 380 LINE",
"208 402 OFFCURVE",
"234 410 OFFCURVE",
"260 410 CURVE SMOOTH",
"312 410 OFFCURVE",
"328 377 OFFCURVE",
"328 267 CURVE SMOOTH",
"328 143 OFFCURVE",
"310 108 OFFCURVE",
"246 108 CURVE SMOOTH",
"212 108 OFFCURVE",
"184 118 OFFCURVE",
"164 135 CURVE",
"194 70 LINE",
"194 730 LINE",
"56 730 LINE",
"56 22 LINE",
"100 3 OFFCURVE",
"164 -10 OFFCURVE",
"233 -10 CURVE SMOOTH"
);
}
);
vertWidth = 1000;
width = 500;
}
);
leftKerningGroup = b;
rightKerningGroup = o;
unicode = 0062;
},
{
color = 10;
glyphname = c;
lastChange = "2021-04-13 12:54:57 +0000";
layers = (
{
anchors = (
{
name = bottom;
position = "{260, 0}";
},
{
name = cedi;
position = "{241, 0}";
},
{
name = top;
position = "{260, 520}";
}
);
layerId = "D65C9A1E-0FCA-4B2D-8EDF-9F36CA9182A1";
paths = (
{
closed = 1;
nodes = (
"325 -10 OFFCURVE",
"363 -4 OFFCURVE",
"396 6 CURVE",
"396 27 LINE",
"363 15 OFFCURVE",
"324 10 OFFCURVE",
"287 10 CURVE SMOOTH",
"158 10 OFFCURVE",
"96 84 OFFCURVE",
"96 240 CURVE SMOOTH",
"96 280 LINE SMOOTH",
"96 436 OFFCURVE",
"158 510 OFFCURVE",
"288 510 CURVE SMOOTH",
"320 510 OFFCURVE",
"354 505 OFFCURVE",
"381 498 CURVE",
"376 508 LINE",
"376 320 LINE",
"396 320 LINE",
"396 514 LINE",
"366 524 OFFCURVE",
"326 530 OFFCURVE",
"288 530 CURVE SMOOTH",
"147 530 OFFCURVE",
"76 447 OFFCURVE",
"76 280 CURVE SMOOTH",
"76 240 LINE SMOOTH",
"76 73 OFFCURVE",
"146 -10 OFFCURVE",
"287 -10 CURVE SMOOTH"
);
}
);
width = 500;
},
{
anchors = (
{
name = bottom;
position = "{260, 0}";
},
{
name = cedi;
position = "{253, 0}";
},
{
name = top;
position = "{260, 520}";
}
);
layerId = "E27A6A66-A1F8-4E1B-8224-7C0FE77551F2";
paths = (
{
closed = 1;
nodes = (
"334 -10 OFFCURVE",
"375 -4 OFFCURVE",
"411 6 CURVE",
"411 77 LINE",
"372 65 OFFCURVE",
"337 60 OFFCURVE",
"300 60 CURVE SMOOTH",
"184 60 OFFCURVE",
"141 110 OFFCURVE",
"141 245 CURVE SMOOTH",
"141 275 LINE SMOOTH",
"141 404 OFFCURVE",
"184 460 OFFCURVE",
"283 460 CURVE SMOOTH",
"312 460 OFFCURVE",
"342 455 OFFCURVE",
"371 445 CURVE",
"333 502 LINE",
"333 305 LINE",
"411 305 LINE",
"411 514 LINE",
"378 524 OFFCURVE",
"335 530 OFFCURVE",
"293 530 CURVE SMOOTH",
"139 530 OFFCURVE",
"61 447 OFFCURVE",
"61 280 CURVE SMOOTH",
"61 240 LINE SMOOTH",
"61 73 OFFCURVE",
"138 -10 OFFCURVE",
"292 -10 CURVE SMOOTH"
);
}
);
vertWidth = 1000;
width = 500;
},
{
anchors = (
{
name = bottom;
position = "{260, 0}";
},
{
name = cedi;
position = "{270, 0}";
},
{
name = top;
position = "{260, 520}";
}
);
layerId = "FC9CFCDA-9E80-4E73-BA51-8504D15957FA";
paths = (
{
closed = 1;
nodes = (
"343 -10 OFFCURVE",
"387 -4 OFFCURVE",
"426 6 CURVE",
"426 128 LINE",
"380 116 OFFCURVE",
"353 112 OFFCURVE",
"313 112 CURVE SMOOTH",
"210 112 OFFCURVE",
"186 138 OFFCURVE",
"186 250 CURVE SMOOTH",
"186 270 LINE SMOOTH",
"186 372 OFFCURVE",
"210 408 OFFCURVE",
"277 408 CURVE SMOOTH",
"306 408 OFFCURVE",
"336 401 OFFCURVE",
"360 390 CURVE",
"288 495 LINE",
"288 290 LINE",
"426 290 LINE",
"426 514 LINE",
"390 524 OFFCURVE",
"343 530 OFFCURVE",
"298 530 CURVE SMOOTH",
"130 530 OFFCURVE",
"46 447 OFFCURVE",
"46 280 CURVE SMOOTH",
"46 240 LINE SMOOTH",
"46 73 OFFCURVE",
"129 -10 OFFCURVE",
"297 -10 CURVE SMOOTH"
);
}
);
vertWidth = 1000;
width = 500;
}
);
leftKerningGroup = o;
rightKerningGroup = c;
unicode = 0063;
},
{
color = 11;
glyphname = eth;
lastChange = "2021-04-14 04:07:17 +0000";
layers = (
{
layerId = "D65C9A1E-0FCA-4B2D-8EDF-9F36CA9182A1";
paths = (
{
closed = 1;
nodes = (
"327 -10 OFFCURVE",
"379 1 OFFCURVE",
"421 22 CURVE",
"421 260 LINE SMOOTH",
"421 566 OFFCURVE",
"328 727 OFFCURVE",
"126 770 CURVE",
"126 749 LINE",
"315 708 OFFCURVE",
"401 554 OFFCURVE",
"401 260 CURVE SMOOTH",
"401 22 LINE",
"412 40 LINE",
"373 20 OFFCURVE",
"324 10 OFFCURVE",
"270 10 CURVE SMOOTH",
"137 10 OFFCURVE",
"91 74 OFFCURVE",
"91 260 CURVE SMOOTH",
"91 433 OFFCURVE",
"131 490 OFFCURVE",
"252 490 CURVE SMOOTH",
"303 490 OFFCURVE",
"351 480 OFFCURVE",
"389 460 CURVE",
"385 484 LINE",
"347 501 OFFCURVE",
"301 510 OFFCURVE",
"252 510 CURVE SMOOTH",
"119 510 OFFCURVE",
"71 444 OFFCURVE",
"71 260 CURVE SMOOTH",
"71 63 OFFCURVE",
"125 -10 OFFCURVE",
"270 -10 CURVE SMOOTH"
);
},
{
closed = 1;
nodes = (
"434 694 LINE",
"434 716 LINE",
"64 547 LINE",
"64 525 LINE"
);
}
);
width = 499;
},
{
layerId = "E27A6A66-A1F8-4E1B-8224-7C0FE77551F2";
paths = (
{
closed = 1;
nodes = (
"339 -10 OFFCURVE",
"397 3 OFFCURVE",
"438 22 CURVE",
"439 260 LINE SMOOTH",
"440 566 OFFCURVE",
"335 727 OFFCURVE",
"108 770 CURVE",
"108 702 LINE",
"281 665 OFFCURVE",
"359 535 OFFCURVE",
"359 288 CURVE SMOOTH",
"360 46 LINE",
"378 89 LINE",
"347 70 OFFCURVE",
"309 60 OFFCURVE",
"266 60 CURVE SMOOTH",
"168 60 OFFCURVE",
"136 110 OFFCURVE",
"136 259 CURVE SMOOTH",
"136 397 OFFCURVE",
"163 440 OFFCURVE",
"250 440 CURVE SMOOTH",
"293 440 OFFCURVE",
"332 429 OFFCURVE",
"374 407 CURVE",
"399 473 LINE",
"355 498 OFFCURVE",
"301 510 OFFCURVE",
"244 510 CURVE SMOOTH",
"107 510 OFFCURVE",
"58 444 OFFCURVE",
"58 260 CURVE SMOOTH",
"58 64 OFFCURVE",
"117 -10 OFFCURVE",
"274 -10 CURVE SMOOTH"
);
},
{
closed = 1;
nodes = (
"435 669 LINE",
"435 741 LINE",
"65 572 LINE",
"65 500 LINE"
);
}
);
vertWidth = 1000;
width = 500;
},
{
layerId = "FC9CFCDA-9E80-4E73-BA51-8504D15957FA";
paths = (
{
closed = 1;
nodes = (
"346 -10 OFFCURVE",
"410 3 OFFCURVE",
"454 22 CURVE",
"454 260 LINE SMOOTH",
"454 566 OFFCURVE",
"339 727 OFFCURVE",
"89 770 CURVE",
"89 655 LINE",
"246 622 OFFCURVE",
"316 517 OFFCURVE",
"316 315 CURVE SMOOTH",
"316 70 LINE",
"346 135 LINE",
"326 118 OFFCURVE",
"299 108 OFFCURVE",
"264 108 CURVE SMOOTH",
"200 108 OFFCURVE",
"182 141 OFFCURVE",
"182 257 CURVE SMOOTH",
"182 359 OFFCURVE",
"198 390 OFFCURVE",
"250 390 CURVE SMOOTH",
"276 390 OFFCURVE",
"302 382 OFFCURVE",
"347 360 CURVE",
"386 476 LINE",
"341 500 OFFCURVE",
"289 510 OFFCURVE",
"236 510 CURVE SMOOTH",
"96 510 OFFCURVE",
"44 442 OFFCURVE",
"44 260 CURVE SMOOTH",
"44 65 OFFCURVE",
"109 -10 OFFCURVE",
"277 -10 CURVE SMOOTH"
);
},
{
closed = 1;
nodes = (
"434 645 LINE",
"434 765 LINE",
"64 596 LINE",
"64 476 LINE"
);
}
);
vertWidth = 1000;
width = 500;
}
);
leftKerningGroup = o;
rightKerningGroup = o;
unicode = 00F0;
},
{
color = 11;
glyphname = dcaron;
lastChange = "2021-04-14 04:38:31 +0000";
layers = (
{
layerId = "D65C9A1E-0FCA-4B2D-8EDF-9F36CA9182A1";
paths = (
{
closed = 1;
nodes = (
"248 -10 OFFCURVE",
"294 3 OFFCURVE",
"326 22 CURVE",
"326 730 LINE",
"306 730 LINE",
"306 22 LINE",
"316 39 LINE",
"284 21 OFFCURVE",
"241 10 OFFCURVE",
"196 10 CURVE SMOOTH",
"85 10 OFFCURVE",
"45 74 OFFCURVE",
"45 270 CURVE SMOOTH",
"45 453 OFFCURVE",
"80 510 OFFCURVE",
"181 510 CURVE SMOOTH",
"230 510 OFFCURVE",
"274 497 OFFCURVE",
"308 474 CURVE",
"319 490 LINE",
"282 516 OFFCURVE",
"233 530 OFFCURVE",
"181 530 CURVE SMOOTH",
"66 530 OFFCURVE",
"25 462 OFFCURVE",
"25 270 CURVE SMOOTH",
"25 65 OFFCURVE",
"71 -10 OFFCURVE",
"196 -10 CURVE SMOOTH"
);
},
{
closed = 1;
nodes = (
"379 510 LINE",
"500 730 LINE",
"477 730 LINE",
"356 510 LINE"
);
}
);
width = 500;
},
{
background = {
paths = (
{
closed = 1;
nodes = (
"240.2 -10 OFFCURVE",
"286.6 3 OFFCURVE",
"319.4 22 CURVE",
"319.4 730 LINE",
"257 730 LINE",
"257 46 LINE",
"271.4 89 LINE",
"246.6 70 OFFCURVE",
"216.2 60 OFFCURVE",
"181.8 60 CURVE SMOOTH",
"103.4 60 OFFCURVE",
"77.8 112 OFFCURVE",
"77.8 269 CURVE SMOOTH",
"77.8 415 OFFCURVE",
"99.4 460 OFFCURVE",
"169 460 CURVE SMOOTH",
"203.4 460 OFFCURVE",
"234.6 449 OFFCURVE",
"268.2 427 CURVE",
"288.2 493 LINE",
"253 518 OFFCURVE",
"209.8 530 OFFCURVE",
"164.2 530 CURVE SMOOTH",
"54.6 530 OFFCURVE",
"15.4 461 OFFCURVE",
"15.4 270 CURVE SMOOTH",
"15.4 67 OFFCURVE",
"62.6 -10 OFFCURVE",
"188.2 -10 CURVE SMOOTH"
);
},
{
closed = 1;
nodes = (
"403.06 470 LINE",
"500.24 770 LINE",
"419.4 770 LINE",
"339.42 470 LINE"
);
}
);
};
layerId = "E27A6A66-A1F8-4E1B-8224-7C0FE77551F2";
paths = (
{
closed = 1;
nodes = (
"251 -10 OFFCURVE",
"300 3 OFFCURVE",
"334 22 CURVE",
"334 730 LINE",
"254 730 LINE",
"254 46 LINE",
"288 88 LINE",
"265 71 OFFCURVE",
"235 60 OFFCURVE",
"199 60 CURVE SMOOTH",
"121 60 OFFCURVE",
"95 112 OFFCURVE",
"95 268 CURVE SMOOTH",
"95 413 OFFCURVE",
"118 460 OFFCURVE",
"187 460 CURVE SMOOTH",
"220 460 OFFCURVE",
"251 449 OFFCURVE",
"284 427 CURVE",
"302 493 LINE",
"265 518 OFFCURVE",
"218 530 OFFCURVE",
"171 530 CURVE SMOOTH",
"57 530 OFFCURVE",
"15 460 OFFCURVE",
"15 270 CURVE SMOOTH",
"15 66 OFFCURVE",
"64 -10 OFFCURVE",
"196 -10 CURVE SMOOTH"
);
},
{
closed = 1;
nodes = (
"422 510 LINE",
"500 730 LINE",
"410 730 LINE",
"352 510 LINE"
);
}
);
vertWidth = 1000;
width = 500;
},
{
layerId = "FC9CFCDA-9E80-4E73-BA51-8504D15957FA";
paths = (
{
closed = 1;
nodes = (
"253 -10 OFFCURVE",
"305 3 OFFCURVE",
"341 22 CURVE",
"341 730 LINE",
"207 730 LINE",
"207 70 LINE",
"254 135 LINE",
"240 118 OFFCURVE",
"219 108 OFFCURVE",
"196 108 CURVE SMOOTH",
"152 108 OFFCURVE",
"139 144 OFFCURVE",
"139 267 CURVE SMOOTH",
"139 377 OFFCURVE",
"150 410 OFFCURVE",
"187 410 CURVE SMOOTH",
"205 410 OFFCURVE",
"222 402 OFFCURVE",
"254 380 CURVE",
"285 496 LINE",
"248 520 OFFCURVE",
"204 530 OFFCURVE",
"162 530 CURVE SMOOTH",
"49 530 OFFCURVE",
"5 457 OFFCURVE",
"5 270 CURVE SMOOTH",
"5 66 OFFCURVE",
"57 -10 OFFCURVE",
"196 -10 CURVE SMOOTH"
);
},
{
closed = 1;
nodes = (
"422 510 LINE",
"500 730 LINE",
"384 730 LINE",
"328 510 LINE"
);
}
);
width = 500;
}
);
leftKerningGroup = o;
rightKerningGroup = Y;
unicode = 010F;
},
{
color = 11;
glyphname = dcroat;
lastChange = "2021-04-14 04:43:38 +0000";
layers = (
{
components = (
{
name = d;
transform = "{1, 0, 0, 1, -10, 0}";
}
);
layerId = "D65C9A1E-0FCA-4B2D-8EDF-9F36CA9182A1";
paths = (
{
closed = 1;
nodes = (
"495 617 LINE",
"495 637 LINE",
"95 637 LINE",
"95 617 LINE"
);
}
);
width = 500;
},
{
components = (
{
alignment = -1;
name = d;
transform = "{1, 0, 0, 1, -10, 0}";
}
);
layerId = "E27A6A66-A1F8-4E1B-8224-7C0FE77551F2";
paths = (
{
closed = 1;
nodes = (
"495 589 LINE",
"495 655 LINE",
"85 655 LINE",
"85 589 LINE"
);
}
);
vertWidth = 1000;
width = 500;
},
{
components = (
{
name = d;
transform = "{1, 0, 0, 1, -10, 0}";
}
);
layerId = "FC9CFCDA-9E80-4E73-BA51-8504D15957FA";
paths = (
{
closed = 1;
nodes = (
"495 561 LINE",
"495 673 LINE",
"75 673 LINE",
"75 561 LINE"
);
}
);
vertWidth = 1000;
width = 500;
}
);
leftKerningGroup = o;
rightKerningGroup = W;
unicode = 0111;
},
{
color = 11;
glyphname = dzcaron;
lastChange = "2021-04-14 05:46:13 +0000";
layers = (
{
layerId = "D65C9A1E-0FCA-4B2D-8EDF-9F36CA9182A1";
paths = (
{
closed = 1;
nodes = (
"194 -10 OFFCURVE",
"230 3 OFFCURVE",
"256 22 CURVE",
"256 730 LINE",
"236 730 LINE",
"236 492 LINE",
"236 492 LINE",
"236 22 LINE",
"244 38 LINE",
"219 20 OFFCURVE",
"187 10 OFFCURVE",
"152 10 CURVE SMOOTH",
"67 10 OFFCURVE",
"36 74 OFFCURVE",
"36 270 CURVE SMOOTH",
"36 453 OFFCURVE",
"63 510 OFFCURVE",
"140 510 CURVE SMOOTH",
"178 510 OFFCURVE",
"214 498 OFFCURVE",
"241 475 CURVE",
"254 490 LINE",
"223 516 OFFCURVE",
"182 530 OFFCURVE",
"140 530 CURVE SMOOTH",
"48 530 OFFCURVE",
"16 462 OFFCURVE",
"16 270 CURVE SMOOTH",
"16 65 OFFCURVE",
"52 -10 OFFCURVE",
"152 -10 CURVE SMOOTH"
);
},
{
closed = 1;
nodes = (
"495 0 LINE",
"495 20 LINE",
"308 20 LINE",
"308 24 LINE",
"495 500 LINE",
"495 520 LINE",
"285 520 LINE",
"285 500 LINE",
"472 500 LINE",
"472 496 LINE",
"285 20 LINE",
"285 0 LINE"
);
},
{
closed = 1;
nodes = (
"397 570 LINE",
"500 790 LINE",
"478 790 LINE",
"389 599 LINE",
"385 599 LINE",
"296 790 LINE",
"274 790 LINE",
"377 570 LINE"
);
}
);
width = 500;
},
{
layerId = "E27A6A66-A1F8-4E1B-8224-7C0FE77551F2";
paths = (
{
closed = 1;
nodes = (
"193 -10 OFFCURVE",
"232 3 OFFCURVE",
"258 22 CURVE",
"258 730 LINE",
"180 730 LINE",
"180 476 LINE",
"180 476 LINE",
"180 46 LINE",
"198 66 LINE",
"188 61 OFFCURVE",
"176 59 OFFCURVE",
"165 59 CURVE SMOOTH",
"110 59 OFFCURVE",
"91 112 OFFCURVE",
"91 268 CURVE SMOOTH",
"91 412 OFFCURVE",
"107 460 OFFCURVE",
"156 460 CURVE SMOOTH",
"179 460 OFFCURVE",
"202 450 OFFCURVE",
"226 427 CURVE",
"236 493 LINE",
"207 518 OFFCURVE",
"169 530 OFFCURVE",
"133 530 CURVE SMOOTH",
"45 530 OFFCURVE",
"13 460 OFFCURVE",
"13 270 CURVE SMOOTH",
"13 66 OFFCURVE",
"50 -10 OFFCURVE",
"151 -10 CURVE SMOOTH"
);
},
{
closed = 1;
nodes = (
"492 0 LINE",
"492 70 LINE",
"368 70 LINE",
"368 74 LINE",
"492 450 LINE",
"492 520 LINE",
"288 520 LINE",
"288 450 LINE",
"412 450 LINE",
"412 446 LINE",
"288 70 LINE",
"288 0 LINE"
);
},
{
closed = 1;
nodes = (
"429 570 LINE",
"500 790 LINE",
"424 790 LINE",
"385 630 LINE",
"381 630 LINE",
"342 790 LINE",
"266 790 LINE",
"337 570 LINE"
);
}
);
vertWidth = 1000;
width = 500;
},
{
layerId = "FC9CFCDA-9E80-4E73-BA51-8504D15957FA";
paths = (
{
closed = 1;
nodes = (
"194 -10 OFFCURVE",
"233 3 OFFCURVE",
"260 22 CURVE",
"260 730 LINE",
"152 730 LINE",
"152 461 LINE",
"162 461 LINE",
"162 70 LINE",
"198 135 LINE",
"186 118 OFFCURVE",
"171 108 OFFCURVE",
"153 108 CURVE SMOOTH",
"119 108 OFFCURVE",
"108 147 OFFCURVE",
"108 267 CURVE SMOOTH",
"108 376 OFFCURVE",
"117 410 OFFCURVE",
"145 410 CURVE SMOOTH",
"159 410 OFFCURVE",
"173 402 OFFCURVE",
"198 380 CURVE",
"219 496 LINE",
"191 520 OFFCURVE",
"158 530 OFFCURVE",
"127 530 CURVE SMOOTH",
"43 530 OFFCURVE",
"10 457 OFFCURVE",
"10 270 CURVE SMOOTH",
"10 66 OFFCURVE",
"48 -10 OFFCURVE",
"151 -10 CURVE SMOOTH"
);
},
{
closed = 1;
nodes = (
"490 0 LINE",
"490 118 LINE",
"396 118 LINE",
"396 122 LINE",
"490 402 LINE",
"490 520 LINE",
"290 520 LINE",
"290 402 LINE",
"384 402 LINE",
"384 398 LINE",
"290 118 LINE",
"290 0 LINE"
);
},
{
closed = 1;
nodes = (
"441 570 LINE",
"500 790 LINE",
"408 790 LINE",
"381 650 LINE",
"377 650 LINE",
"350 790 LINE",
"258 790 LINE",
"317 570 LINE"
);
}
);
vertWidth = 1000;
width = 500;
}
);
leftKerningGroup = o;
rightKerningGroup = z;
unicode = 01C6;
},
{
color = 10;
glyphname = e;
lastChange = "2021-04-13 12:59:45 +0000";
layers = (
{
anchors = (
{
name = bottom;
position = "{250, 0}";
},
{
name = ogonek;
position = "{250, 0}";
},
{
name = top;
position = "{250, 520}";
}
);
layerId = "D65C9A1E-0FCA-4B2D-8EDF-9F36CA9182A1";
paths = (
{
closed = 1;
nodes = (
"322 -10 OFFCURVE",
"367 -4 OFFCURVE",
"404 6 CURVE",
"404 27 LINE",
"368 16 OFFCURVE",
"323 10 OFFCURVE",
"283 10 CURVE SMOOTH",
"150 10 OFFCURVE",
"90 81 OFFCURVE",
"90 240 CURVE SMOOTH",
"90 280 LINE SMOOTH",
"90 442 OFFCURVE",
"139 510 OFFCURVE",
"250 510 CURVE SMOOTH",
"361 510 OFFCURVE",
"410 442 OFFCURVE",
"410 280 CURVE SMOOTH",
"410 262 LINE",
"420 272 LINE",
"80 272 LINE",
"80 252 LINE",
"430 252 LINE",
"430 280 LINE SMOOTH",
"430 452 OFFCURVE",
"374 530 OFFCURVE",
"250 530 CURVE SMOOTH",
"126 530 OFFCURVE",
"70 452 OFFCURVE",
"70 280 CURVE SMOOTH",
"70 240 LINE SMOOTH",
"70 70 OFFCURVE",
"139 -10 OFFCURVE",
"283 -10 CURVE SMOOTH"
);
}
);
width = 500;
},
{
anchors = (
{
name = bottom;
position = "{250, 0}";
},
{
name = ogonek;
position = "{250, 0}";
},
{
name = top;
position = "{250, 520}";
}
);
layerId = "E27A6A66-A1F8-4E1B-8224-7C0FE77551F2";
paths = (
{
closed = 1;
nodes = (
"329 -10 OFFCURVE",
"377 -4 OFFCURVE",
"417 6 CURVE",
"417 75 LINE",
"370 63 OFFCURVE",
"331 58 OFFCURVE",
"292 58 CURVE SMOOTH",
"173 58 OFFCURVE",
"133 105 OFFCURVE",
"133 243 CURVE SMOOTH",
"133 277 LINE SMOOTH",
"133 408 OFFCURVE",
"167 462 OFFCURVE",
"250 462 CURVE SMOOTH",
"333 462 OFFCURVE",
"367 408 OFFCURVE",
"367 277 CURVE SMOOTH",
"367 268 LINE",
"385 291 LINE",
"94 291 LINE",
"94 226 LINE",
"445 226 LINE",
"445 280 LINE SMOOTH",
"445 452 OFFCURVE",
"384 530 OFFCURVE",
"250 530 CURVE SMOOTH",
"116 530 OFFCURVE",
"55 452 OFFCURVE",
"55 280 CURVE SMOOTH",
"55 240 LINE SMOOTH",
"55 70 OFFCURVE",
"130 -10 OFFCURVE",
"286 -10 CURVE SMOOTH"
);
}
);
vertWidth = 1000;
width = 500;
},
{
anchors = (
{
name = bottom;
position = "{250, 0}";
},
{
name = ogonek;
position = "{250, 0}";
},
{
name = top;
position = "{250, 520}";
}
);
layerId = "FC9CFCDA-9E80-4E73-BA51-8504D15957FA";
paths = (
{
closed = 1;
nodes = (
"334 -10 OFFCURVE",
"386 -4 OFFCURVE",
"430 6 CURVE",
"430 124 LINE",
"372 111 OFFCURVE",
"338 108 OFFCURVE",
"300 108 CURVE SMOOTH",
"196 108 OFFCURVE",
"176 130 OFFCURVE",
"176 246 CURVE SMOOTH",
"176 274 LINE SMOOTH",
"176 376 OFFCURVE",
"196 412 OFFCURVE",
"251 412 CURVE SMOOTH",
"306 412 OFFCURVE",
"326 376 OFFCURVE",
"326 274 CURVE",
"326 274 LINE",
"350 309 LINE",
"108 309 LINE",
"108 199 LINE",
"460 199 LINE",
"460 280 LINE SMOOTH",
"460 452 OFFCURVE",
"395 530 OFFCURVE",
"250 530 CURVE SMOOTH",
"105 530 OFFCURVE",
"40 452 OFFCURVE",
"40 280 CURVE SMOOTH",
"40 240 LINE SMOOTH",
"40 70 OFFCURVE",
"120 -10 OFFCURVE",
"288 -10 CURVE SMOOTH"
);
}
);
vertWidth = 1000;
width = 500;
}
);
leftKerningGroup = o;
rightKerningGroup = o;
unicode = 0065;
},
{
color = 10;
glyphname = f;
lastChange = "2021-04-15 15:10:31 +0000";
layers = (
{
layerId = "D65C9A1E-0FCA-4B2D-8EDF-9F36CA9182A1";
paths = (
{
closed = 1;
nodes = (
"234 0 LINE",
"234 480 LINE",
"460 480 LINE",
"460 500 LINE",
"234 500 LINE",
"234 620 LINE SMOOTH",
"234 711 OFFCURVE",
"271 750 OFFCURVE",
"358 750 CURVE SMOOTH",
"392 750 OFFCURVE",
"422 744 OFFCURVE",
"460 729 CURVE",
"460 750 LINE",
"419 765 OFFCURVE",
"390 770 OFFCURVE",
"358 770 CURVE SMOOTH",
"260 770 OFFCURVE",
"214 722 OFFCURVE",
"214 620 CURVE SMOOTH",
"214 500 LINE",
"40 500 LINE",
"40 480 LINE",
"214 480 LINE",
"214 0 LINE"
);
}
);
width = 500;
},
{
layerId = "E27A6A66-A1F8-4E1B-8224-7C0FE77551F2";
paths = (
{
closed = 1;
nodes = (
"266 0 LINE",
"266 430 LINE",
"465 430 LINE",
"465 500 LINE",
"266 500 LINE",
"266 594 LINE SMOOTH",
"266 670 OFFCURVE",
"296 700 OFFCURVE",
"367 700 CURVE SMOOTH",
"393 700 OFFCURVE",
"428 696 OFFCURVE",
"465 683 CURVE",
"465 754 LINE",
"428 765 OFFCURVE",
"389 770 OFFCURVE",
"355 770 CURVE SMOOTH",
"242 770 OFFCURVE",
"186 713 OFFCURVE",
"186 597 CURVE SMOOTH",
"186 500 LINE",
"35 500 LINE",
"35 430 LINE",
"186 430 LINE",
"186 0 LINE"
);
}
);
vertWidth = 1000;
width = 500;
},
{
layerId = "FC9CFCDA-9E80-4E73-BA51-8504D15957FA";
paths = (
{
closed = 1;
nodes = (
"298 0 LINE",
"298 382 LINE",
"470 382 LINE",
"470 500 LINE",
"298 500 LINE",
"298 568 LINE SMOOTH",
"298 626 OFFCURVE",
"320 648 OFFCURVE",
"375 648 CURVE SMOOTH",
"399 648 OFFCURVE",
"432 644 OFFCURVE",
"470 633 CURVE",
"470 756 LINE",
"436 764 OFFCURVE",
"390 770 OFFCURVE",
"352 770 CURVE SMOOTH",
"224 770 OFFCURVE",
"158 703 OFFCURVE",
"158 573 CURVE SMOOTH",
"158 500 LINE",
"30 500 LINE",
"30 382 LINE",
"158 382 LINE",
"158 0 LINE"
);
}
);
vertWidth = 1000;
width = 500;
}
);
leftKerningGroup = f;
rightKerningGroup = f;
unicode = 0066;
},
{
color = 10;
glyphname = g;
lastChange = "2021-04-13 13:00:48 +0000";
layers = (
{
anchors = (
{
name = bottom;
position = "{250, -140}";
},
{
name = top;
position = "{250, 520}";
}
);
layerId = "D65C9A1E-0FCA-4B2D-8EDF-9F36CA9182A1";
paths = (
{
closed = 1;
nodes = (
"303 -220 OFFCURVE",
"412 -131 OFFCURVE",
"412 40 CURVE SMOOTH",
"412 498 LINE",
"371 519 OFFCURVE",
"320 530 OFFCURVE",
"258 530 CURVE SMOOTH",
"111 530 OFFCURVE",
"62 469 OFFCURVE",
"62 284 CURVE SMOOTH",
"62 87 OFFCURVE",
"112 20 OFFCURVE",
"261 20 CURVE SMOOTH",
"325 20 OFFCURVE",
"372 32 OFFCURVE",
"410 49 CURVE",
"402 67 LINE",
"361 49 OFFCURVE",
"316 40 OFFCURVE",
"261 40 CURVE SMOOTH",
"125 40 OFFCURVE",
"82 97 OFFCURVE",
"82 284 CURVE SMOOTH",
"82 458 OFFCURVE",
"123 510 OFFCURVE",
"258 510 CURVE SMOOTH",
"316 510 OFFCURVE",
"364 500 OFFCURVE",
"403 480 CURVE",
"392 498 LINE",
"392 40 LINE SMOOTH",
"392 -119 OFFCURVE",
"292 -200 OFFCURVE",
"92 -200 CURVE",
"92 -220 LINE"
);
}
);
width = 500;
},
{
anchors = (
{
name = bottom;
position = "{250, -140}";
},
{
name = top;
position = "{250, 520}";
}
);
layerId = "E27A6A66-A1F8-4E1B-8224-7C0FE77551F2";
paths = (
{
closed = 1;
nodes = (
"315 -220 OFFCURVE",
"428 -134 OFFCURVE",
"428 43 CURVE SMOOTH",
"428 498 LINE",
"384 519 OFFCURVE",
"329 530 OFFCURVE",
"263 530 CURVE SMOOTH",
"104 530 OFFCURVE",
"48 466 OFFCURVE",
"48 284 CURVE SMOOTH",
"48 91 OFFCURVE",
"106 20 OFFCURVE",
"264 20 CURVE SMOOTH",
"317 20 OFFCURVE",
"357 28 OFFCURVE",
"393 40 CURVE",
"372 110 LINE",
"332 96 OFFCURVE",
"299 89 OFFCURVE",
"259 89 CURVE SMOOTH",
"157 89 OFFCURVE",
"126 134 OFFCURVE",
"126 283 CURVE SMOOTH",
"126 419 OFFCURVE",
"156 460 OFFCURVE",
"254 460 CURVE SMOOTH",
"295 460 OFFCURVE",
"331 453 OFFCURVE",
"370 435 CURVE",
"350 480 LINE",
"350 38 LINE SMOOTH",
"350 -91 OFFCURVE",
"266 -150 OFFCURVE",
"83 -150 CURVE",
"83 -220 LINE"
);
}
);
vertWidth = 1000;
width = 500;
},
{
anchors = (
{
name = bottom;
position = "{250, -140}";
},
{
name = top;
position = "{250, 520}";
}
);
layerId = "FC9CFCDA-9E80-4E73-BA51-8504D15957FA";
paths = (
{
closed = 1;
nodes = (
"327 -220 OFFCURVE",
"444 -136 OFFCURVE",
"444 45 CURVE SMOOTH",
"444 498 LINE",
"396 519 OFFCURVE",
"335 530 OFFCURVE",
"268 530 CURVE SMOOTH",
"97 530 OFFCURVE",
"34 464 OFFCURVE",
"34 284 CURVE SMOOTH",
"34 94 OFFCURVE",
"99 20 OFFCURVE",
"267 20 CURVE SMOOTH",
"305 20 OFFCURVE",
"342 24 OFFCURVE",
"375 30 CURVE",
"341 152 LINE",
"302 142 OFFCURVE",
"278 138 OFFCURVE",
"256 138 CURVE SMOOTH",
"190 138 OFFCURVE",
"172 170 OFFCURVE",
"172 281 CURVE SMOOTH",
"172 380 OFFCURVE",
"190 410 OFFCURVE",
"250 410 CURVE SMOOTH",
"273 410 OFFCURVE",
"297 405 OFFCURVE",
"337 390 CURVE",
"306 462 LINE",
"306 35 LINE SMOOTH",
"306 -60 OFFCURVE",
"240 -98 OFFCURVE",
"74 -98 CURVE",
"74 -220 LINE"
);
}
);
width = 500;
}
);
leftKerningGroup = o;
rightKerningGroup = g;
unicode = 0067;
},
{
color = 10;
glyphname = h;
lastChange = "2021-04-14 05:49:28 +0000";
layers = (
{
anchors = (
{
name = bottom;
position = "{220, 0}";
},
{
name = center;
position = "{220, 430}";
},
{
name = top;
position = "{220, 730}";
}
);
layerId = "D65C9A1E-0FCA-4B2D-8EDF-9F36CA9182A1";
paths = (
{
closed = 1;
nodes = (
"420 0 LINE",
"420 340 LINE SMOOTH",
"420 486 OFFCURVE",
"378 530 OFFCURVE",
"242 530 CURVE SMOOTH",
"182 530 OFFCURVE",
"134 522 OFFCURVE",
"91 503 CURVE",
"89 480 LINE",
"132 501 OFFCURVE",
"179 510 OFFCURVE",
"242 510 CURVE SMOOTH",
"367 510 OFFCURVE",
"400 475 OFFCURVE",
"400 340 CURVE SMOOTH",
"400 0 LINE"
);
},
{
closed = 1;
nodes = (
"100 0 LINE",
"100 730 LINE",
"80 730 LINE",
"80 0 LINE"
);
}
);
width = 500;
},
{
anchors = (
{
name = bottom;
position = "{250, 0}";
},
{
name = center;
position = "{250, 430}";
},
{
name = top;
position = "{220, 730}";
}
);
layerId = "E27A6A66-A1F8-4E1B-8224-7C0FE77551F2";
paths = (
{
closed = 1;
nodes = (
"437 0 LINE",
"437 340 LINE SMOOTH",
"437 486 OFFCURVE",
"394 530 OFFCURVE",
"253 530 CURVE SMOOTH",
"190 530 OFFCURVE",
"148 522 OFFCURVE",
"103 500 CURVE",
"119 430 LINE",
"166 453 OFFCURVE",
"198 460 OFFCURVE",
"244 460 CURVE SMOOTH",
"335 460 OFFCURVE",
"359 434 OFFCURVE",
"359 336 CURVE SMOOTH",
"359 0 LINE"
);
},
{
closed = 1;
nodes = (
"141 0 LINE",
"141 730 LINE",
"63 730 LINE",
"63 0 LINE"
);
}
);
vertWidth = 1000;
width = 500;
},
{
anchors = (
{
name = bottom;
position = "{250, 0}";
},
{
name = center;
position = "{250, 430}";
},
{
name = top;
position = "{220, 730}";
}
);
layerId = "FC9CFCDA-9E80-4E73-BA51-8504D15957FA";
paths = (
{
closed = 1;
nodes = (
"454 0 LINE",
"454 340 LINE SMOOTH",
"454 486 OFFCURVE",
"410 530 OFFCURVE",
"264 530 CURVE SMOOTH",
"198 530 OFFCURVE",
"161 521 OFFCURVE",
"114 496 CURVE",
"147 380 LINE",
"198 405 OFFCURVE",
"214 410 OFFCURVE",
"244 410 CURVE SMOOTH",
"300 410 OFFCURVE",
"316 393 OFFCURVE",
"316 332 CURVE SMOOTH",
"316 0 LINE"
);
},
{
closed = 1;
nodes = (
"184 0 LINE",
"184 730 LINE",
"46 730 LINE",
"46 0 LINE"
);
}
);
vertWidth = 1000;
width = 500;
}
);
leftKerningGroup = b;
rightKerningGroup = h;
unicode = 0068;
},
{
color = 11;
glyphname = hbar;
lastChange = "2021-04-14 05:50:35 +0000";
layers = (
{
components = (
{
name = h;
}
);
layerId = "D65C9A1E-0FCA-4B2D-8EDF-9F36CA9182A1";
paths = (
{
closed = 1;
nodes = (
"405 617 LINE",
"405 637 LINE",
"5 637 LINE",
"5 617 LINE"
);
}
);
width = 500;
},
{
components = (
{
name = h;
}
);
layerId = "E27A6A66-A1F8-4E1B-8224-7C0FE77551F2";
paths = (
{
closed = 1;
nodes = (
"415 589 LINE",
"415 655 LINE",
"5 655 LINE",
"5 589 LINE"
);
}
);
width = 500;
},
{
components = (
{
name = h;
}
);
layerId = "FC9CFCDA-9E80-4E73-BA51-8504D15957FA";
paths = (
{
closed = 1;
nodes = (
"425 561 LINE",
"425 673 LINE",
"5 673 LINE",
"5 561 LINE"
);
}
);
width = 500;
}
);
leftKerningGroup = W;
rightKerningGroup = h;
unicode = 0127;
},
{
color = 10;
glyphname = i;
lastChange = "2021-04-13 13:12:16 +0000";
layers = (
{
anchors = (
{
name = bottom;
position = "{250, 0}";
}
);
layerId = "D65C9A1E-0FCA-4B2D-8EDF-9F36CA9182A1";
paths = (
{
closed = 1;
nodes = (
"306 0 LINE",
"306 520 LINE",
"86 520 LINE",
"86 500 LINE",
"286 500 LINE",
"286 0 LINE"
);
},
{
closed = 1;
nodes = (
"309 658 OFFCURVE",
"326 674 OFFCURVE",
"326 699 CURVE SMOOTH",
"326 724 OFFCURVE",
"309 740 OFFCURVE",
"284 740 CURVE SMOOTH",
"259 740 OFFCURVE",
"242 724 OFFCURVE",
"242 699 CURVE SMOOTH",
"242 674 OFFCURVE",
"259 658 OFFCURVE",
"284 658 CURVE SMOOTH"
);
}
);
width = 500;
},
{
anchors = (
{
name = bottom;
position = "{250, 0}";
}
);
layerId = "E27A6A66-A1F8-4E1B-8224-7C0FE77551F2";
paths = (
{
closed = 1;
nodes = (
"340 0 LINE",
"340 520 LINE",
"80 520 LINE",
"80 450 LINE",
"260 450 LINE",
"260 0 LINE"
);
},
{
closed = 1;
nodes = (
"327 614 OFFCURVE",
"355 640 OFFCURVE",
"355 682 CURVE SMOOTH",
"355 724 OFFCURVE",
"327 750 OFFCURVE",
"284 750 CURVE SMOOTH",
"241 750 OFFCURVE",
"213 724 OFFCURVE",
"213 682 CURVE SMOOTH",
"213 640 OFFCURVE",
"241 614 OFFCURVE",
"284 614 CURVE SMOOTH"
);
}
);
vertWidth = 1000;
width = 500;
},
{
anchors = (
{
name = bottom;
position = "{250, 0}";
}
);
layerId = "FC9CFCDA-9E80-4E73-BA51-8504D15957FA";
paths = (
{
closed = 1;
nodes = (
"374 0 LINE",
"374 520 LINE",
"74 520 LINE",
"74 402 LINE",
"234 402 LINE",
"234 0 LINE"
);
},
{
closed = 1;
nodes = (
"347 580 OFFCURVE",
"384 614 OFFCURVE",
"384 670 CURVE SMOOTH",
"384 726 OFFCURVE",
"347 760 OFFCURVE",
"289 760 CURVE SMOOTH",
"231 760 OFFCURVE",
"194 726 OFFCURVE",
"194 670 CURVE SMOOTH",
"194 614 OFFCURVE",
"231 580 OFFCURVE",
"289 580 CURVE SMOOTH"
);
}
);
vertWidth = 1000;
width = 500;
}
);
leftKerningGroup = l;
rightKerningGroup = l;
unicode = 0069;
},
{
color = 11;
glyphname = idotless;
lastChange = "2021-04-13 13:18:17 +0000";
layers = (
{
anchors = (
{
name = bottom;
position = "{210, 0}";
},
{
name = ogonek;
position = "{276, 0}";
},
{
name = top;
position = "{210, 520}";
}
);
layerId = "D65C9A1E-0FCA-4B2D-8EDF-9F36CA9182A1";
paths = (
{
closed = 1;
nodes = (
"306 0 LINE",
"306 520 LINE",
"86 520 LINE",
"86 500 LINE",
"286 500 LINE",
"286 0 LINE"
);
}
);
width = 500;
},
{
anchors = (
{
name = bottom;
position = "{220, 0}";
},
{
name = ogonek;
position = "{296, 0}";
},
{
name = top;
position = "{220, 520}";
}
);
layerId = "E27A6A66-A1F8-4E1B-8224-7C0FE77551F2";
paths = (
{
closed = 1;
nodes = (
"340 0 LINE",
"340 520 LINE",
"80 520 LINE",
"80 450 LINE",
"260 450 LINE",
"260 0 LINE"
);
}
);
vertWidth = 1000;
width = 500;
},
{
anchors = (
{
name = bottom;
position = "{230, 0}";
},
{
name = ogonek;
position = "{311, 0}";
},
{
name = top;
position = "{230, 520}";
}
);
layerId = "FC9CFCDA-9E80-4E73-BA51-8504D15957FA";
paths = (
{
closed = 1;
nodes = (
"374 0 LINE",
"374 520 LINE",
"74 520 LINE",
"74 402 LINE",
"234 402 LINE",
"234 0 LINE"
);
}
);
vertWidth = 1000;
width = 500;
}
);
leftKerningGroup = l;
rightKerningGroup = l;
unicode = 0131;
},
{
color = 10;
glyphname = j;
lastChange = "2021-04-10 07:45:01 +0000";
layers = (
{
layerId = "D65C9A1E-0FCA-4B2D-8EDF-9F36CA9182A1";
paths = (
{
closed = 1;
nodes = (
"231 -220 OFFCURVE",
"306 -131 OFFCURVE",
"306 41 CURVE SMOOTH",
"306 520 LINE",
"86 520 LINE",
"86 500 LINE",
"286 500 LINE",
"286 41 LINE SMOOTH",
"286 -119 OFFCURVE",
"219 -200 OFFCURVE",
"86 -200 CURVE",
"86 -220 LINE"
);
},
{
closed = 1;
nodes = (
"309 658 OFFCURVE",
"326 674 OFFCURVE",
"326 699 CURVE SMOOTH",
"326 724 OFFCURVE",
"309 740 OFFCURVE",
"284 740 CURVE SMOOTH",
"259 740 OFFCURVE",
"242 724 OFFCURVE",
"242 699 CURVE SMOOTH",
"242 674 OFFCURVE",
"259 658 OFFCURVE",
"284 658 CURVE SMOOTH"
);
}
);
width = 500;
},
{
layerId = "E27A6A66-A1F8-4E1B-8224-7C0FE77551F2";
paths = (
{
closed = 1;
nodes = (
"255 -220 OFFCURVE",
"340 -134 OFFCURVE",
"340 43 CURVE SMOOTH",
"340 520 LINE",
"80 520 LINE",
"80 450 LINE",
"260 450 LINE",
"260 37 LINE SMOOTH",
"260 -92 OFFCURVE",
"204 -150 OFFCURVE",
"80 -150 CURVE",
"80 -220 LINE"
);
},
{
closed = 1;
nodes = (
"327 614 OFFCURVE",
"355 640 OFFCURVE",
"355 682 CURVE SMOOTH",
"355 724 OFFCURVE",
"327 750 OFFCURVE",
"284 750 CURVE SMOOTH",
"241 750 OFFCURVE",
"213 724 OFFCURVE",
"213 682 CURVE SMOOTH",
"213 640 OFFCURVE",
"241 614 OFFCURVE",
"284 614 CURVE SMOOTH"
);
}
);
vertWidth = 1000;
width = 500;
},
{
layerId = "FC9CFCDA-9E80-4E73-BA51-8504D15957FA";
paths = (
{
closed = 1;
nodes = (
"279 -220 OFFCURVE",
"374 -136 OFFCURVE",
"374 45 CURVE SMOOTH",
"374 520 LINE",
"74 520 LINE",
"74 402 LINE",
"234 402 LINE",
"234 34 LINE SMOOTH",
"234 -60 OFFCURVE",
"188 -98 OFFCURVE",
"74 -98 CURVE",
"74 -220 LINE"
);
},
{
closed = 1;
nodes = (
"347 580 OFFCURVE",
"384 614 OFFCURVE",
"384 670 CURVE SMOOTH",
"384 726 OFFCURVE",
"347 760 OFFCURVE",
"289 760 CURVE SMOOTH",
"231 760 OFFCURVE",
"194 726 OFFCURVE",
"194 670 CURVE SMOOTH",
"194 614 OFFCURVE",
"231 580 OFFCURVE",
"289 580 CURVE SMOOTH"
);
}
);
vertWidth = 1000;
width = 500;
}
);
leftKerningGroup = l;
rightKerningGroup = g;
unicode = 006A;
},
{
color = 11;
glyphname = jdotless;
lastChange = "2021-04-13 13:22:34 +0000";
layers = (
{
anchors = (
{
name = bottom;
position = "{210, -140}";
},
{
name = top;
position = "{210, 520}";
}
);
layerId = "D65C9A1E-0FCA-4B2D-8EDF-9F36CA9182A1";
paths = (
{
closed = 1;
nodes = (
"231 -220 OFFCURVE",
"306 -131 OFFCURVE",
"306 41 CURVE SMOOTH",
"306 520 LINE",
"86 520 LINE",
"86 500 LINE",
"286 500 LINE",
"286 41 LINE SMOOTH",
"286 -119 OFFCURVE",
"219 -200 OFFCURVE",
"86 -200 CURVE",
"86 -220 LINE"
);
}
);
width = 500;
},
{
anchors = (
{
name = bottom;
position = "{220, -140}";
},
{
name = top;
position = "{220, 520}";
}
);
layerId = "E27A6A66-A1F8-4E1B-8224-7C0FE77551F2";
paths = (
{
closed = 1;
nodes = (
"255 -220 OFFCURVE",
"340 -134 OFFCURVE",
"340 43 CURVE SMOOTH",
"340 520 LINE",
"80 520 LINE",
"80 450 LINE",
"260 450 LINE",
"260 37 LINE SMOOTH",
"260 -92 OFFCURVE",
"204 -150 OFFCURVE",
"80 -150 CURVE",
"80 -220 LINE"
);
}
);
vertWidth = 1000;
width = 500;
},
{
anchors = (
{
name = bottom;
position = "{230, -140}";
},
{
name = top;
position = "{230, 520}";
}
);
layerId = "FC9CFCDA-9E80-4E73-BA51-8504D15957FA";
paths = (
{
closed = 1;
nodes = (
"279 -220 OFFCURVE",
"374 -136 OFFCURVE",
"374 45 CURVE SMOOTH",
"374 520 LINE",
"74 520 LINE",
"74 402 LINE",
"234 402 LINE",
"234 34 LINE SMOOTH",
"234 -60 OFFCURVE",
"188 -98 OFFCURVE",
"74 -98 CURVE",
"74 -220 LINE"
);
}
);
vertWidth = 1000;
width = 500;
}
);
leftKerningGroup = l;
rightKerningGroup = g;
unicode = 0237;
},
{
color = 10;
glyphname = k;
lastChange = "2021-04-13 13:24:42 +0000";
layers = (
{
anchors = (
{
name = bottom;
position = "{210, 0}";
},
{
name = top;
position = "{210, 860}";
}
);
layerId = "D65C9A1E-0FCA-4B2D-8EDF-9F36CA9182A1";
paths = (
{
closed = 1;
nodes = (
"106 0 LINE",
"106 258 LINE",
"110 258 LINE",
"435 0 LINE",
"466 0 LINE",
"126 270 LINE",
"451 520 LINE",
"419 520 LINE",
"110 282 LINE",
"106 282 LINE",
"106 730 LINE",
"86 730 LINE",
"86 0 LINE"
);
}
);
width = 500;
},
{
anchors = (
{
name = bottom;
position = "{220, 0}";
},
{
name = top;
position = "{220, 860}";
}
);
layerId = "E27A6A66-A1F8-4E1B-8224-7C0FE77551F2";
paths = (
{
closed = 1;
nodes = (
"146 0 LINE",
"146 242 LINE",
"150 242 LINE",
"382 0 LINE",
"478 0 LINE",
"223 270 LINE",
"471 520 LINE",
"375 520 LINE",
"150 297 LINE",
"146 297 LINE",
"146 730 LINE",
"68 730 LINE",
"68 0 LINE"
);
}
);
vertWidth = 1000;
width = 500;
},
{
anchors = (
{
name = bottom;
position = "{230, 0}";
},
{
name = top;
position = "{230, 860}";
}
);
layerId = "FC9CFCDA-9E80-4E73-BA51-8504D15957FA";
paths = (
{
closed = 1;
nodes = (
"188 0 LINE",
"188 226 LINE",
"192 226 LINE",
"332 0 LINE",
"490 0 LINE",
"321 270 LINE",
"490 520 LINE",
"332 520 LINE",
"192 311 LINE",
"188 311 LINE",
"188 730 LINE",
"50 730 LINE",
"50 0 LINE"
);
}
);
vertWidth = 1000;
width = 500;
}
);
leftKerningGroup = b;
rightKerningGroup = x;
unicode = 006B;
},
{
color = 11;
glyphname = kgreenlandic;
lastChange = "2021-04-13 13:26:24 +0000";
layers = (
{
layerId = "D65C9A1E-0FCA-4B2D-8EDF-9F36CA9182A1";
paths = (
{
closed = 1;
nodes = (
"106 0 LINE",
"106 258 LINE",
"110 258 LINE",
"435 0 LINE",
"466 0 LINE",
"126 270 LINE",
"451 520 LINE",
"419 520 LINE",
"110 282 LINE",
"106 282 LINE",
"106 520 LINE",
"86 520 LINE",
"86 0 LINE"
);
}
);
width = 500;
},
{
layerId = "E27A6A66-A1F8-4E1B-8224-7C0FE77551F2";
paths = (
{
closed = 1;
nodes = (
"146 0 LINE",
"146 242 LINE",
"150 242 LINE",
"382 0 LINE",
"478 0 LINE",
"223 270 LINE",
"471 520 LINE",
"375 520 LINE",
"150 297 LINE",
"146 297 LINE",
"146 520 LINE",
"68 520 LINE",
"68 0 LINE"
);
}
);
vertWidth = 1000;
width = 500;
},
{
layerId = "FC9CFCDA-9E80-4E73-BA51-8504D15957FA";
paths = (
{
closed = 1;
nodes = (
"188 0 LINE",
"188 226 LINE",
"192 226 LINE",
"332 0 LINE",
"490 0 LINE",
"321 270 LINE",
"490 520 LINE",
"332 520 LINE",
"192 311 LINE",
"188 311 LINE",
"188 520 LINE",
"50 520 LINE",
"50 0 LINE"
);
}
);
vertWidth = 1000;
width = 500;
}
);
leftKerningGroup = n;
rightKerningGroup = x;
unicode = 0138;
},
{
color = 10;
glyphname = l;
lastChange = "2021-04-13 13:37:14 +0000";
layers = (
{
anchors = (
{
name = bottom;
position = "{250, 0}";
},
{
name = center;
position = "{250, 430}";
},
{
name = pdcenter;
position = "{390, 385}";
},
{
name = top;
position = "{250, 730}";
},
{
name = topright;
position = "{360, 460}";
}
);
layerId = "E27A6A66-A1F8-4E1B-8224-7C0FE77551F2";
paths = (
{
closed = 1;
nodes = (
"398 -10 OFFCURVE",
"436 -5 OFFCURVE",
"475 7 CURVE",
"475 77 LINE",
"444 66 OFFCURVE",
"410 60 OFFCURVE",
"371 60 CURVE SMOOTH",
"291 60 OFFCURVE",
"265 85 OFFCURVE",
"265 164 CURVE SMOOTH",
"265 730 LINE",
"25 730 LINE",
"25 660 LINE",
"185 660 LINE",
"185 147 LINE SMOOTH",
"185 34 OFFCURVE",
"233 -10 OFFCURVE",
"356 -10 CURVE SMOOTH"
);
}
);
vertWidth = 1000;
width = 500;
},
{
anchors = (
{
name = bottom;
position = "{250, 0}";
},
{
name = center;
position = "{250, 430}";
},
{
name = pdcenter;
position = "{390, 385}";
},
{
name = top;
position = "{250, 730}";
},
{
name = topright;
position = "{360, 460}";
}
);
layerId = "FC9CFCDA-9E80-4E73-BA51-8504D15957FA";
paths = (
{
closed = 1;
nodes = (
"392 -10 OFFCURVE",
"436 -4 OFFCURVE",
"480 9 CURVE",
"480 131 LINE",
"450 119 OFFCURVE",
"414 112 OFFCURVE",
"375 112 CURVE SMOOTH",
"316 112 OFFCURVE",
"300 128 OFFCURVE",
"300 187 CURVE SMOOTH",
"300 730 LINE",
"20 730 LINE",
"20 612 LINE",
"160 612 LINE",
"160 153 LINE SMOOTH",
"160 36 OFFCURVE",
"212 -10 OFFCURVE",
"344 -10 CURVE SMOOTH"
);
}
);
vertWidth = 1000;
width = 500;
},
{
anchors = (
{
name = bottom;
position = "{250, 0}";
},
{
name = center;
position = "{250, 430}";
},
{
name = pdcenter;
position = "{390, 385}";
},
{
name = top;
position = "{250, 730}";
},
{
name = topright;
position = "{360, 460}";
}
);
layerId = "D65C9A1E-0FCA-4B2D-8EDF-9F36CA9182A1";
paths = (
{
closed = 1;
nodes = (
"402 -10 OFFCURVE",
"436 -6 OFFCURVE",
"470 4 CURVE",
"470 25 LINE",
"438 15 OFFCURVE",
"407 10 OFFCURVE",
"367 10 CURVE SMOOTH",
"265 10 OFFCURVE",
"230 43 OFFCURVE",
"230 140 CURVE SMOOTH",
"230 730 LINE",
"30 730 LINE",
"30 710 LINE",
"210 710 LINE",
"210 140 LINE SMOOTH",
"210 32 OFFCURVE",
"254 -10 OFFCURVE",
"367 -10 CURVE SMOOTH"
);
}
);
width = 500;
}
);
leftKerningGroup = l;
rightKerningGroup = l;
unicode = 006C;
},
{
color = 11;
glyphname = lj;
lastChange = "2021-04-14 12:26:27 +0000";
layers = (
{
layerId = "D65C9A1E-0FCA-4B2D-8EDF-9F36CA9182A1";
paths = (
{
closed = 1;
nodes = (
"267 -10 OFFCURVE",
"293 -8 OFFCURVE",
"316 1 CURVE",
"316 20 LINE",
"295 14 OFFCURVE",
"274 10 OFFCURVE",
"246 10 CURVE SMOOTH",
"164 10 OFFCURVE",
"136 43 OFFCURVE",
"136 140 CURVE SMOOTH",
"136 730 LINE",
"5 730 LINE",
"5 710 LINE",
"116 710 LINE",
"116 140 LINE SMOOTH",
"116 32 OFFCURVE",
"152 -10 OFFCURVE",
"246 -10 CURVE SMOOTH"
);
},
{
closed = 1;
nodes = (
"369 -220 OFFCURVE",
"429 -131 OFFCURVE",
"429 41 CURVE SMOOTH",
"429 520 LINE",
"253 520 LINE",
"253 500 LINE",
"409 500 LINE",
"409 41 LINE SMOOTH",
"409 -120 OFFCURVE",
"356 -200 OFFCURVE",
"253 -200 CURVE",
"253 -220 LINE"
);
},
{
closed = 1;
nodes = (
"428 658 OFFCURVE",
"445 674 OFFCURVE",
"445 699 CURVE SMOOTH",
"445 724 OFFCURVE",
"428 740 OFFCURVE",
"403 740 CURVE SMOOTH",
"378 740 OFFCURVE",
"361 724 OFFCURVE",
"361 699 CURVE SMOOTH",
"361 674 OFFCURVE",
"378 658 OFFCURVE",
"403 658 CURVE SMOOTH"
);
}
);
width = 500;
},
{
layerId = "E27A6A66-A1F8-4E1B-8224-7C0FE77551F2";
paths = (
{
closed = 1;
nodes = (
"261 -10 OFFCURVE",
"277 -8 OFFCURVE",
"303 -3 CURVE",
"303 66 LINE",
"277 61 OFFCURVE",
"264 60 OFFCURVE",
"252 60 CURVE SMOOTH",
"192 60 OFFCURVE",
"173 85 OFFCURVE",
"173 164 CURVE SMOOTH",
"173 730 LINE",
"5 730 LINE",
"5 660 LINE",
"93 660 LINE",
"93 147 LINE SMOOTH",
"93 38 OFFCURVE",
"138 -10 OFFCURVE",
"240 -10 CURVE SMOOTH"
);
},
{
closed = 1;
nodes = (
"386 -220 OFFCURVE",
"453 -134 OFFCURVE",
"453 43 CURVE SMOOTH",
"453 520 LINE",
"254.002 520 LINE",
"254 450 LINE",
"373 450 LINE",
"373 37 LINE SMOOTH",
"373 -90 OFFCURVE",
"332 -150 OFFCURVE",
"246 -150 CURVE",
"246 -220 LINE"
);
},
{
closed = 1;
nodes = (
"437 614 OFFCURVE",
"465 640 OFFCURVE",
"465 682 CURVE SMOOTH",
"465 724 OFFCURVE",
"437 750 OFFCURVE",
"394 750 CURVE SMOOTH",
"351 750 OFFCURVE",
"323 724 OFFCURVE",
"323 682 CURVE SMOOTH",
"323 640 OFFCURVE",
"351 614 OFFCURVE",
"394 614 CURVE SMOOTH"
);
}
);
width = 500;
},
{
layerId = "FC9CFCDA-9E80-4E73-BA51-8504D15957FA";
paths = (
{
closed = 1;
nodes = (
"256 -10 OFFCURVE",
"274 -8 OFFCURVE",
"291 -5 CURVE",
"291 115 LINE",
"280 113 OFFCURVE",
"268 112 OFFCURVE",
"258 112 CURVE SMOOTH",
"219 112 OFFCURVE",
"209 128 OFFCURVE",
"209 187 CURVE SMOOTH",
"209 730 LINE",
"5 730 LINE",
"5 612 LINE",
"69 612 LINE",
"69 153 LINE SMOOTH",
"69 43 OFFCURVE",
"122 -10 OFFCURVE",
"234 -10 CURVE SMOOTH"
);
},
{
closed = 1;
nodes = (
"402 -220 OFFCURVE",
"477 -136 OFFCURVE",
"477 45 CURVE SMOOTH",
"477 520 LINE",
"255 520 LINE",
"255 402 LINE",
"337 402 LINE",
"337 34 LINE SMOOTH",
"337 -59 OFFCURVE",
"308 -98 OFFCURVE",
"239 -98 CURVE",
"239 -220 LINE"
);
},
{
closed = 1;
nodes = (
"451 580 OFFCURVE",
"485 614 OFFCURVE",
"485 670 CURVE SMOOTH",
"485 726 OFFCURVE",
"451 760 OFFCURVE",
"395 760 CURVE SMOOTH",
"339 760 OFFCURVE",
"305 726 OFFCURVE",
"305 670 CURVE SMOOTH",
"305 614 OFFCURVE",
"339 580 OFFCURVE",
"395 580 CURVE SMOOTH"
);
}
);
width = 500;
}
);
leftKerningGroup = l;
rightKerningGroup = g;
unicode = 01C9;
},
{
color = 11;
glyphname = lslash;
lastChange = "2021-04-13 16:17:28 +0000";
layers = (
{
components = (
{
name = l;
}
);
layerId = "D65C9A1E-0FCA-4B2D-8EDF-9F36CA9182A1";
paths = (
{
closed = 1;
nodes = (
"385 449 LINE",
"385 470 LINE",
"55 321 LINE",
"55 300 LINE"
);
}
);
width = 500;
},
{
components = (
{
name = l;
}
);
layerId = "E27A6A66-A1F8-4E1B-8224-7C0FE77551F2";
paths = (
{
closed = 1;
nodes = (
"395 421 LINE",
"395 498 LINE",
"55 349 LINE",
"55 272 LINE"
);
}
);
width = 500;
},
{
components = (
{
name = l;
}
);
layerId = "FC9CFCDA-9E80-4E73-BA51-8504D15957FA";
paths = (
{
closed = 1;
nodes = (
"405 394 LINE",
"405 525 LINE",
"55 376 LINE",
"55 245 LINE"
);
}
);
width = 500;
}
);
leftKerningGroup = o;
rightKerningGroup = f;
unicode = 0142;
},
{
color = 10;
glyphname = m;
lastChange = "2021-04-14 05:57:36 +0000";
layers = (
{
layerId = "E27A6A66-A1F8-4E1B-8224-7C0FE77551F2";
paths = (
{
closed = 1;
nodes = (
"106 0 LINE",
"106 462 LINE",
"87 427 LINE",
"105 449 OFFCURVE",
"130 460 OFFCURVE",
"162 460 CURVE SMOOTH",
"202 460 OFFCURVE",
"212 445 OFFCURVE",
"212 433 CURVE SMOOTH",
"212 0 LINE",
"288 0 LINE",
"288 463 LINE",
"272 428 LINE",
"292 451 OFFCURVE",
"309 460 OFFCURVE",
"337 460 CURVE SMOOTH",
"382 460 OFFCURVE",
"394 445 OFFCURVE",
"394 384 CURVE SMOOTH",
"394 0 LINE",
"470 0 LINE",
"470 383 LINE SMOOTH",
"470 495 OFFCURVE",
"442 530 OFFCURVE",
"353 530 CURVE SMOOTH",
"310 530 OFFCURVE",
"284 522 OFFCURVE",
"250 500 CURVE",
"222 523 OFFCURVE",
"200 530 OFFCURVE",
"157 530 CURVE SMOOTH",
"105 530 OFFCURVE",
"65 520 OFFCURVE",
"30 500 CURVE",
"30 0 LINE"
);
}
);
vertWidth = 1000;
width = 500;
},
{
layerId = "FC9CFCDA-9E80-4E73-BA51-8504D15957FA";
paths = (
{
closed = 1;
nodes = (
"146 0 LINE",
"146 428 LINE",
"131 370 LINE",
"139 397 OFFCURVE",
"152 410 OFFCURVE",
"171 410 CURVE SMOOTH",
"186 410 OFFCURVE",
"192 402 OFFCURVE",
"192 382 CURVE SMOOTH",
"192 0 LINE",
"308 0 LINE",
"308 428 LINE",
"293 370 LINE",
"301 397 OFFCURVE",
"314 410 OFFCURVE",
"333 410 CURVE SMOOTH",
"348 410 OFFCURVE",
"354 402 OFFCURVE",
"354 382 CURVE SMOOTH",
"354 0 LINE",
"480 0 LINE",
"480 380 LINE SMOOTH",
"480 493 OFFCURVE",
"449 530 OFFCURVE",
"355 530 CURVE SMOOTH",
"311 530 OFFCURVE",
"284 522 OFFCURVE",
"250 500 CURVE",
"222 523 OFFCURVE",
"201 530 OFFCURVE",
"157 530 CURVE SMOOTH",
"103 530 OFFCURVE",
"59 520 OFFCURVE",
"20 500 CURVE",
"20 0 LINE"
);
}
);
vertWidth = 1000;
width = 500;
},
{
background = {
paths = (
{
closed = 0;
nodes = (
"238 484 LINE",
"212 504 OFFCURVE",
"195 510 OFFCURVE",
"158 510 CURVE"
);
}
);
};
layerId = "D65C9A1E-0FCA-4B2D-8EDF-9F36CA9182A1";
paths = (
{
closed = 1;
nodes = (
"60 0 LINE",
"60 500 LINE",
"51 483 LINE",
"79 501 OFFCURVE",
"115 510 OFFCURVE",
"158 510 CURVE SMOOTH",
"235 510 OFFCURVE",
"240 472 OFFCURVE",
"240 472 CURVE SMOOTH",
"240 0 LINE",
"260 0 LINE",
"260 500 LINE",
"255 479 LINE",
"290 504 OFFCURVE",
"310 510 OFFCURVE",
"347 510 CURVE SMOOTH",
"421 510 OFFCURVE",
"440 486 OFFCURVE",
"440 386 CURVE SMOOTH",
"440 0 LINE",
"460 0 LINE",
"460 386 LINE SMOOTH",
"460 496 OFFCURVE",
"433 530 OFFCURVE",
"347 530 CURVE SMOOTH",
"308 530 OFFCURVE",
"285 523 OFFCURVE",
"250 500 CURVE",
"221 523 OFFCURVE",
"198 530 OFFCURVE",
"158 530 CURVE SMOOTH",
"110 530 OFFCURVE",
"72 520 OFFCURVE",
"40 500 CURVE",
"40 0 LINE"
);
}
);
width = 500;
}
);
leftKerningGroup = n;
rightKerningGroup = h;
rightMetricsKey = "=|";
unicode = 006D;
},
{
color = 10;
glyphname = n;
lastChange = "2021-04-14 05:58:24 +0000";
layers = (
{
anchors = (
{
name = bottom;
position = "{250, 0}";
},
{
name = top;
position = "{250, 520}";
}
);
layerId = "D65C9A1E-0FCA-4B2D-8EDF-9F36CA9182A1";
paths = (
{
closed = 1;
nodes = (
"100 0 LINE",
"100 494 LINE",
"89 480 LINE",
"132 501 OFFCURVE",
"179 510 OFFCURVE",
"242 510 CURVE SMOOTH",
"367 510 OFFCURVE",
"400 475 OFFCURVE",
"400 340 CURVE SMOOTH",
"400 0 LINE",
"420 0 LINE",
"420 340 LINE SMOOTH",
"420 486 OFFCURVE",
"378 530 OFFCURVE",
"242 530 CURVE SMOOTH",
"177 530 OFFCURVE",
"126 520 OFFCURVE",
"80 498 CURVE",
"80 0 LINE"
);
}
);
width = 500;
},
{
anchors = (
{
name = bottom;
position = "{250, 0}";
},
{
name = top;
position = "{250, 520}";
}
);
layerId = "E27A6A66-A1F8-4E1B-8224-7C0FE77551F2";
paths = (
{
closed = 1;
nodes = (
"143 0 LINE",
"143 478 LINE",
"117 428 LINE",
"165 453 OFFCURVE",
"196 460 OFFCURVE",
"242 460 CURVE SMOOTH",
"332 460 OFFCURVE",
"357 434 OFFCURVE",
"357 336 CURVE SMOOTH",
"357 0 LINE",
"435 0 LINE",
"435 340 LINE SMOOTH",
"435 486 OFFCURVE",
"390 530 OFFCURVE",
"241 530 CURVE SMOOTH",
"170 530 OFFCURVE",
"115 520 OFFCURVE",
"65 498 CURVE",
"65 0 LINE"
);
}
);
vertWidth = 1000;
width = 500;
},
{
anchors = (
{
name = bottom;
position = "{250, 0}";
},
{
name = top;
position = "{250, 520}";
}
);
layerId = "FC9CFCDA-9E80-4E73-BA51-8504D15957FA";
paths = (
{
closed = 1;
nodes = (
"188 0 LINE",
"188 462 LINE",
"143 376 LINE",
"195 405 OFFCURVE",
"211 410 OFFCURVE",
"240 410 CURVE SMOOTH",
"295 410 OFFCURVE",
"312 392 OFFCURVE",
"312 332 CURVE SMOOTH",
"312 0 LINE",
"450 0 LINE",
"450 340 LINE SMOOTH",
"450 486 OFFCURVE",
"401 530 OFFCURVE",
"240 530 CURVE SMOOTH",
"163 530 OFFCURVE",
"104 520 OFFCURVE",
"50 498 CURVE",
"50 0 LINE"
);
}
);
vertWidth = 1000;
width = 500;
}
);
leftKerningGroup = n;
rightKerningGroup = h;
rightMetricsKey = "=|";
unicode = 006E;
},
{
color = 11;
glyphname = eng;
lastChange = "2021-04-14 12:24:11 +0000";
layers = (
{
layerId = "D65C9A1E-0FCA-4B2D-8EDF-9F36CA9182A1";
paths = (
{
closed = 1;
nodes = (
"377 -211 OFFCURVE",
"420 -164 OFFCURVE",
"420 -61 CURVE SMOOTH",
"420 340 LINE SMOOTH",
"420 486 OFFCURVE",
"378 530 OFFCURVE",
"242 530 CURVE SMOOTH",
"177 530 OFFCURVE",
"126 520 OFFCURVE",
"80 498 CURVE",
"80 0 LINE",
"100 0 LINE",
"100 494 LINE",
"89 480 LINE",
"132 501 OFFCURVE",
"179 510 OFFCURVE",
"242 510 CURVE SMOOTH",
"367 510 OFFCURVE",
"400 475 OFFCURVE",
"400 340 CURVE SMOOTH",
"400 -61 LINE SMOOTH",
"400 -153 OFFCURVE",
"365 -191 OFFCURVE",
"280 -191 CURVE SMOOTH",
"255 -191 OFFCURVE",
"229 -186 OFFCURVE",
"207 -177 CURVE",
"207 -198 LINE",
"230 -206 OFFCURVE",
"255 -211 OFFCURVE",
"280 -211 CURVE SMOOTH"
);
}
);
width = 500;
},
{
layerId = "E27A6A66-A1F8-4E1B-8224-7C0FE77551F2";
paths = (
{
closed = 1;
nodes = (
"386 -218 OFFCURVE",
"435 -163 OFFCURVE",
"435 -37 CURVE SMOOTH",
"435 340 LINE SMOOTH",
"435 486 OFFCURVE",
"390 530 OFFCURVE",
"241 530 CURVE SMOOTH",
"170 530 OFFCURVE",
"115 520 OFFCURVE",
"65 498 CURVE",
"65 0 LINE",
"143 0 LINE",
"143 478 LINE",
"117 428 LINE",
"165 453 OFFCURVE",
"196 460 OFFCURVE",
"242 460 CURVE SMOOTH",
"332 460 OFFCURVE",
"357 434 OFFCURVE",
"357 336 CURVE SMOOTH",
"357 -37 LINE SMOOTH",
"357 -116 OFFCURVE",
"327 -148 OFFCURVE",
"256 -148 CURVE SMOOTH",
"231 -148 OFFCURVE",
"205 -143 OFFCURVE",
"181 -135 CURVE",
"181 -206 LINE",
"210 -214 OFFCURVE",
"241 -218 OFFCURVE",
"271 -218 CURVE SMOOTH"
);
}
);
vertWidth = 1000;
width = 500;
},
{
layerId = "FC9CFCDA-9E80-4E73-BA51-8504D15957FA";
paths = (
{
closed = 1;
nodes = (
"397 -224 OFFCURVE",
"450 -165 OFFCURVE",
"450 -17 CURVE SMOOTH",
"450 340 LINE SMOOTH",
"450 486 OFFCURVE",
"401 530 OFFCURVE",
"240 530 CURVE SMOOTH",
"163 530 OFFCURVE",
"104 520 OFFCURVE",
"50 498 CURVE",
"50 0 LINE",
"188 0 LINE",
"188 462 LINE",
"143 376 LINE",
"195 405 OFFCURVE",
"211 410 OFFCURVE",
"240 410 CURVE SMOOTH",
"295 410 OFFCURVE",
"312 392 OFFCURVE",
"312 332 CURVE SMOOTH",
"312 -17 LINE SMOOTH",
"312 -83 OFFCURVE",
"290 -107 OFFCURVE",
"233 -107 CURVE SMOOTH",
"209 -107 OFFCURVE",
"181 -103 OFFCURVE",
"156 -96 CURVE",
"156 -212 LINE",
"192 -219 OFFCURVE",
"223 -224 OFFCURVE",
"262 -224 CURVE SMOOTH"
);
}
);
vertWidth = 1000;
width = 500;
}
);
leftKerningGroup = n;
rightKerningGroup = g;
unicode = 014B;
},
{
color = 11;
glyphname = nj;
lastChange = "2021-04-14 12:35:58 +0000";
layers = (
{
layerId = "D65C9A1E-0FCA-4B2D-8EDF-9F36CA9182A1";
paths = (
{
closed = 1;
nodes = (
"52 0 LINE",
"52 494 LINE",
"44 482 LINE",
"70 501 OFFCURVE",
"99 510 OFFCURVE",
"139 510 CURVE SMOOTH",
"214 510 OFFCURVE",
"236 475 OFFCURVE",
"236 340 CURVE SMOOTH",
"236 0 LINE",
"256 0 LINE",
"256 340 LINE SMOOTH",
"256 485 OFFCURVE",
"228 530 OFFCURVE",
"139 530 CURVE SMOOTH",
"96 530 OFFCURVE",
"62 520 OFFCURVE",
"32 498 CURVE",
"32 0 LINE"
);
},
{
closed = 1;
nodes = (
"394 -220 OFFCURVE",
"458 -131 OFFCURVE",
"458 41 CURVE SMOOTH",
"458 520 LINE",
"269 520 LINE",
"269 500 LINE",
"438 500 LINE",
"438 41 LINE SMOOTH",
"438 -121 OFFCURVE",
"381 -200 OFFCURVE",
"269 -200 CURVE",
"269 -220 LINE"
);
},
{
closed = 1;
nodes = (
"451 658 OFFCURVE",
"468 674 OFFCURVE",
"468 699 CURVE SMOOTH",
"468 724 OFFCURVE",
"451 740 OFFCURVE",
"426 740 CURVE SMOOTH",
"401 740 OFFCURVE",
"384 724 OFFCURVE",
"384 699 CURVE SMOOTH",
"384 674 OFFCURVE",
"401 658 OFFCURVE",
"426 658 CURVE SMOOTH"
);
}
);
width = 500;
},
{
layerId = "E27A6A66-A1F8-4E1B-8224-7C0FE77551F2";
paths = (
{
closed = 1;
nodes = (
"101 0 LINE",
"101 478 LINE",
"79 429 LINE",
"101 451 OFFCURVE",
"121 460 OFFCURVE",
"146 460 CURVE SMOOTH",
"193 460 OFFCURVE",
"209 429 OFFCURVE",
"209 336 CURVE SMOOTH",
"209 0 LINE",
"287 0 LINE",
"287 340 LINE SMOOTH",
"287 486 OFFCURVE",
"255 530 OFFCURVE",
"149 530 CURVE SMOOTH",
"99 530 OFFCURVE",
"59 520 OFFCURVE",
"23 498 CURVE",
"23 0 LINE"
);
},
{
closed = 1;
nodes = (
"407 -220 OFFCURVE",
"473 -134 OFFCURVE",
"473 43 CURVE SMOOTH",
"473 520 LINE",
"288 520 LINE",
"288 451 LINE",
"395 451 LINE",
"395 37 LINE SMOOTH",
"395 -89 OFFCURVE",
"355 -149 OFFCURVE",
"272 -149 CURVE",
"272 -220 LINE"
);
},
{
closed = 1;
nodes = (
"455 614 OFFCURVE",
"483 640 OFFCURVE",
"483 682 CURVE SMOOTH",
"483 724 OFFCURVE",
"455 750 OFFCURVE",
"412 750 CURVE SMOOTH",
"369 750 OFFCURVE",
"341 724 OFFCURVE",
"341 682 CURVE SMOOTH",
"341 640 OFFCURVE",
"369 614 OFFCURVE",
"412 614 CURVE SMOOTH"
);
}
);
width = 500;
},
{
layerId = "FC9CFCDA-9E80-4E73-BA51-8504D15957FA";
paths = (
{
closed = 1;
nodes = (
"141 0 LINE",
"141 462 LINE",
"117 376 LINE",
"138 404 OFFCURVE",
"145 410 OFFCURVE",
"157 410 CURVE SMOOTH",
"179 410 OFFCURVE",
"187 390 OFFCURVE",
"187 332 CURVE SMOOTH",
"187 0 LINE",
"313 0 LINE",
"313 340 LINE SMOOTH",
"313 486 OFFCURVE",
"277 530 OFFCURVE",
"156 530 CURVE SMOOTH",
"99 530 OFFCURVE",
"55 520 OFFCURVE",
"15 498 CURVE",
"15 0 LINE"
);
},
{
closed = 1;
nodes = (
"417 -220 OFFCURVE",
"485 -136 OFFCURVE",
"485 45 CURVE SMOOTH",
"485 520 LINE",
"305 520 LINE",
"305 402 LINE",
"359 402 LINE",
"359 34 LINE SMOOTH",
"359 -60 OFFCURVE",
"334 -98 OFFCURVE",
"272 -98 CURVE",
"272 -220 LINE"
);
},
{
closed = 1;
nodes = (
"463 580 OFFCURVE",
"495 614 OFFCURVE",
"495 670 CURVE SMOOTH",
"495 726 OFFCURVE",
"463 760 OFFCURVE",
"410 760 CURVE SMOOTH",
"357 760 OFFCURVE",
"325 726 OFFCURVE",
"325 670 CURVE SMOOTH",
"325 614 OFFCURVE",
"357 580 OFFCURVE",
"410 580 CURVE SMOOTH"
);
}
);
width = 500;
}
);
leftKerningGroup = n;
rightKerningGroup = g;
unicode = 01CC;
},
{
color = 10;
glyphname = o;
lastChange = "2021-04-14 12:45:35 +0000";
layers = (
{
anchors = (
{
name = bottom;
position = "{250, 0}";
},
{
name = center;
position = "{250, 260}";
},
{
name = ogonek;
position = "{250, 0}";
},
{
name = top;
position = "{250, 520}";
},
{
name = topright;
position = "{275, 530}";
}
);
layerId = "E27A6A66-A1F8-4E1B-8224-7C0FE77551F2";
paths = (
{
closed = 1;
nodes = (
"388 -10 OFFCURVE",
"450 68 OFFCURVE",
"450 240 CURVE SMOOTH",
"450 280 LINE SMOOTH",
"450 452 OFFCURVE",
"388 530 OFFCURVE",
"250 530 CURVE SMOOTH",
"112 530 OFFCURVE",
"50 452 OFFCURVE",
"50 280 CURVE SMOOTH",
"50 240 LINE SMOOTH",
"50 68 OFFCURVE",
"112 -10 OFFCURVE",
"250 -10 CURVE SMOOTH"
);
},
{
closed = 1;
nodes = (
"164 60 OFFCURVE",
"130 113 OFFCURVE",
"130 245 CURVE SMOOTH",
"130 275 LINE SMOOTH",
"130 407 OFFCURVE",
"164 460 OFFCURVE",
"250 460 CURVE SMOOTH",
"336 460 OFFCURVE",
"370 407 OFFCURVE",
"370 275 CURVE SMOOTH",
"370 245 LINE SMOOTH",
"370 113 OFFCURVE",
"336 60 OFFCURVE",
"250 60 CURVE SMOOTH"
);
}
);
vertWidth = 1000;
width = 500;
},
{
anchors = (
{
name = bottom;
position = "{250, 0}";
},
{
name = center;
position = "{250, 260}";
},
{
name = ogonek;
position = "{250, 0}";
},
{
name = top;
position = "{250, 520}";
},
{
name = topright;
position = "{253, 530}";
}
);
layerId = "FC9CFCDA-9E80-4E73-BA51-8504D15957FA";
paths = (
{
closed = 1;
nodes = (
"398 -10 OFFCURVE",
"465 68 OFFCURVE",
"465 240 CURVE SMOOTH",
"465 280 LINE SMOOTH",
"465 452 OFFCURVE",
"398 530 OFFCURVE",
"250 530 CURVE SMOOTH",
"102 530 OFFCURVE",
"35 452 OFFCURVE",
"35 280 CURVE SMOOTH",
"35 240 LINE SMOOTH",
"35 68 OFFCURVE",
"102 -10 OFFCURVE",
"250 -10 CURVE SMOOTH"
);
},
{
closed = 1;
nodes = (
"195 112 OFFCURVE",
"175 149 OFFCURVE",
"175 250 CURVE SMOOTH",
"175 270 LINE SMOOTH",
"175 371 OFFCURVE",
"195 408 OFFCURVE",
"250 408 CURVE SMOOTH",
"305 408 OFFCURVE",
"325 371 OFFCURVE",
"325 270 CURVE SMOOTH",
"325 250 LINE SMOOTH",
"325 149 OFFCURVE",
"305 112 OFFCURVE",
"250 112 CURVE SMOOTH"
);
}
);
vertWidth = 1000;
width = 500;
},
{
anchors = (
{
name = bottom;
position = "{250, 0}";
},
{
name = center;
position = "{250, 260}";
},
{
name = ogonek;
position = "{250, 0}";
},
{
name = top;
position = "{250, 520}";
},
{
name = topright;
position = "{297, 530}";
}
);
layerId = "D65C9A1E-0FCA-4B2D-8EDF-9F36CA9182A1";
paths = (
{
closed = 1;
nodes = (
"377 -10 OFFCURVE",
"435 68 OFFCURVE",
"435 240 CURVE SMOOTH",
"435 280 LINE SMOOTH",
"435 452 OFFCURVE",
"377 530 OFFCURVE",
"250 530 CURVE SMOOTH",
"123 530 OFFCURVE",
"65 452 OFFCURVE",
"65 280 CURVE SMOOTH",
"65 240 LINE SMOOTH",
"65 68 OFFCURVE",
"123 -10 OFFCURVE",
"250 -10 CURVE SMOOTH"
);
},
{
closed = 1;
nodes = (
"135 10 OFFCURVE",
"85 79 OFFCURVE",
"85 240 CURVE SMOOTH",
"85 280 LINE SMOOTH",
"85 441 OFFCURVE",
"135 510 OFFCURVE",
"250 510 CURVE SMOOTH",
"365 510 OFFCURVE",
"415 441 OFFCURVE",
"415 280 CURVE SMOOTH",
"415 240 LINE SMOOTH",
"415 79 OFFCURVE",
"365 10 OFFCURVE",
"250 10 CURVE SMOOTH"
);
}
);
width = 500;
}
);
leftKerningGroup = o;
rightKerningGroup = o;
rightMetricsKey = "=|";
unicode = 006F;
},
{
color = 11;
glyphname = oslash;
lastChange = "2021-04-14 12:54:54 +0000";
layers = (
{
anchors = (
{
name = top;
position = "{250, 520}";
}
);
components = (
{
name = o;
}
);
layerId = "D65C9A1E-0FCA-4B2D-8EDF-9F36CA9182A1";
paths = (
{
closed = 1;
nodes = (
"88 -10 LINE",
"436 530 LINE",
"412 530 LINE",
"64 -10 LINE"
);
}
);
width = 500;
},
{
anchors = (
{
name = top;
position = "{250, 520}";
}
);
components = (
{
alignment = -1;
name = o;
}
);
layerId = "E27A6A66-A1F8-4E1B-8224-7C0FE77551F2";
paths = (
{
closed = 1;
nodes = (
"112 -10 LINE",
"462 530 LINE",
"388 530 LINE",
"38 -10 LINE"
);
}
);
vertWidth = 1000;
width = 500;
},
{
anchors = (
{
name = top;
position = "{250, 520}";
}
);
components = (
{
name = o;
}
);
layerId = "FC9CFCDA-9E80-4E73-BA51-8504D15957FA";
paths = (
{
closed = 1;
nodes = (
"124 -10 LINE",
"476 530 LINE",
"376 530 LINE",
"24 -10 LINE"
);
}
);
width = 500;
}
);
leftKerningGroup = o;
rightKerningGroup = o;
unicode = 00F8;
},
{
color = 11;
glyphname = oe;
lastChange = "2021-04-14 13:27:57 +0000";
layers = (
{
background = {
paths = (
{
closed = 1;
nodes = (
"407 -10 OFFCURVE",
"438 -4 OFFCURVE",
"463 6 CURVE",
"463 27 LINE",
"438 16 OFFCURVE",
"408 10 OFFCURVE",
"381 10 CURVE SMOOTH",
"294 10 OFFCURVE",
"255 66 OFFCURVE",
"255 240 CURVE SMOOTH",
"255 280 LINE SMOOTH",
"255 464 OFFCURVE",
"288 510 OFFCURVE",
"361 510 CURVE SMOOTH",
"434 510 OFFCURVE",
"467 464 OFFCURVE",
"467 280 CURVE SMOOTH",
"467 262 LINE",
"473 272 LINE",
"249 272 LINE",
"249 252 LINE",
"480 252 LINE",
"480 280 LINE SMOOTH",
"480 474 OFFCURVE",
"443 530 OFFCURVE",
"361 530 CURVE SMOOTH",
"279 530 OFFCURVE",
"242 474 OFFCURVE",
"242 280 CURVE SMOOTH",
"242 240 LINE SMOOTH",
"242 55 OFFCURVE",
"287 -10 OFFCURVE",
"381 -10 CURVE SMOOTH"
);
}
);
};
layerId = "D65C9A1E-0FCA-4B2D-8EDF-9F36CA9182A1";
paths = (
{
closed = 1;
nodes = (
"202 -10 OFFCURVE",
"235 23 OFFCURVE",
"251 101 CURVE",
"255 101 LINE",
"274 24 OFFCURVE",
"311 -10 OFFCURVE",
"381 -10 CURVE SMOOTH",
"408 -10 OFFCURVE",
"438 -5 OFFCURVE",
"462 5 CURVE",
"462 27 LINE",
"439 16 OFFCURVE",
"408 10 OFFCURVE",
"381 10 CURVE SMOOTH",
"294 10 OFFCURVE",
"262 73 OFFCURVE",
"262 240 CURVE SMOOTH",
"262 280 LINE SMOOTH",
"262 453 OFFCURVE",
"287 510 OFFCURVE",
"361 510 CURVE SMOOTH",
"435 510 OFFCURVE",
"460 453 OFFCURVE",
"460 280 CURVE SMOOTH",
"460 262 LINE",
"470 272 LINE",
"252 272 LINE",
"252 252 LINE",
"480 252 LINE",
"480 280 LINE SMOOTH",
"480 463 OFFCURVE",
"450 530 OFFCURVE",
"361 530 CURVE SMOOTH",
"301 530 OFFCURVE",
"269 499 OFFCURVE",
"254 426 CURVE",
"250 426 LINE",
"234 498 OFFCURVE",
"201 530 OFFCURVE",
"141 530 CURVE SMOOTH",
"53 530 OFFCURVE",
"20 462 OFFCURVE",
"20 280 CURVE SMOOTH",
"20 240 LINE SMOOTH",
"20 58 OFFCURVE",
"53 -10 OFFCURVE",
"141 -10 CURVE SMOOTH"
);
},
{
closed = 1;
nodes = (
"68 10 OFFCURVE",
"40 68 OFFCURVE",
"40 240 CURVE SMOOTH",
"40 280 LINE SMOOTH",
"40 452 OFFCURVE",
"68 510 OFFCURVE",
"141 510 CURVE SMOOTH",
"214 510 OFFCURVE",
"242 452 OFFCURVE",
"242 280 CURVE SMOOTH",
"242 240 LINE SMOOTH",
"242 68 OFFCURVE",
"214 10 OFFCURVE",
"141 10 CURVE SMOOTH"
);
}
);
width = 500;
},
{
layerId = "E27A6A66-A1F8-4E1B-8224-7C0FE77551F2";
paths = (
{
closed = 1;
nodes = (
"207 -10 OFFCURVE",
"240 13 OFFCURVE",
"259 67 CURVE",
"263 67 LINE",
"286 14 OFFCURVE",
"324 -10 OFFCURVE",
"379.998 -10 CURVE SMOOTH",
"408 -10 OFFCURVE",
"440 -4 OFFCURVE",
"467 6 CURVE",
"467 75 LINE",
"439 63 OFFCURVE",
"414 58 OFFCURVE",
"386 58 CURVE SMOOTH",
"308 58 OFFCURVE",
"287 97 OFFCURVE",
"287 243 CURVE SMOOTH",
"287 277 LINE SMOOTH",
"287 415 OFFCURVE",
"304 462 OFFCURVE",
"353 462 CURVE SMOOTH",
"402 462 OFFCURVE",
"419 415 OFFCURVE",
"419 277 CURVE SMOOTH",
"419 268 LINE",
"430 291 LINE",
"268 291 LINE",
"268 226 LINE",
"484 226 LINE",
"484 280 LINE SMOOTH",
"484 458 OFFCURVE",
"447 530 OFFCURVE",
"357 530 CURVE SMOOTH",
"309 530 OFFCURVE",
"279 509 OFFCURVE",
"260 460 CURVE",
"256 460 LINE",
"237 509 OFFCURVE",
"205 530 OFFCURVE",
"151 530 CURVE SMOOTH",
"53 530 OFFCURVE",
"15 460 OFFCURVE",
"15 280 CURVE SMOOTH",
"15 240 LINE SMOOTH",
"15 60 OFFCURVE",
"53 -10 OFFCURVE",
"151 -10 CURVE SMOOTH"
);
},
{
closed = 1;
nodes = (
"99 62 OFFCURVE",
"85 102 OFFCURVE",
"85 245 CURVE SMOOTH",
"85 275 LINE SMOOTH",
"85 418 OFFCURVE",
"99 458 OFFCURVE",
"151 458 CURVE SMOOTH",
"203 458 OFFCURVE",
"217 418 OFFCURVE",
"217 275 CURVE SMOOTH",
"217 245 LINE SMOOTH",
"217 102 OFFCURVE",
"203 62 OFFCURVE",
"151 62 CURVE SMOOTH"
);
}
);
vertWidth = 1000;
width = 500;
},
{
background = {
paths = (
{
closed = 1;
nodes = (
"408 -10 OFFCURVE",
"442 -4 OFFCURVE",
"471 6 CURVE",
"471 124 LINE",
"433 111 OFFCURVE",
"411 108 OFFCURVE",
"386 108 CURVE SMOOTH",
"318 108 OFFCURVE",
"305 130 OFFCURVE",
"305 246 CURVE SMOOTH",
"305 274 LINE SMOOTH",
"305 376 OFFCURVE",
"318 412 OFFCURVE",
"354 412 CURVE SMOOTH",
"390 412 OFFCURVE",
"403 376 OFFCURVE",
"403 274 CURVE",
"403 274 LINE",
"419 309 LINE",
"261 309 LINE",
"261 199 LINE",
"490 199 LINE",
"490 280 LINE SMOOTH",
"490 452 OFFCURVE",
"448 530 OFFCURVE",
"354 530 CURVE SMOOTH",
"259 530 OFFCURVE",
"217 452 OFFCURVE",
"217 280 CURVE SMOOTH",
"217 240 LINE SMOOTH",
"217 70 OFFCURVE",
"269 -10 OFFCURVE",
"378 -10 CURVE SMOOTH"
);
}
);
};
layerId = "FC9CFCDA-9E80-4E73-BA51-8504D15957FA";
paths = (
{
closed = 1;
nodes = (
"209 -10 OFFCURVE",
"244 4 OFFCURVE",
"267 33 CURVE",
"271 33 LINE",
"297 4 OFFCURVE",
"335 -10 OFFCURVE",
"379 -10 CURVE SMOOTH",
"408 -10 OFFCURVE",
"441 -4 OFFCURVE",
"471 6 CURVE",
"471 124 LINE",
"437 112 OFFCURVE",
"421 108 OFFCURVE",
"391 108 CURVE SMOOTH",
"323 108 OFFCURVE",
"312 127 OFFCURVE",
"312 246 CURVE SMOOTH",
"312 274 LINE SMOOTH",
"312 378 OFFCURVE",
"320 412 OFFCURVE",
"346 412 CURVE SMOOTH",
"372 412 OFFCURVE",
"380 378 OFFCURVE",
"380 274 CURVE",
"380 274 LINE",
"391 309 LINE",
"283 309 LINE",
"283 199 LINE",
"490 199 LINE",
"490 280 LINE SMOOTH",
"490 453 OFFCURVE",
"448 530 OFFCURVE",
"354 530 CURVE SMOOTH",
"317 530 OFFCURVE",
"288 518 OFFCURVE",
"266 493 CURVE",
"262 493 LINE",
"239 518 OFFCURVE",
"206 530 OFFCURVE",
"161 530 CURVE SMOOTH",
"47 530 OFFCURVE",
"10 452 OFFCURVE",
"10 280 CURVE SMOOTH",
"10 240 LINE SMOOTH",
"10 68 OFFCURVE",
"47 -10 OFFCURVE",
"161 -10 CURVE SMOOTH"
);
},
{
closed = 1;
nodes = (
"133 112 OFFCURVE",
"130 126 OFFCURVE",
"130 250 CURVE SMOOTH",
"130 270 LINE SMOOTH",
"130 394 OFFCURVE",
"133 408 OFFCURVE",
"161 408 CURVE SMOOTH",
"189 408 OFFCURVE",
"192 394 OFFCURVE",
"192 270 CURVE SMOOTH",
"192 250 LINE SMOOTH",
"192 126 OFFCURVE",
"189 112 OFFCURVE",
"161 112 CURVE SMOOTH"
);
}
);
vertWidth = 1000;
width = 500;
}
);
leftKerningGroup = o;
rightKerningGroup = o;
unicode = 0153;
},
{
color = 10;
glyphname = p;
lastChange = "2021-04-07 10:22:54 +0000";
layers = (
{
layerId = "D65C9A1E-0FCA-4B2D-8EDF-9F36CA9182A1";
paths = (
{
closed = 1;
nodes = (
"108 -210 LINE",
"108 498 LINE",
"97 480 LINE",
"135 500 OFFCURVE",
"185 510 OFFCURVE",
"242 510 CURVE SMOOTH",
"377 510 OFFCURVE",
"418 455 OFFCURVE",
"418 270 CURVE SMOOTH",
"418 78 OFFCURVE",
"371 10 OFFCURVE",
"239 10 CURVE SMOOTH",
"188 10 OFFCURVE",
"138 20 OFFCURVE",
"99 39 CURVE",
"90 21 LINE",
"128 3 OFFCURVE",
"180 -10 OFFCURVE",
"239 -10 CURVE SMOOTH",
"383 -10 OFFCURVE",
"438 67 OFFCURVE",
"438 270 CURVE SMOOTH",
"438 465 OFFCURVE",
"389 530 OFFCURVE",
"242 530 CURVE SMOOTH",
"182 530 OFFCURVE",
"129 519 OFFCURVE",
"88 498 CURVE",
"88 -210 LINE"
);
}
);
width = 500;
},
{
layerId = "E27A6A66-A1F8-4E1B-8224-7C0FE77551F2";
paths = (
{
closed = 1;
nodes = (
"150 -210 LINE",
"150 480 LINE",
"131 435 LINE",
"170 453 OFFCURVE",
"207 460 OFFCURVE",
"247 460 CURVE SMOOTH",
"345 460 OFFCURVE",
"374 416 OFFCURVE",
"374 269 CURVE SMOOTH",
"374 111 OFFCURVE",
"342 59 OFFCURVE",
"243 59 CURVE SMOOTH",
"206 59 OFFCURVE",
"169 66 OFFCURVE",
"130 82 CURVE",
"108 11 LINE",
"143 -2 OFFCURVE",
"188 -10 OFFCURVE",
"236 -10 CURVE SMOOTH",
"392 -10 OFFCURVE",
"452 68 OFFCURVE",
"452 270 CURVE SMOOTH",
"452 463 OFFCURVE",
"396 530 OFFCURVE",
"237 530 CURVE SMOOTH",
"174 530 OFFCURVE",
"117 519 OFFCURVE",
"72 498 CURVE",
"72 -210 LINE"
);
}
);
vertWidth = 1000;
width = 500;
},
{
layerId = "FC9CFCDA-9E80-4E73-BA51-8504D15957FA";
paths = (
{
closed = 1;
nodes = (
"194 -210 LINE",
"194 462 LINE",
"163 390 LINE",
"203 405 OFFCURVE",
"227 410 OFFCURVE",
"250 410 CURVE SMOOTH",
"310 410 OFFCURVE",
"328 377 OFFCURVE",
"328 267 CURVE SMOOTH",
"328 143 OFFCURVE",
"310 108 OFFCURVE",
"244 108 CURVE SMOOTH",
"222 108 OFFCURVE",
"198 112 OFFCURVE",
"159 124 CURVE",
"125 1 LINE",
"158 -6 OFFCURVE",
"195 -10 OFFCURVE",
"233 -10 CURVE SMOOTH",
"401 -10 OFFCURVE",
"466 68 OFFCURVE",
"466 270 CURVE SMOOTH",
"466 460 OFFCURVE",
"403 530 OFFCURVE",
"232 530 CURVE SMOOTH",
"165 530 OFFCURVE",
"104 519 OFFCURVE",
"56 498 CURVE",
"56 -210 LINE"
);
}
);
vertWidth = 1000;
width = 500;
}
);
leftKerningGroup = n;
rightKerningGroup = o;
unicode = 0070;
},
{
color = 11;
glyphname = thorn;
lastChange = "2021-04-15 03:21:01 +0000";
layers = (
{
background = {
components = (
{
name = p;
}
);
};
layerId = "D65C9A1E-0FCA-4B2D-8EDF-9F36CA9182A1";
paths = (
{
closed = 1;
nodes = (
"383 -10 OFFCURVE",
"438 65 OFFCURVE",
"438 260 CURVE SMOOTH",
"438 455 OFFCURVE",
"383 530 OFFCURVE",
"239 530 CURVE SMOOTH",
"184 530 OFFCURVE",
"132 519 OFFCURVE",
"90 499 CURVE",
"99 481 LINE",
"138 500 OFFCURVE",
"187 510 OFFCURVE",
"239 510 CURVE SMOOTH",
"370 510 OFFCURVE",
"418 445 OFFCURVE",
"418 260 CURVE SMOOTH",
"418 75 OFFCURVE",
"370 10 OFFCURVE",
"239 10 CURVE SMOOTH",
"187 10 OFFCURVE",
"138 20 OFFCURVE",
"99 39 CURVE",
"90 21 LINE",
"132 1 OFFCURVE",
"184 -10 OFFCURVE",
"239 -10 CURVE SMOOTH"
);
},
{
closed = 1;
nodes = (
"108 -210 LINE",
"108 730 LINE",
"88 730 LINE",
"88 -210 LINE"
);
}
);
width = 500;
},
{
background = {
components = (
{
name = p;
}
);
};
layerId = "E27A6A66-A1F8-4E1B-8224-7C0FE77551F2";
paths = (
{
closed = 1;
nodes = (
"391 -10 OFFCURVE",
"452 66 OFFCURVE",
"452 260 CURVE SMOOTH",
"452 454 OFFCURVE",
"391 530 OFFCURVE",
"236 530 CURVE SMOOTH",
"189 530 OFFCURVE",
"145 523 OFFCURVE",
"108 509 CURVE",
"130 438 LINE",
"168 453 OFFCURVE",
"203 461 OFFCURVE",
"243 461 CURVE SMOOTH",
"342 461 OFFCURVE",
"374 412 OFFCURVE",
"374 260 CURVE SMOOTH",
"374 108 OFFCURVE",
"342 59 OFFCURVE",
"243 59 CURVE SMOOTH",
"203 59 OFFCURVE",
"168 67 OFFCURVE",
"130 82 CURVE",
"108 11 LINE",
"145 -3 OFFCURVE",
"189 -10 OFFCURVE",
"236 -10 CURVE SMOOTH"
);
},
{
closed = 1;
nodes = (
"150 -210 LINE",
"150 730 LINE",
"72 730 LINE",
"72 -210 LINE"
);
}
);
vertWidth = 1000;
width = 500;
},
{
background = {
components = (
{
name = p;
}
);
};
layerId = "FC9CFCDA-9E80-4E73-BA51-8504D15957FA";
paths = (
{
closed = 1;
nodes = (
"401 -10 OFFCURVE",
"466 65 OFFCURVE",
"466 260 CURVE SMOOTH",
"466 455 OFFCURVE",
"401 530 OFFCURVE",
"233 530 CURVE SMOOTH",
"195 530 OFFCURVE",
"158 526 OFFCURVE",
"125 519 CURVE",
"159 396 LINE",
"198 408 OFFCURVE",
"221 412 OFFCURVE",
"244 412 CURVE SMOOTH",
"310 412 OFFCURVE",
"328 379 OFFCURVE",
"328 260 CURVE SMOOTH",
"328 141 OFFCURVE",
"310 108 OFFCURVE",
"244 108 CURVE SMOOTH",
"221 108 OFFCURVE",
"198 112 OFFCURVE",
"159 124 CURVE",
"125 1 LINE",
"158 -6 OFFCURVE",
"195 -10 OFFCURVE",
"233 -10 CURVE SMOOTH"
);
},
{
closed = 1;
nodes = (
"194 -210 LINE",
"194 730 LINE",
"56 730 LINE",
"56 -210 LINE"
);
}
);
vertWidth = 1000;
width = 500;
}
);
leftKerningGroup = b;
rightKerningGroup = o;
unicode = 00FE;
},
{
color = 10;
glyphname = r;
lastChange = "2021-04-15 03:22:30 +0000";
layers = (
{
anchors = (
{
name = bottom;
position = "{280, 0}";
},
{
name = top;
position = "{280, 520}";
}
);
layerId = "D65C9A1E-0FCA-4B2D-8EDF-9F36CA9182A1";
paths = (
{
closed = 1;
nodes = (
"178 0 LINE",
"178 470 LINE",
"172 459 LINE",
"260 490 OFFCURVE",
"369 510 OFFCURVE",
"448 510 CURVE",
"448 530 LINE",
"363 530 OFFCURVE",
"247 508 OFFCURVE",
"158 475 CURVE",
"158 0 LINE"
);
}
);
width = 500;
},
{
anchors = (
{
name = bottom;
position = "{270, 0}";
},
{
name = top;
position = "{270, 520}";
}
);
layerId = "E27A6A66-A1F8-4E1B-8224-7C0FE77551F2";
paths = (
{
closed = 1;
nodes = (
"206 0 LINE",
"206 453 LINE",
"186 415 LINE",
"260 442 OFFCURVE",
"364 460 OFFCURVE",
"446 460 CURVE",
"446 530 LINE",
"352 530 OFFCURVE",
"224 508 OFFCURVE",
"126 475 CURVE",
"126 0 LINE"
);
}
);
vertWidth = 1000;
width = 500;
},
{
anchors = (
{
name = bottom;
position = "{260, 0}";
},
{
name = top;
position = "{260, 520}";
}
);
layerId = "FC9CFCDA-9E80-4E73-BA51-8504D15957FA";
paths = (
{
closed = 1;
nodes = (
"234 0 LINE",
"234 435 LINE",
"199 370 LINE",
"260 394 OFFCURVE",
"358 410 OFFCURVE",
"444 410 CURVE",
"444 530 LINE",
"341 530 OFFCURVE",
"201 508 OFFCURVE",
"94 475 CURVE",
"94 0 LINE"
);
}
);
vertWidth = 1000;
width = 500;
}
);
leftKerningGroup = n;
rightKerningGroup = r;
unicode = 0072;
},
{
color = 10;
glyphname = s;
lastChange = "2021-04-15 03:23:54 +0000";
layers = (
{
anchors = (
{
name = bottom;
position = "{250, 0}";
},
{
name = cedi;
position = "{250, 0}";
},
{
name = top;
position = "{250, 520}";
}
);
layerId = "D65C9A1E-0FCA-4B2D-8EDF-9F36CA9182A1";
paths = (
{
closed = 1;
nodes = (
"357 -10 OFFCURVE",
"430 36 OFFCURVE",
"430 122 CURVE SMOOTH",
"430 193 OFFCURVE",
"381 235 OFFCURVE",
"248 285 CURVE SMOOTH",
"126 331 OFFCURVE",
"90 362 OFFCURVE",
"90 415 CURVE SMOOTH",
"90 480 OFFCURVE",
"142 510 OFFCURVE",
"264 510 CURVE SMOOTH",
"315 510 OFFCURVE",
"342 504 OFFCURVE",
"401 490 CURVE",
"386 511 LINE",
"386 370 LINE",
"406 370 LINE",
"406 509 LINE",
"346 524 OFFCURVE",
"317 530 OFFCURVE",
"264 530 CURVE SMOOTH",
"132 530 OFFCURVE",
"70 493 OFFCURVE",
"70 415 CURVE SMOOTH",
"70 351 OFFCURVE",
"112 315 OFFCURVE",
"241 266 CURVE SMOOTH",
"367 219 OFFCURVE",
"410 182 OFFCURVE",
"410 122 CURVE SMOOTH",
"410 49 OFFCURVE",
"346 10 OFFCURVE",
"225 10 CURVE SMOOTH",
"166 10 OFFCURVE",
"122 19 OFFCURVE",
"75 39 CURVE",
"75 17 LINE",
"123 -2 OFFCURVE",
"169 -10 OFFCURVE",
"225 -10 CURVE SMOOTH"
);
}
);
width = 500;
},
{
anchors = (
{
name = bottom;
position = "{250, 0}";
},
{
name = cedi;
position = "{250, 0}";
},
{
name = top;
position = "{250, 520}";
}
);
layerId = "E27A6A66-A1F8-4E1B-8224-7C0FE77551F2";
paths = (
{
closed = 1;
nodes = (
"365 -10 OFFCURVE",
"440 39 OFFCURVE",
"440 132 CURVE SMOOTH",
"440 205 OFFCURVE",
"394 248 OFFCURVE",
"266 295 CURVE SMOOTH",
"170 332 OFFCURVE",
"140 355 OFFCURVE",
"140 393 CURVE SMOOTH",
"140 439 OFFCURVE",
"183 460 OFFCURVE",
"278 460 CURVE SMOOTH",
"314 460 OFFCURVE",
"337 457 OFFCURVE",
"374 449 CURVE",
"338 496 LINE",
"338 355 LINE",
"416 355 LINE",
"416 509 LINE",
"351 525 OFFCURVE",
"314 530 OFFCURVE",
"265 530 CURVE SMOOTH",
"125 530 OFFCURVE",
"60 489 OFFCURVE",
"60 400 CURVE SMOOTH",
"60 324 OFFCURVE",
"108 278 OFFCURVE",
"237 231 CURVE SMOOTH",
"327 199 OFFCURVE",
"360 173 OFFCURVE",
"360 134 CURVE SMOOTH",
"360 86 OFFCURVE",
"311 60 OFFCURVE",
"218 60 CURVE SMOOTH",
"166 60 OFFCURVE",
"121 68 OFFCURVE",
"68 88 CURVE",
"68 17 LINE",
"116 -2 OFFCURVE",
"167 -10 OFFCURVE",
"224 -10 CURVE SMOOTH"
);
}
);
vertWidth = 1000;
width = 500;
},
{
anchors = (
{
name = bottom;
position = "{250, 0}";
},
{
name = cedi;
position = "{250, 0}";
},
{
name = top;
position = "{250, 520}";
}
);
layerId = "FC9CFCDA-9E80-4E73-BA51-8504D15957FA";
paths = (
{
closed = 1;
nodes = (
"373 -10 OFFCURVE",
"450 41 OFFCURVE",
"450 141 CURVE SMOOTH",
"450 217 OFFCURVE",
"403 262 OFFCURVE",
"284 305 CURVE SMOOTH",
"213 332 OFFCURVE",
"190 348 OFFCURVE",
"190 370 CURVE SMOOTH",
"190 397 OFFCURVE",
"224 410 OFFCURVE",
"292 410 CURVE SMOOTH",
"312 410 OFFCURVE",
"331 409 OFFCURVE",
"347 408 CURVE",
"288 480 LINE",
"288 340 LINE",
"426 340 LINE",
"426 508 LINE",
"356 525 OFFCURVE",
"312 530 OFFCURVE",
"265 530 CURVE SMOOTH",
"120 530 OFFCURVE",
"50 483 OFFCURVE",
"50 385 CURVE SMOOTH",
"50 295 OFFCURVE",
"99 242 OFFCURVE",
"233 195 CURVE SMOOTH",
"291 176 OFFCURVE",
"310 164 OFFCURVE",
"310 146 CURVE SMOOTH",
"310 123 OFFCURVE",
"274 110 OFFCURVE",
"211 110 CURVE SMOOTH",
"162 110 OFFCURVE",
"119 117 OFFCURVE",
"60 136 CURVE",
"60 16 LINE",
"108 -1 OFFCURVE",
"158 -10 OFFCURVE",
"222 -10 CURVE SMOOTH"
);
}
);
vertWidth = 1000;
width = 500;
}
);
leftKerningGroup = s;
rightKerningGroup = s;
unicode = 0073;
},
{
color = 11;
glyphname = germandbls;
lastChange = "2021-04-15 05:00:16 +0000";
layers = (
{
layerId = "D65C9A1E-0FCA-4B2D-8EDF-9F36CA9182A1";
paths = (
{
closed = 1;
nodes = (
"406 -10 OFFCURVE",
"472 56 OFFCURVE",
"472 185 CURVE SMOOTH",
"472 293 OFFCURVE",
"426 355 OFFCURVE",
"333 373 CURVE",
"333 377 LINE",
"383 401 OFFCURVE",
"410 463 OFFCURVE",
"410 550 CURVE SMOOTH",
"410 677 OFFCURVE",
"352 740 OFFCURVE",
"236 740 CURVE SMOOTH",
"119 740 OFFCURVE",
"62 676 OFFCURVE",
"62 545 CURVE SMOOTH",
"62 0 LINE",
"82 0 LINE",
"82 545 LINE SMOOTH",
"82 665 OFFCURVE",
"131 720 OFFCURVE",
"236 720 CURVE SMOOTH",
"341 720 OFFCURVE",
"390 666 OFFCURVE",
"390 550 CURVE SMOOTH",
"390 440 OFFCURVE",
"346 380 OFFCURVE",
"268 380 CURVE SMOOTH",
"248 380 LINE",
"248 360 LINE",
"268 360 LINE SMOOTH",
"393 360 OFFCURVE",
"452 304 OFFCURVE",
"452 185 CURVE SMOOTH",
"452 67 OFFCURVE",
"395 10 OFFCURVE",
"278 10 CURVE SMOOTH",
"240 10 OFFCURVE",
"207 16 OFFCURVE",
"178 27 CURVE",
"178 6 LINE",
"207 -5 OFFCURVE",
"243 -10 OFFCURVE",
"278 -10 CURVE SMOOTH"
);
}
);
width = 500;
},
{
layerId = "E27A6A66-A1F8-4E1B-8224-7C0FE77551F2";
paths = (
{
closed = 1;
nodes = (
"419 -10 OFFCURVE",
"483 60 OFFCURVE",
"483 196 CURVE SMOOTH",
"483 303 OFFCURVE",
"444 360 OFFCURVE",
"356 378 CURVE",
"356 382 LINE",
"403 412 OFFCURVE",
"425 463 OFFCURVE",
"425 541 CURVE SMOOTH",
"425 673 OFFCURVE",
"361 740 OFFCURVE",
"233.996 740 CURVE SMOOTH",
"106 740 OFFCURVE",
"43 672 OFFCURVE",
"43 533 CURVE SMOOTH",
"43 0 LINE",
"123 0 LINE",
"123 523 LINE SMOOTH",
"123 626 OFFCURVE",
"155 668 OFFCURVE",
"234 668 CURVE SMOOTH",
"311 668 OFFCURVE",
"345 628 OFFCURVE",
"345 536 CURVE SMOOTH",
"345 450 OFFCURVE",
"316 409 OFFCURVE",
"255 409 CURVE SMOOTH",
"230 409 LINE",
"230 326 LINE",
"260 326 LINE SMOOTH",
"360 326 OFFCURVE",
"401 288 OFFCURVE",
"401 195 CURVE SMOOTH",
"401 104 OFFCURVE",
"362 62 OFFCURVE",
"279 62 CURVE SMOOTH",
"250 62 OFFCURVE",
"223 67 OFFCURVE",
"195 78 CURVE",
"195 5 LINE",
"227 -6 OFFCURVE",
"265 -10 OFFCURVE",
"295 -10 CURVE SMOOTH"
);
}
);
vertWidth = 1000;
width = 500;
},
{
layerId = "FC9CFCDA-9E80-4E73-BA51-8504D15957FA";
paths = (
{
closed = 1;
nodes = (
"434 -10 OFFCURVE",
"494 58 OFFCURVE",
"494 197 CURVE SMOOTH",
"494 306 OFFCURVE",
"456 367 OFFCURVE",
"379 382 CURVE",
"379 386 LINE",
"423 423 OFFCURVE",
"440 462 OFFCURVE",
"440 532 CURVE SMOOTH",
"440 671 OFFCURVE",
"371 740 OFFCURVE",
"232 740 CURVE SMOOTH",
"93 740 OFFCURVE",
"24 668 OFFCURVE",
"24 522 CURVE SMOOTH",
"24 0 LINE",
"164 0 LINE",
"164 502 LINE SMOOTH",
"164 596 OFFCURVE",
"183 618 OFFCURVE",
"232 618 CURVE SMOOTH",
"283 618 OFFCURVE",
"300 594 OFFCURVE",
"300 522 CURVE SMOOTH",
"300 456 OFFCURVE",
"287 437 OFFCURVE",
"242 437 CURVE SMOOTH",
"212 437 LINE",
"212 293 LINE",
"252 293 LINE SMOOTH",
"327 293 OFFCURVE",
"350 272 OFFCURVE",
"350 204 CURVE SMOOTH",
"350 139 OFFCURVE",
"329 112 OFFCURVE",
"279 112 CURVE SMOOTH",
"260 112 OFFCURVE",
"238 116 OFFCURVE",
"212 126 CURVE",
"212 4 LINE",
"246 -6 OFFCURVE",
"281 -10 OFFCURVE",
"311 -10 CURVE SMOOTH"
);
}
);
vertWidth = 1000;
width = 500;
}
);
leftKerningGroup = h;
rightKerningGroup = X;
unicode = 00DF;
},
{
color = 10;
glyphname = t;
lastChange = "2021-04-15 05:13:22 +0000";
layers = (
{
anchors = (
{
name = bottom;
position = "{220, 0}";
},
{
name = cedi;
position = "{291, 0}";
},
{
name = center;
position = "{220, 260}";
},
{
name = top;
position = "{220, 520}";
},
{
name = topright;
position = "{480, 520}";
}
);
layerId = "D65C9A1E-0FCA-4B2D-8EDF-9F36CA9182A1";
paths = (
{
closed = 1;
nodes = (
"374 -10 OFFCURVE",
"408 -6 OFFCURVE",
"442 4 CURVE",
"442 25 LINE",
"410 15 OFFCURVE",
"379 10 OFFCURVE",
"339 10 CURVE SMOOTH",
"237 10 OFFCURVE",
"202 43 OFFCURVE",
"202 140 CURVE SMOOTH",
"202 500 LINE",
"442 500 LINE",
"442 520 LINE",
"202 520 LINE",
"202 690 LINE",
"182 690 LINE",
"182 520 LINE",
"22 520 LINE",
"22 500 LINE",
"182 500 LINE",
"182 140 LINE SMOOTH",
"182 32 OFFCURVE",
"226 -10 OFFCURVE",
"339 -10 CURVE SMOOTH"
);
}
);
width = 500;
},
{
anchors = (
{
name = bottom;
position = "{220, 0}";
},
{
name = cedi;
position = "{291, 0}";
},
{
name = center;
position = "{220, 260}";
},
{
name = top;
position = "{220, 520}";
},
{
name = topright;
position = "{480, 520}";
}
);
layerId = "E27A6A66-A1F8-4E1B-8224-7C0FE77551F2";
paths = (
{
closed = 1;
nodes = (
"370 -10 OFFCURVE",
"408 -5 OFFCURVE",
"447 7 CURVE",
"447 77 LINE",
"416 66 OFFCURVE",
"382 60 OFFCURVE",
"343 60 CURVE SMOOTH",
"263 60 OFFCURVE",
"237 85 OFFCURVE",
"237 164 CURVE SMOOTH",
"237 450 LINE",
"447 450 LINE",
"447 520 LINE",
"237 520 LINE",
"237 690 LINE",
"157 690 LINE",
"157 520 LINE",
"17 520 LINE",
"17 450 LINE",
"157 450 LINE",
"157 147 LINE SMOOTH",
"157 34 OFFCURVE",
"205 -10 OFFCURVE",
"328 -10 CURVE SMOOTH"
);
}
);
vertWidth = 1000;
width = 500;
},
{
anchors = (
{
name = bottom;
position = "{220, 0}";
},
{
name = cedi;
position = "{291, 0}";
},
{
name = center;
position = "{220, 260}";
},
{
name = top;
position = "{220, 520}";
},
{
name = topright;
position = "{480, 520}";
}
);
layerId = "FC9CFCDA-9E80-4E73-BA51-8504D15957FA";
paths = (
{
closed = 1;
nodes = (
"364 -10 OFFCURVE",
"408 -4 OFFCURVE",
"452 9 CURVE",
"452 131 LINE",
"422 119 OFFCURVE",
"386 112 OFFCURVE",
"347 112 CURVE SMOOTH",
"288 112 OFFCURVE",
"272 128 OFFCURVE",
"272 187 CURVE SMOOTH",
"272 402 LINE",
"452 402 LINE",
"452 520 LINE",
"272 520 LINE",
"272 690 LINE",
"132 690 LINE",
"132 520 LINE",
"12 520 LINE",
"12 402 LINE",
"132 402 LINE",
"132 153 LINE SMOOTH",
"132 36 OFFCURVE",
"184 -10 OFFCURVE",
"316 -10 CURVE SMOOTH"
);
}
);
vertWidth = 1000;
width = 500;
}
);
leftKerningGroup = f;
rightKerningGroup = c;
unicode = 0074;
},
{
color = 11;
glyphname = tbar;
lastChange = "2021-04-15 05:06:46 +0000";
layers = (
{
components = (
{
name = t;
}
);
layerId = "D65C9A1E-0FCA-4B2D-8EDF-9F36CA9182A1";
paths = (
{
closed = 1;
nodes = (
"442 265 LINE",
"442 285 LINE",
"22 285 LINE",
"22 265 LINE"
);
}
);
width = 500;
},
{
components = (
{
name = t;
}
);
layerId = "E27A6A66-A1F8-4E1B-8224-7C0FE77551F2";
paths = (
{
closed = 1;
nodes = (
"447 235 LINE",
"447 305 LINE",
"17 305 LINE",
"17 235 LINE"
);
}
);
vertWidth = 1000;
width = 500;
},
{
components = (
{
name = t;
}
);
layerId = "FC9CFCDA-9E80-4E73-BA51-8504D15957FA";
paths = (
{
closed = 1;
nodes = (
"452 206 LINE",
"452 324 LINE",
"12 324 LINE",
"12 206 LINE"
);
}
);
vertWidth = 1000;
width = 500;
}
);
leftKerningGroup = f;
rightKerningGroup = c;
unicode = 0167;
},
{
color = 10;
glyphname = u;
lastChange = "2021-04-15 05:28:16 +0000";
layers = (
{
anchors = (
{
name = bottom;
position = "{250, 0}";
},
{
name = ogonek;
position = "{326, 0}";
},
{
name = top;
position = "{250, 520}";
},
{
name = topright;
position = "{377, 530}";
}
);
layerId = "D65C9A1E-0FCA-4B2D-8EDF-9F36CA9182A1";
paths = (
{
closed = 1;
nodes = (
"323 -10 OFFCURVE",
"374 0 OFFCURVE",
"420 22 CURVE",
"420 520 LINE",
"400 520 LINE",
"400 26 LINE",
"411 40 LINE",
"368 19 OFFCURVE",
"321 10 OFFCURVE",
"258 10 CURVE SMOOTH",
"133 10 OFFCURVE",
"100 45 OFFCURVE",
"100 180 CURVE SMOOTH",
"100 520 LINE",
"80 520 LINE",
"80 180 LINE SMOOTH",
"80 34 OFFCURVE",
"122 -10 OFFCURVE",
"258 -10 CURVE SMOOTH"
);
}
);
width = 500;
},
{
anchors = (
{
name = bottom;
position = "{250, 0}";
},
{
name = ogonek;
position = "{321, 0}";
},
{
name = top;
position = "{250, 520}";
},
{
name = topright;
position = "{323, 530}";
}
);
layerId = "E27A6A66-A1F8-4E1B-8224-7C0FE77551F2";
paths = (
{
closed = 1;
nodes = (
"329 -10 OFFCURVE",
"384 0 OFFCURVE",
"433 22 CURVE",
"433 520 LINE",
"355 520 LINE",
"355 42 LINE",
"383 92 LINE",
"337 67 OFFCURVE",
"306 60 OFFCURVE",
"260 60 CURVE SMOOTH",
"170 60 OFFCURVE",
"145 87 OFFCURVE",
"145 184 CURVE SMOOTH",
"145 520 LINE",
"67 520 LINE",
"67 180 LINE SMOOTH",
"67 34 OFFCURVE",
"112 -10 OFFCURVE",
"259 -10 CURVE SMOOTH"
);
}
);
vertWidth = 1000;
width = 500;
},
{
anchors = (
{
name = bottom;
position = "{250, 0}";
},
{
name = ogonek;
position = "{310, 0}";
},
{
name = top;
position = "{250, 520}";
},
{
name = topright;
position = "{278, 530}";
}
);
layerId = "FC9CFCDA-9E80-4E73-BA51-8504D15957FA";
paths = (
{
closed = 1;
nodes = (
"335 -10 OFFCURVE",
"393 0 OFFCURVE",
"446 22 CURVE",
"446 520 LINE",
"308 520 LINE",
"308 58 LINE",
"357 144 LINE",
"307 115 OFFCURVE",
"292 110 OFFCURVE",
"263 110 CURVE SMOOTH",
"208 110 OFFCURVE",
"192 128 OFFCURVE",
"192 188 CURVE SMOOTH",
"192 520 LINE",
"54 520 LINE",
"54 180 LINE SMOOTH",
"54 34 OFFCURVE",
"102 -10 OFFCURVE",
"260 -10 CURVE SMOOTH"
);
}
);
vertWidth = 1000;
width = 500;
}
);
leftKerningGroup = u;
rightKerningGroup = u;
rightMetricsKey = "=|";
unicode = 0075;
},
{
color = 10;
glyphname = v;
lastChange = "2021-04-10 02:33:56 +0000";
layers = (
{
layerId = "D65C9A1E-0FCA-4B2D-8EDF-9F36CA9182A1";
paths = (
{
closed = 1;
nodes = (
"266 0 LINE",
"460 520 LINE",
"438 520 LINE",
"252 20 LINE",
"248 20 LINE",
"62 520 LINE",
"40 520 LINE",
"234 0 LINE"
);
}
);
width = 500;
},
{
layerId = "E27A6A66-A1F8-4E1B-8224-7C0FE77551F2";
paths = (
{
closed = 1;
nodes = (
"298 0 LINE",
"475 520 LINE",
"390 520 LINE",
"252 91 LINE",
"248 91 LINE",
"110 520 LINE",
"25 520 LINE",
"202 0 LINE"
);
}
);
vertWidth = 1000;
width = 500;
},
{
layerId = "FC9CFCDA-9E80-4E73-BA51-8504D15957FA";
paths = (
{
closed = 1;
nodes = (
"329 0 LINE",
"490 520 LINE",
"344 520 LINE",
"252 162 LINE",
"248 162 LINE",
"156 520 LINE",
"10 520 LINE",
"171 0 LINE"
);
}
);
vertWidth = 1000;
width = 500;
}
);
leftKerningGroup = v;
rightKerningGroup = v;
rightMetricsKey = "=|";
unicode = 0076;
},
{
color = 10;
glyphname = w;
lastChange = "2021-04-15 05:30:26 +0000";
layers = (
{
anchors = (
{
name = bottom;
position = "{250, 0}";
},
{
name = top;
position = "{250, 520}";
}
);
layerId = "D65C9A1E-0FCA-4B2D-8EDF-9F36CA9182A1";
paths = (
{
closed = 1;
nodes = (
"147 0 LINE",
"248 500 LINE",
"252 500 LINE",
"353 0 LINE",
"391 0 LINE",
"485 520 LINE",
"464 520 LINE",
"374 20 LINE",
"370 20 LINE",
"268 520 LINE",
"232 520 LINE",
"130 20 LINE",
"126 20 LINE",
"36 520 LINE",
"15 520 LINE",
"109 0 LINE"
);
}
);
width = 500;
},
{
anchors = (
{
name = bottom;
position = "{250, 0}";
},
{
name = top;
position = "{250, 520}";
}
);
layerId = "E27A6A66-A1F8-4E1B-8224-7C0FE77551F2";
paths = (
{
closed = 1;
nodes = (
"193 0 LINE",
"248 395 LINE",
"252 395 LINE",
"307 0 LINE",
"417 0 LINE",
"490 520 LINE",
"410 520 LINE",
"360 90 LINE",
"356 90 LINE",
"306 520 LINE",
"194 520 LINE",
"144 90 LINE",
"140 90 LINE",
"90 520 LINE",
"10 520 LINE",
"83 0 LINE"
);
}
);
vertWidth = 1000;
width = 500;
},
{
anchors = (
{
name = bottom;
position = "{250, 0}";
},
{
name = top;
position = "{250, 520}";
}
);
layerId = "FC9CFCDA-9E80-4E73-BA51-8504D15957FA";
paths = (
{
closed = 1;
nodes = (
"220 0 LINE",
"248 290 LINE",
"252 290 LINE",
"280 0 LINE",
"443 0 LINE",
"495 520 LINE",
"357 520 LINE",
"347 160 LINE",
"343 160 LINE",
"303 520 LINE",
"197 520 LINE",
"157 160 LINE",
"153 160 LINE",
"143 520 LINE",
"5 520 LINE",
"57 0 LINE"
);
}
);
vertWidth = 1000;
width = 500;
}
);
leftKerningGroup = v;
rightKerningGroup = v;
rightMetricsKey = "=|";
unicode = 0077;
},
{
color = 10;
glyphname = x;
lastChange = "2021-04-10 02:34:05 +0000";
layers = (
{
layerId = "D65C9A1E-0FCA-4B2D-8EDF-9F36CA9182A1";
paths = (
{
closed = 1;
nodes = (
"84 0 LINE",
"248 240 LINE",
"252 240 LINE",
"416 0 LINE",
"440 0 LINE",
"262 260 LINE",
"440 520 LINE",
"416 520 LINE",
"252 280 LINE",
"248 280 LINE",
"84 520 LINE",
"60 520 LINE",
"238 260 LINE",
"60 0 LINE"
);
}
);
width = 500;
},
{
layerId = "E27A6A66-A1F8-4E1B-8224-7C0FE77551F2";
paths = (
{
closed = 1;
nodes = (
"131 0 LINE",
"248 208 LINE",
"252 208 LINE",
"369 0 LINE",
"455 0 LINE",
"308 260 LINE",
"455 520 LINE",
"370 520 LINE",
"252 312 LINE",
"248 312 LINE",
"130 520 LINE",
"45 520 LINE",
"192 260 LINE",
"45 0 LINE"
);
}
);
vertWidth = 1000;
width = 500;
},
{
layerId = "FC9CFCDA-9E80-4E73-BA51-8504D15957FA";
paths = (
{
closed = 1;
nodes = (
"178 0 LINE",
"248 176 LINE",
"252 176 LINE",
"322 0 LINE",
"470 0 LINE",
"354 260 LINE",
"470 520 LINE",
"324 520 LINE",
"252 343 LINE",
"248 343 LINE",
"176 520 LINE",
"30 520 LINE",
"146 260 LINE",
"30 0 LINE"
);
}
);
vertWidth = 1000;
width = 500;
}
);
leftKerningGroup = x;
rightKerningGroup = x;
rightMetricsKey = "=|";
unicode = 0078;
},
{
color = 10;
glyphname = y;
lastChange = "2021-04-15 05:42:00 +0000";
layers = (
{
anchors = (
{
name = bottom;
position = "{250, 0}";
},
{
name = dotR;
position = "{365, -130}";
},
{
name = top;
position = "{250, 520}";
}
);
layerId = "D65C9A1E-0FCA-4B2D-8EDF-9F36CA9182A1";
paths = (
{
closed = 1;
nodes = (
"167 -220 OFFCURVE",
"216 -134 OFFCURVE",
"267 3 CURVE SMOOTH",
"460 520 LINE",
"438 520 LINE",
"257 34 LINE",
"253 34 LINE",
"62 520 LINE",
"40 520 LINE",
"248 -9 LINE",
"248 10 LINE",
"197 -126 OFFCURVE",
"155 -200 OFFCURVE",
"60 -200 CURVE",
"60 -220 LINE"
);
}
);
width = 500;
},
{
anchors = (
{
name = bottom;
position = "{250, 0}";
},
{
name = dotR;
position = "{385, -130}";
},
{
name = top;
position = "{250, 520}";
}
);
background = {
paths = (
{
closed = 1;
nodes = (
"298 0 LINE",
"475 520 LINE",
"390 520 LINE",
"252 91 LINE",
"248 91 LINE",
"110 520 LINE",
"25 520 LINE",
"202 0 LINE"
);
}
);
};
layerId = "E27A6A66-A1F8-4E1B-8224-7C0FE77551F2";
paths = (
{
closed = 1;
nodes = (
"181 -220 OFFCURVE",
"247 -152 OFFCURVE",
"289 -29 CURVE SMOOTH",
"475 520 LINE",
"390 520 LINE",
"258 110 LINE",
"254 110 LINE",
"110 520 LINE",
"25 520 LINE",
"224 -19 LINE",
"220 21 LINE",
"195 -94 OFFCURVE",
"153 -150 OFFCURVE",
"55 -150 CURVE",
"55 -220 LINE"
);
}
);
vertWidth = 1000;
width = 500;
},
{
anchors = (
{
name = bottom;
position = "{250, 0}";
},
{
name = dotR;
position = "{405, -130}";
},
{
name = top;
position = "{250, 520}";
}
);
background = {
paths = (
{
closed = 1;
nodes = (
"329 0 LINE",
"490 520 LINE",
"344 520 LINE",
"252 162 LINE",
"248 162 LINE",
"156 520 LINE",
"10 520 LINE",
"171 0 LINE"
);
}
);
};
layerId = "FC9CFCDA-9E80-4E73-BA51-8504D15957FA";
paths = (
{
closed = 1;
nodes = (
"194 -220 OFFCURVE",
"276 -170 OFFCURVE",
"310 -61 CURVE SMOOTH",
"490 520 LINE",
"344 520 LINE",
"258 185 LINE",
"254 185 LINE",
"156 520 LINE",
"10 520 LINE",
"200 -29 LINE",
"192 34 LINE",
"192 -60 OFFCURVE",
"151 -98 OFFCURVE",
"50 -98 CURVE",
"50 -220 LINE"
);
}
);
vertWidth = 1000;
width = 500;
}
);
leftKerningGroup = v;
rightKerningGroup = v;
unicode = 0079;
},
{
color = 10;
glyphname = z;
lastChange = "2021-04-13 02:52:46 +0000";
layers = (
{
anchors = (
{
name = bottom;
position = "{250, 0}";
},
{
name = center;
position = "{250, 260}";
},
{
name = top;
position = "{250, 520}";
}
);
layerId = "D65C9A1E-0FCA-4B2D-8EDF-9F36CA9182A1";
paths = (
{
closed = 1;
nodes = (
"415 0 LINE",
"415 20 LINE",
"111 20 LINE",
"111 24 LINE",
"415 500 LINE",
"415 520 LINE",
"85 520 LINE",
"85 500 LINE",
"389 500 LINE",
"389 496 LINE",
"85 20 LINE",
"85 0 LINE"
);
}
);
width = 500;
},
{
anchors = (
{
name = bottom;
position = "{250, 0}";
},
{
name = center;
position = "{250, 260}";
},
{
name = top;
position = "{250, 520}";
}
);
layerId = "E27A6A66-A1F8-4E1B-8224-7C0FE77551F2";
paths = (
{
closed = 1;
nodes = (
"425 0 LINE",
"425 70 LINE",
"168 70 LINE",
"168 74 LINE",
"425 450 LINE",
"425 520 LINE",
"75 520 LINE",
"75 450 LINE",
"332 450 LINE",
"332 446 LINE",
"75 70 LINE",
"75 0 LINE"
);
}
);
vertWidth = 1000;
width = 500;
},
{
anchors = (
{
name = bottom;
position = "{250, 0}";
},
{
name = center;
position = "{250, 260}";
},
{
name = top;
position = "{250, 520}";
}
);
layerId = "FC9CFCDA-9E80-4E73-BA51-8504D15957FA";
paths = (
{
closed = 1;
nodes = (
"435 0 LINE",
"435 118 LINE",
"225 118 LINE",
"225 122 LINE",
"435 402 LINE",
"435 520 LINE",
"65 520 LINE",
"65 402 LINE",
"275 402 LINE",
"275 398 LINE",
"65 118 LINE",
"65 0 LINE"
);
}
);
vertWidth = 1000;
width = 500;
}
);
leftKerningGroup = z;
rightKerningGroup = z;
rightMetricsKey = "=|";
unicode = 007A;
},
{
color = 9;
glyphname = f.001;
lastChange = "2021-04-08 01:05:46 +0000";
layers = (
{
layerId = "D65C9A1E-0FCA-4B2D-8EDF-9F36CA9182A1";
paths = (
{
closed = 1;
nodes = (
"244 0 LINE",
"244 500 LINE",
"450 500 LINE",
"450 520 LINE",
"244 520 LINE",
"244 620 LINE SMOOTH",
"244 711 OFFCURVE",
"281 750 OFFCURVE",
"368 750 CURVE SMOOTH",
"399 750 OFFCURVE",
"420 745 OFFCURVE",
"450 733 CURVE",
"450 755 LINE",
"420 766 OFFCURVE",
"396 770 OFFCURVE",
"368 770 CURVE SMOOTH",
"270 770 OFFCURVE",
"224 722 OFFCURVE",
"224 620 CURVE SMOOTH",
"224 520 LINE",
"50 520 LINE",
"50 500 LINE",
"224 500 LINE",
"224 0 LINE"
);
}
);
width = 500;
},
{
background = {
paths = (
{
closed = 1;
nodes = (
"271 0 LINE",
"271 457 LINE",
"452 457 LINE",
"452 520 LINE",
"271 520 LINE",
"271 594 LINE SMOOTH",
"271 673 OFFCURVE",
"300 704 OFFCURVE",
"372 704 CURVE SMOOTH",
"396 704 OFFCURVE",
"418 700 OFFCURVE",
"444 692 CURVE",
"455 755 LINE",
"424 765 OFFCURVE",
"393 770 OFFCURVE",
"360 770 CURVE SMOOTH",
"248 770 OFFCURVE",
"192 713 OFFCURVE",
"192 597 CURVE SMOOTH",
"192 520 LINE",
"45 520 LINE",
"45 457 LINE",
"192 457 LINE",
"192 0 LINE"
);
}
);
};
layerId = "E27A6A66-A1F8-4E1B-8224-7C0FE77551F2";
paths = (
{
closed = 1;
nodes = (
"276 0 LINE",
"276 450 LINE",
"460 450 LINE",
"460 520 LINE",
"276 520 LINE",
"276 594 LINE SMOOTH",
"276 669 OFFCURVE",
"305 700 OFFCURVE",
"377 700 CURVE SMOOTH",
"403 700 OFFCURVE",
"429 696 OFFCURVE",
"460 684 CURVE",
"460 755 LINE",
"429 765 OFFCURVE",
"398 770 OFFCURVE",
"365 770 CURVE SMOOTH",
"252 770 OFFCURVE",
"196 713 OFFCURVE",
"196 597 CURVE SMOOTH",
"196 520 LINE",
"40 520 LINE",
"40 450 LINE",
"196 450 LINE",
"196 0 LINE"
);
}
);
vertWidth = 1000;
width = 500;
},
{
layerId = "FC9CFCDA-9E80-4E73-BA51-8504D15957FA";
paths = (
{
closed = 1;
nodes = (
"308 0 LINE",
"308 402 LINE",
"470 402 LINE",
"470 520 LINE",
"308 520 LINE",
"308 568 LINE SMOOTH",
"308 626 OFFCURVE",
"330 648 OFFCURVE",
"385 648 CURVE SMOOTH",
"409 648 OFFCURVE",
"437 644 OFFCURVE",
"470 632 CURVE",
"470 755 LINE",
"438 764 OFFCURVE",
"400 770 OFFCURVE",
"362 770 CURVE SMOOTH",
"234 770 OFFCURVE",
"168 703 OFFCURVE",
"168 573 CURVE SMOOTH",
"168 520 LINE",
"30 520 LINE",
"30 402 LINE",
"168 402 LINE",
"168 0 LINE"
);
}
);
vertWidth = 1000;
width = 500;
}
);
leftKerningGroup = f;
rightKerningGroup = f;
},
